{"glyphs":{"0":{"ha":1389,"x_min":0,"x_max":0,"o":""},"1":{"ha":1389,"x_min":0,"x_max":0,"o":""},"2":{"ha":1389,"x_min":0,"x_max":0,"o":""},"3":{"ha":1389,"x_min":0,"x_max":0,"o":""},"4":{"ha":1389,"x_min":0,"x_max":0,"o":""},"5":{"ha":1389,"x_min":0,"x_max":0,"o":""},"6":{"ha":1389,"x_min":0,"x_max":0,"o":""},"7":{"ha":1389,"x_min":0,"x_max":0,"o":""},"8":{"ha":1389,"x_min":0,"x_max":0,"o":""},"9":{"ha":1389,"x_min":0,"x_max":0,"o":""}," ":{"ha":1389,"x_min":0,"x_max":0,"o":""},"":{"ha":1389,"x_min":0,"x_max":0,"o":"m 1099 1215 l 290 1215 b 174 1099 225 1215 174 1164 l 174 290 b 290 174 174 225 225 174 l 1099 174 b 1215 290 1164 174 1215 225 l 1215 1099 b 1099 1215 1215 1164 1164 1215 z m 1099 868 l 1099 290 l 290 290 l 290 781 l 347 781 l 347 521 l 434 521 l 434 868 l 290 868 l 290 1099 l 1099 1099 l 1099 868 z m 898 738 l 898 868 l 811 868 l 811 521 l 898 521 l 898 651 l 998 521 l 1099 521 l 968 694 l 1099 868 l 998 868 l 898 738 z m 551 521 l 694 521 b 751 578 727 521 751 548 l 751 811 b 694 868 751 841 727 868 l 551 868 b 491 811 518 868 491 841 l 491 578 b 551 521 491 548 518 521 z m 578 781 l 665 781 l 665 608 l 578 608 l 578 781 z "},"":{"ha":1389,"x_min":0,"x_max":0,"o":"m 751 724 l 898 724 b 955 781 928 724 955 749 l 955 1012 b 898 1072 955 1044 928 1072 l 751 1072 b 694 1012 722 1072 694 1044 l 694 781 b 751 724 694 749 722 724 z m 781 985 l 868 985 l 868 811 l 781 811 l 781 985 z m 434 578 l 491 578 l 491 404 l 578 404 l 578 578 l 637 578 l 637 317 l 724 317 l 724 608 b 665 665 724 640 697 665 l 404 665 b 347 608 374 665 347 640 l 347 317 l 434 317 l 434 578 z m 491 724 l 578 724 l 578 1072 l 404 1072 l 404 985 l 491 985 l 491 724 z m 781 317 l 868 317 l 868 404 l 985 404 b 1042 464 1015 404 1042 431 l 1042 608 b 985 665 1042 640 1015 665 l 781 665 l 781 317 z m 868 578 l 955 578 l 955 491 l 868 491 l 868 578 z m 1099 1215 l 290 1215 b 174 1099 225 1215 174 1164 l 174 290 b 290 174 174 225 225 174 l 1099 174 b 1215 290 1164 174 1215 225 l 1215 1099 b 1099 1215 1215 1164 1164 1215 z m 1099 290 l 290 290 l 290 1099 l 1099 1099 l 1099 290 z "},"":{"ha":1389,"x_min":0,"x_max":0,"o":"m 434 578 l 491 578 l 491 404 l 578 404 l 578 578 l 637 578 l 637 317 l 724 317 l 724 608 b 665 665 724 640 697 665 l 404 665 b 347 608 374 665 347 640 l 347 317 l 434 317 l 434 578 z m 781 317 l 868 317 l 868 404 l 985 404 b 1042 464 1015 404 1042 431 l 1042 608 b 985 665 1042 640 1015 665 l 781 665 l 781 317 z m 868 578 l 955 578 l 955 491 l 868 491 l 868 578 z m 1099 1215 l 290 1215 b 174 1099 225 1215 174 1164 l 174 290 b 290 174 174 225 225 174 l 1099 174 b 1215 290 1164 174 1215 225 l 1215 1099 b 1099 1215 1215 1164 1164 1215 z m 1099 290 l 290 290 l 290 1099 l 1099 1099 l 1099 290 z m 551 724 l 637 724 l 637 1072 l 464 1072 l 464 985 l 551 985 l 551 724 z m 838 724 l 925 724 l 925 1072 l 751 1072 l 751 985 l 838 985 l 838 724 z "},"":{"ha":1389,"x_min":0,"x_max":0,"o":"m 404 521 l 317 521 l 317 781 l 231 781 l 231 868 l 404 868 l 404 521 z m 781 608 l 608 608 l 608 665 l 724 665 b 781 724 754 665 781 692 l 781 811 b 724 868 781 841 754 868 l 521 868 l 521 781 l 694 781 l 694 724 l 578 724 b 521 665 548 724 521 697 l 521 521 l 781 521 l 781 608 z m 1128 578 l 1128 811 b 1072 868 1128 841 1101 868 l 868 868 l 868 781 l 1042 781 l 1042 724 l 925 724 l 925 665 l 1042 665 l 1042 608 l 868 608 l 868 521 l 1072 521 b 1128 578 1101 521 1128 548 z "},"":{"ha":1389,"x_min":0,"x_max":0,"o":"m 434 578 l 491 578 l 491 404 l 578 404 l 578 578 l 637 578 l 637 317 l 724 317 l 724 608 b 665 665 724 640 697 665 l 404 665 b 347 608 374 665 347 640 l 347 317 l 434 317 l 434 578 z m 781 317 l 868 317 l 868 404 l 985 404 b 1042 464 1015 404 1042 431 l 1042 608 b 985 665 1042 640 1015 665 l 781 665 l 781 317 z m 868 578 l 955 578 l 955 491 l 868 491 l 868 578 z m 1099 1215 l 290 1215 b 174 1099 225 1215 174 1164 l 174 290 b 290 174 174 225 225 174 l 1099 174 b 1215 290 1164 174 1215 225 l 1215 1099 b 1099 1215 1215 1164 1164 1215 z m 1099 290 l 290 290 l 290 1099 l 1099 1099 l 1099 290 z m 491 724 l 578 724 l 578 1072 l 404 1072 l 404 985 l 491 985 l 491 724 z m 955 811 l 781 811 l 781 868 l 898 868 b 955 925 928 868 955 895 l 955 1012 b 898 1072 955 1044 928 1072 l 694 1072 l 694 985 l 868 985 l 868 925 l 751 925 b 694 868 722 925 694 901 l 694 724 l 955 724 l 955 811 z "},"":{"ha":1389,"x_min":0,"x_max":0,"o":"m 491 724 l 578 724 l 578 1072 l 404 1072 l 404 985 l 491 985 l 491 724 z m 955 781 l 955 1012 b 898 1072 955 1044 928 1072 l 694 1072 l 694 985 l 868 985 l 868 925 l 751 925 l 751 868 l 868 868 l 868 811 l 694 811 l 694 724 l 898 724 b 955 781 928 724 955 749 z m 434 578 l 491 578 l 491 404 l 578 404 l 578 578 l 637 578 l 637 317 l 724 317 l 724 608 b 665 665 724 640 697 665 l 404 665 b 347 608 374 665 347 640 l 347 317 l 434 317 l 434 578 z m 781 317 l 868 317 l 868 404 l 985 404 b 1042 464 1015 404 1042 431 l 1042 608 b 985 665 1042 640 1015 665 l 781 665 l 781 317 z m 868 578 l 955 578 l 955 491 l 868 491 l 868 578 z m 1099 1215 l 290 1215 b 174 1099 225 1215 174 1164 l 174 290 b 290 174 174 225 225 174 l 1099 174 b 1215 290 1164 174 1215 225 l 1215 1099 b 1099 1215 1215 1164 1164 1215 z m 1099 290 l 290 290 l 290 1099 l 1099 1099 l 1099 290 z "},"":{"ha":1389,"x_min":0,"x_max":0,"o":"m 434 578 l 491 578 l 491 404 l 578 404 l 578 578 l 637 578 l 637 317 l 724 317 l 724 608 b 665 665 724 640 697 665 l 404 665 b 347 608 374 665 347 640 l 347 317 l 434 317 l 434 578 z m 781 665 l 781 317 l 868 317 l 868 404 l 985 404 b 1042 464 1015 404 1042 431 l 1042 608 b 985 665 1042 640 1015 665 l 781 665 z m 955 491 l 868 491 l 868 578 l 955 578 l 955 491 z m 1099 1215 l 290 1215 b 174 1099 225 1215 174 1164 l 174 290 b 290 174 174 225 225 174 l 1099 174 b 1215 290 1164 174 1215 225 l 1215 1099 b 1099 1215 1215 1164 1164 1215 z m 1099 290 l 290 290 l 290 1099 l 1099 1099 l 1099 290 z m 491 724 l 578 724 l 578 1072 l 404 1072 l 404 985 l 491 985 l 491 724 z m 868 724 l 955 724 l 955 811 l 1012 811 l 1012 898 l 955 898 l 955 1072 l 868 1072 l 868 898 l 781 898 l 781 1072 l 694 1072 l 694 811 l 868 811 l 868 724 z "},"":{"ha":1389,"x_min":0,"x_max":0,"o":"m 434 578 l 491 578 l 491 404 l 578 404 l 578 578 l 637 578 l 637 317 l 724 317 l 724 608 b 665 665 724 640 697 665 l 404 665 b 347 608 374 665 347 640 l 347 317 l 434 317 l 434 578 z m 781 317 l 868 317 l 868 404 l 985 404 b 1042 464 1015 404 1042 431 l 1042 608 b 985 665 1042 640 1015 665 l 781 665 l 781 317 z m 868 578 l 955 578 l 955 491 l 868 491 l 868 578 z m 1099 1215 l 290 1215 b 174 1099 225 1215 174 1164 l 174 290 b 290 174 174 225 225 174 l 1099 174 b 1215 290 1164 174 1215 225 l 1215 1099 b 1099 1215 1215 1164 1164 1215 z m 1099 290 l 290 290 l 290 1099 l 1099 1099 l 1099 290 z m 491 724 l 578 724 l 578 1072 l 404 1072 l 404 985 l 491 985 l 491 724 z m 955 781 l 955 868 b 898 925 955 901 928 925 l 781 925 l 781 985 l 955 985 l 955 1072 l 694 1072 l 694 868 l 868 868 l 868 811 l 694 811 l 694 724 l 898 724 b 955 781 928 724 955 749 z "},"":{"ha":1389,"x_min":0,"x_max":0,"o":"m 434 578 l 491 578 l 491 404 l 578 404 l 578 578 l 637 578 l 637 317 l 724 317 l 724 608 b 665 665 724 640 697 665 l 404 665 b 347 608 374 665 347 640 l 347 317 l 434 317 l 434 578 z m 781 317 l 868 317 l 868 404 l 985 404 b 1042 464 1015 404 1042 431 l 1042 608 b 985 665 1042 640 1015 665 l 781 665 l 781 317 z m 868 578 l 955 578 l 955 491 l 868 491 l 868 578 z m 1099 1215 l 290 1215 b 174 1099 225 1215 174 1164 l 174 290 b 290 174 174 225 225 174 l 1099 174 b 1215 290 1164 174 1215 225 l 1215 1099 b 1099 1215 1215 1164 1164 1215 z m 1099 290 l 290 290 l 290 1099 l 1099 1099 l 1099 290 z m 751 724 l 898 724 b 955 781 928 724 955 749 l 955 868 b 898 925 955 901 928 925 l 781 925 l 781 985 l 955 985 l 955 1072 l 751 1072 b 694 1012 722 1072 694 1044 l 694 781 b 751 724 694 749 722 724 z m 781 868 l 868 868 l 868 781 l 781 781 l 781 868 z m 491 724 l 578 724 l 578 1072 l 404 1072 l 404 985 l 491 985 l 491 724 z "},"":{"ha":1389,"x_min":0,"x_max":0,"o":"m 434 578 l 491 578 l 491 404 l 578 404 l 578 578 l 637 578 l 637 317 l 724 317 l 724 608 b 665 665 724 640 697 665 l 404 665 b 347 608 374 665 347 640 l 347 317 l 434 317 l 434 578 z m 781 317 l 868 317 l 868 404 l 985 404 b 1042 464 1015 404 1042 431 l 1042 608 b 985 665 1042 640 1015 665 l 781 665 l 781 317 z m 868 578 l 955 578 l 955 491 l 868 491 l 868 578 z m 1099 1215 l 290 1215 b 174 1099 225 1215 174 1164 l 174 290 b 290 174 174 225 225 174 l 1099 174 b 1215 290 1164 174 1215 225 l 1215 1099 b 1099 1215 1215 1164 1164 1215 z m 1099 290 l 290 290 l 290 1099 l 1099 1099 l 1099 290 z m 491 724 l 578 724 l 578 1072 l 404 1072 l 404 985 l 491 985 l 491 724 z m 768 724 l 868 724 l 952 996 b 898 1072 963 1034 936 1072 l 694 1072 l 694 985 l 846 985 l 768 724 z "},"":{"ha":1389,"x_min":0,"x_max":0,"o":"m 491 521 l 578 521 l 578 868 l 404 868 l 404 781 l 491 781 l 491 521 z m 1099 1215 l 290 1215 b 174 1099 225 1215 174 1164 l 174 290 b 290 174 174 225 225 174 l 1099 174 b 1215 290 1164 174 1215 225 l 1215 1099 b 1099 1215 1215 1164 1164 1215 z m 1099 290 l 290 290 l 290 1099 l 1099 1099 l 1099 290 z m 724 521 l 868 521 b 925 578 901 521 925 548 l 925 811 b 868 868 925 841 901 868 l 724 868 b 665 811 692 868 665 841 l 665 578 b 724 521 665 548 692 521 z m 751 811 l 838 811 l 838 724 l 751 724 l 751 811 z m 751 665 l 838 665 l 838 578 l 751 578 l 751 665 z "},"":{"ha":1389,"x_min":0,"x_max":0,"o":"m 434 578 l 491 578 l 491 404 l 578 404 l 578 578 l 637 578 l 637 317 l 724 317 l 724 608 b 665 665 724 640 697 665 l 404 665 b 347 608 374 665 347 640 l 347 317 l 434 317 l 434 578 z m 781 317 l 868 317 l 868 404 l 985 404 b 1042 464 1015 404 1042 431 l 1042 608 b 985 665 1042 640 1015 665 l 781 665 l 781 317 z m 868 578 l 955 578 l 955 491 l 868 491 l 868 578 z m 1099 1215 l 290 1215 b 174 1099 225 1215 174 1164 l 174 290 b 290 174 174 225 225 174 l 1099 174 b 1215 290 1164 174 1215 225 l 1215 1099 b 1099 1215 1215 1164 1164 1215 z m 1099 290 l 290 290 l 290 1099 l 1099 1099 l 1099 290 z m 491 724 l 578 724 l 578 1072 l 404 1072 l 404 985 l 491 985 l 491 724 z m 751 724 l 898 724 b 955 781 928 724 955 749 l 955 1012 b 898 1072 955 1044 928 1072 l 751 1072 b 694 1012 722 1072 694 1044 l 694 781 b 751 724 694 749 722 724 z m 781 1012 l 868 1012 l 868 925 l 781 925 l 781 1012 z m 781 868 l 868 868 l 868 781 l 781 781 l 781 868 z "},"":{"ha":1389,"x_min":0,"x_max":0,"o":"m 434 578 l 491 578 l 491 404 l 578 404 l 578 578 l 637 578 l 637 317 l 724 317 l 724 608 b 665 665 724 640 697 665 l 404 665 b 347 608 374 665 347 640 l 347 317 l 434 317 l 434 578 z m 781 317 l 868 317 l 868 404 l 985 404 b 1042 464 1015 404 1042 431 l 1042 608 b 985 665 1042 640 1015 665 l 781 665 l 781 317 z m 868 578 l 955 578 l 955 491 l 868 491 l 868 578 z m 1099 1215 l 290 1215 b 174 1099 225 1215 174 1164 l 174 290 b 290 174 174 225 225 174 l 1099 174 b 1215 290 1164 174 1215 225 l 1215 1099 b 1099 1215 1215 1164 1164 1215 z m 1099 290 l 290 290 l 290 1099 l 1099 1099 l 1099 290 z m 491 724 l 578 724 l 578 1072 l 404 1072 l 404 985 l 491 985 l 491 724 z m 955 781 l 955 1012 b 898 1072 955 1044 928 1072 l 751 1072 b 694 1012 722 1072 694 1044 l 694 925 b 751 868 694 895 722 868 l 868 868 l 868 811 l 694 811 l 694 724 l 898 724 b 955 781 928 724 955 749 z m 868 925 l 781 925 l 781 1012 l 868 1012 l 868 925 z "},"":{"ha":1389,"x_min":0,"x_max":0,"o":"m 1099 1215 l 290 1215 b 174 1099 225 1215 174 1164 l 174 290 b 290 174 174 225 225 174 l 1099 174 b 1215 290 1164 174 1215 225 l 1215 1099 b 1099 1215 1215 1164 1164 1215 z m 1099 290 l 290 290 l 290 1099 l 1099 1099 l 1099 290 z m 491 521 l 578 521 l 578 868 l 404 868 l 404 781 l 491 781 l 491 521 z m 781 651 l 882 521 l 985 521 l 854 694 l 985 868 l 882 868 l 781 738 l 781 868 l 694 868 l 694 521 l 781 521 l 781 651 z "},"":{"ha":1389,"x_min":0,"x_max":0,"o":"m 1099 1215 l 290 1215 b 174 1099 225 1215 174 1164 l 174 290 b 290 174 174 225 225 174 l 1099 174 b 1215 290 1164 174 1215 225 l 1215 1099 b 1099 1215 1215 1164 1164 1215 z m 1099 724 l 1012 724 l 1012 811 l 955 811 l 955 724 l 868 724 l 868 665 l 955 665 l 955 578 l 1012 578 l 1012 665 l 1099 665 l 1099 290 l 290 290 l 290 1099 l 1099 1099 l 1099 724 z m 434 521 l 521 521 l 521 868 l 347 868 l 347 781 l 434 781 l 434 521 z m 694 651 l 795 521 l 898 521 l 768 694 l 898 868 l 795 868 l 694 738 l 694 868 l 608 868 l 608 521 l 694 521 l 694 651 z "},"":{"ha":1389,"x_min":0,"x_max":0,"o":"m 231 985 l 464 985 l 464 404 l 347 404 l 347 868 l 231 868 l 231 985 z m 917 711 l 1080 985 l 944 985 l 849 825 l 751 985 l 618 985 l 781 711 l 597 404 l 732 404 l 849 600 l 963 404 l 1099 404 l 917 711 z "},"":{"ha":1389,"x_min":0,"x_max":0,"o":"m 434 578 l 491 578 l 491 404 l 578 404 l 578 578 l 637 578 l 637 317 l 724 317 l 724 608 b 665 665 724 640 697 665 l 404 665 b 347 608 374 665 347 640 l 347 317 l 434 317 l 434 578 z m 781 665 l 781 317 l 868 317 l 868 404 l 985 404 b 1042 464 1015 404 1042 431 l 1042 608 b 985 665 1042 640 1015 665 l 781 665 z m 955 491 l 868 491 l 868 578 l 955 578 l 955 491 z m 1099 1215 l 290 1215 b 174 1099 225 1215 174 1164 l 174 290 b 290 174 174 225 225 174 l 1099 174 b 1215 290 1164 174 1215 225 l 1215 1099 b 1099 1215 1215 1164 1164 1215 z m 1099 290 l 290 290 l 290 1099 l 1099 1099 l 1099 290 z m 811 724 l 955 724 b 1012 781 987 724 1012 749 l 1012 1012 b 955 1072 1012 1044 987 1072 l 811 1072 b 751 1012 779 1072 751 1044 l 751 781 b 811 724 751 749 779 724 z m 838 985 l 925 985 l 925 811 l 838 811 l 838 985 z m 637 811 l 464 811 l 464 868 l 578 868 b 637 925 610 868 637 895 l 637 1012 b 578 1072 637 1044 610 1072 l 377 1072 l 377 985 l 551 985 l 551 925 l 434 925 b 377 868 401 925 377 901 l 377 724 l 637 724 l 637 811 z "},"":{"ha":1389,"x_min":0,"x_max":0,"o":"m 1099 1215 l 290 1215 b 174 1099 225 1215 174 1164 l 174 290 b 290 174 174 225 225 174 l 1099 174 b 1215 290 1164 174 1215 225 l 1215 1099 b 1099 1215 1215 1164 1164 1215 z m 1099 290 l 290 290 l 290 1099 l 1099 1099 l 1099 290 z m 838 724 l 925 724 l 925 1072 l 751 1072 l 751 985 l 838 985 l 838 724 z m 694 811 l 521 811 l 521 868 l 637 868 b 694 925 667 868 694 895 l 694 1012 b 637 1072 694 1044 667 1072 l 434 1072 l 434 985 l 608 985 l 608 925 l 491 925 b 434 868 461 925 434 901 l 434 724 l 694 724 l 694 811 z m 434 578 l 491 578 l 491 404 l 578 404 l 578 578 l 637 578 l 637 317 l 724 317 l 724 608 b 665 665 724 640 697 665 l 404 665 b 347 608 374 665 347 640 l 347 317 l 434 317 l 434 578 z m 868 404 l 985 404 b 1042 464 1015 404 1042 431 l 1042 608 b 985 665 1042 640 1015 665 l 781 665 l 781 317 l 868 317 l 868 404 z m 868 578 l 955 578 l 955 491 l 868 491 l 868 578 z "},"":{"ha":1389,"x_min":0,"x_max":0,"o":"m 434 578 l 491 578 l 491 404 l 578 404 l 578 578 l 637 578 l 637 317 l 724 317 l 724 608 b 665 665 724 640 697 665 l 404 665 b 347 608 374 665 347 640 l 347 317 l 434 317 l 434 578 z m 781 665 l 781 317 l 868 317 l 868 404 l 985 404 b 1042 464 1015 404 1042 431 l 1042 608 b 985 665 1042 640 1015 665 l 781 665 z m 955 491 l 868 491 l 868 578 l 955 578 l 955 491 z m 1099 1215 l 290 1215 b 174 1099 225 1215 174 1164 l 174 290 b 290 174 174 225 225 174 l 1099 174 b 1215 290 1164 174 1215 225 l 1215 1099 b 1099 1215 1215 1164 1164 1215 z m 1099 290 l 290 290 l 290 1099 l 1099 1099 l 1099 290 z m 637 811 l 464 811 l 464 868 l 578 868 b 637 925 610 868 637 895 l 637 1012 b 578 1072 637 1044 610 1072 l 377 1072 l 377 985 l 551 985 l 551 925 l 434 925 b 377 868 401 925 377 901 l 377 724 l 637 724 l 637 811 z m 1012 811 l 838 811 l 838 868 l 955 868 b 1012 925 987 868 1012 895 l 1012 1012 b 955 1072 1012 1044 987 1072 l 751 1072 l 751 985 l 925 985 l 925 925 l 811 925 b 751 868 779 925 751 901 l 751 724 l 1012 724 l 1012 811 z "},"":{"ha":1389,"x_min":0,"x_max":0,"o":"m 434 578 l 491 578 l 491 404 l 578 404 l 578 578 l 637 578 l 637 317 l 724 317 l 724 608 b 665 665 724 640 697 665 l 404 665 b 347 608 374 665 347 640 l 347 317 l 434 317 l 434 578 z m 781 665 l 781 317 l 868 317 l 868 404 l 985 404 b 1042 464 1015 404 1042 431 l 1042 608 b 985 665 1042 640 1015 665 l 781 665 z m 955 491 l 868 491 l 868 578 l 955 578 l 955 491 z m 1099 1215 l 290 1215 b 174 1099 225 1215 174 1164 l 174 290 b 290 174 174 225 225 174 l 1099 174 b 1215 290 1164 174 1215 225 l 1215 1099 b 1099 1215 1215 1164 1164 1215 z m 1099 290 l 290 290 l 290 1099 l 1099 1099 l 1099 290 z m 637 811 l 464 811 l 464 868 l 578 868 b 637 925 610 868 637 895 l 637 1012 b 578 1072 637 1044 610 1072 l 377 1072 l 377 985 l 551 985 l 551 925 l 434 925 b 377 868 401 925 377 901 l 377 724 l 637 724 l 637 811 z m 1012 781 l 1012 1012 b 955 1072 1012 1044 987 1072 l 751 1072 l 751 985 l 925 985 l 925 925 l 811 925 l 811 868 l 925 868 l 925 811 l 751 811 l 751 724 l 955 724 b 1012 781 987 724 1012 749 z "},"":{"ha":1389,"x_min":0,"x_max":0,"o":"m 434 578 l 491 578 l 491 404 l 578 404 l 578 578 l 637 578 l 637 317 l 724 317 l 724 608 b 665 665 724 640 697 665 l 404 665 b 347 608 374 665 347 640 l 347 317 l 434 317 l 434 578 z m 985 665 l 781 665 l 781 317 l 868 317 l 868 404 l 985 404 b 1042 464 1015 404 1042 431 l 1042 608 b 985 665 1042 640 1015 665 z m 955 491 l 868 491 l 868 578 l 955 578 l 955 491 z m 1099 1215 l 290 1215 b 174 1099 225 1215 174 1164 l 174 290 b 290 174 174 225 225 174 l 1099 174 b 1215 290 1164 174 1215 225 l 1215 1099 b 1099 1215 1215 1164 1164 1215 z m 1099 290 l 290 290 l 290 1099 l 1099 1099 l 1099 290 z m 637 811 l 464 811 l 464 868 l 578 868 b 637 925 610 868 637 895 l 637 1012 b 578 1072 637 1044 610 1072 l 377 1072 l 377 985 l 551 985 l 551 925 l 434 925 b 377 868 401 925 377 901 l 377 724 l 637 724 l 637 811 z m 925 724 l 1012 724 l 1012 811 l 1072 811 l 1072 898 l 1012 898 l 1012 1072 l 925 1072 l 925 898 l 838 898 l 838 1072 l 751 1072 l 751 811 l 925 811 l 925 724 z "},"":{"ha":1389,"x_min":0,"x_max":0,"o":"m 1099 1215 l 290 1215 b 174 1099 225 1215 174 1164 l 174 290 b 290 174 174 225 225 174 l 1099 174 b 1215 290 1164 174 1215 225 l 1215 1099 b 1099 1215 1215 1164 1164 1215 z m 1099 290 l 290 290 l 290 1099 l 1099 1099 l 1099 290 z m 637 608 l 464 608 l 464 665 l 578 665 b 637 724 610 665 637 692 l 637 811 b 578 868 637 841 610 868 l 377 868 l 377 781 l 551 781 l 551 724 l 434 724 b 377 665 401 724 377 697 l 377 521 l 637 521 l 637 608 z m 838 651 l 941 521 l 1042 521 l 911 694 l 1042 868 l 941 868 l 838 738 l 838 868 l 751 868 l 751 521 l 838 521 l 838 651 z "},"":{"ha":1389,"x_min":0,"x_max":0,"o":"m 1099 1215 l 290 1215 b 174 1099 225 1215 174 1164 l 174 290 b 290 174 174 225 225 174 l 1099 174 b 1215 290 1164 174 1215 225 l 1215 1099 b 1099 1215 1215 1164 1164 1215 z m 1099 724 l 1012 724 l 1012 811 l 955 811 l 955 724 l 868 724 l 868 665 l 955 665 l 955 578 l 1012 578 l 1012 665 l 1099 665 l 1099 290 l 290 290 l 290 1099 l 1099 1099 l 1099 724 z m 578 608 l 434 608 l 434 665 l 521 665 b 578 724 553 665 578 692 l 578 811 b 521 868 578 841 553 868 l 347 868 l 347 781 l 491 781 l 491 724 l 404 724 b 347 665 374 724 347 697 l 347 521 l 578 521 l 578 608 z m 724 651 l 825 521 l 925 521 l 795 694 l 925 868 l 825 868 l 724 738 l 724 868 l 637 868 l 637 521 l 724 521 l 724 651 z "},"":{"ha":1389,"x_min":0,"x_max":0,"o":"m 434 578 l 491 578 l 491 404 l 578 404 l 578 578 l 637 578 l 637 317 l 724 317 l 724 608 b 665 665 724 640 697 665 l 404 665 b 347 608 374 665 347 640 l 347 317 l 434 317 l 434 578 z m 781 317 l 868 317 l 868 404 l 985 404 b 1042 464 1015 404 1042 431 l 1042 608 b 985 665 1042 640 1015 665 l 781 665 l 781 317 z m 868 578 l 955 578 l 955 491 l 868 491 l 868 578 z m 1099 1215 l 290 1215 b 174 1099 225 1215 174 1164 l 174 290 b 290 174 174 225 225 174 l 1099 174 b 1215 290 1164 174 1215 225 l 1215 1099 b 1099 1215 1215 1164 1164 1215 z m 1099 290 l 290 290 l 290 1099 l 1099 1099 l 1099 290 z m 838 811 l 665 811 l 665 868 l 781 868 b 838 925 814 868 838 895 l 838 1012 b 781 1072 838 1044 814 1072 l 578 1072 l 578 985 l 751 985 l 751 925 l 637 925 b 578 868 605 925 578 901 l 578 724 l 838 724 l 838 811 z "},"":{"ha":1389,"x_min":0,"x_max":0,"o":"m 117 1099 l 117 925 l 464 925 l 464 781 l 174 781 l 174 608 l 464 608 l 464 464 l 117 464 l 117 290 l 464 290 b 637 464 559 290 637 366 l 637 572 b 515 694 637 640 583 694 b 637 817 583 694 637 749 l 637 925 b 464 1099 637 1023 559 1099 l 117 1099 z m 1099 925 l 1099 464 l 868 464 l 868 925 l 1099 925 z m 1099 1099 l 868 1099 b 694 925 773 1099 694 1023 l 694 464 b 868 290 694 366 773 290 l 1099 290 b 1272 464 1196 290 1272 366 l 1272 925 b 1099 1099 1272 1023 1196 1099 z "},"":{"ha":1389,"x_min":0,"x_max":0,"o":"m 231 1158 l 231 1042 l 521 1042 l 521 925 l 290 925 l 290 811 l 521 811 l 521 694 l 231 694 l 231 578 l 521 578 b 637 694 583 578 637 632 l 637 781 b 578 868 637 830 627 868 b 637 955 627 868 637 906 l 637 1042 b 521 1158 637 1104 583 1158 l 231 1158 z m 1042 1158 b 1158 1042 1104 1158 1158 1104 l 1158 694 b 1042 578 1158 632 1104 578 l 868 578 b 751 694 806 578 751 632 l 751 1042 b 868 1158 751 1104 806 1158 l 1042 1158 z m 1042 1042 l 868 1042 l 868 694 l 1042 694 l 1042 1042 z m 290 117 l 174 117 l 174 404 l 290 404 l 290 117 z m 521 117 l 404 117 l 404 404 l 521 404 l 521 117 z m 751 117 l 637 117 l 637 404 l 751 404 l 751 117 z m 1215 117 l 868 117 l 868 404 l 1215 404 l 1215 117 z "},"":{"ha":1389,"x_min":0,"x_max":0,"o":"m 694 985 b 117 694 374 985 117 854 b 521 418 117 564 285 456 l 521 231 l 751 464 l 521 694 l 521 537 b 231 694 339 570 231 646 b 694 868 231 757 407 868 b 1158 694 982 868 1158 757 b 925 548 1158 651 1074 586 l 925 429 b 1272 694 1131 475 1272 575 b 694 985 1272 854 1015 985 z "},"":{"ha":1389,"x_min":0,"x_max":0,"o":"m 437 146 b 90 637 247 236 111 418 l 3 637 b 694 0 33 279 331 0 l 732 3 l 513 222 l 437 146 z m 488 524 b 458 529 477 524 467 524 b 434 543 448 532 439 534 b 418 564 429 548 423 553 b 415 591 415 572 415 581 l 339 591 b 350 534 339 570 342 551 b 382 496 358 521 369 507 b 431 472 396 486 412 477 b 486 464 448 467 467 464 b 545 472 507 464 529 467 b 594 496 564 477 581 486 b 627 540 608 507 618 521 b 637 594 632 556 637 575 b 632 627 637 605 635 616 b 618 656 629 637 627 648 b 597 681 613 667 605 675 b 562 700 586 689 575 694 b 591 719 572 705 583 711 b 613 743 600 727 608 735 b 627 770 618 751 624 760 b 629 798 629 779 629 789 b 618 852 629 819 627 836 b 589 892 613 868 602 882 b 545 917 578 903 562 911 b 486 925 526 922 507 925 b 429 917 467 925 445 922 b 382 890 410 911 396 901 b 353 852 372 879 361 868 b 342 803 347 836 342 822 l 418 803 b 423 827 418 814 420 822 b 437 849 426 836 431 844 b 458 860 445 854 450 857 b 488 865 469 865 477 865 b 540 849 510 865 529 860 b 556 798 551 836 556 819 b 551 770 556 787 553 779 b 537 749 548 762 543 754 b 513 735 529 743 521 738 b 480 730 505 730 491 730 l 434 730 l 434 670 l 480 670 b 513 665 491 670 505 667 b 540 651 524 662 532 659 b 556 629 548 646 553 637 b 562 597 562 618 562 608 b 543 543 562 572 556 553 b 488 524 529 529 510 524 z m 982 865 b 917 911 963 884 941 901 b 830 925 890 920 863 925 l 694 925 l 694 464 l 827 464 b 914 477 860 464 890 469 b 982 524 941 488 963 505 b 1025 591 1001 543 1015 564 b 1039 684 1034 618 1039 648 l 1039 705 b 1025 798 1039 738 1034 770 b 982 865 1015 825 1001 846 z m 960 684 b 952 618 960 659 958 637 b 928 567 947 600 939 581 b 884 537 914 556 901 545 b 827 526 868 532 849 526 l 776 526 l 776 860 l 833 860 b 928 822 873 860 906 849 b 960 705 949 795 960 757 l 960 684 z m 694 1389 l 656 1386 l 876 1166 l 955 1242 b 1299 754 1145 1153 1278 971 l 1386 754 b 694 1389 1356 1109 1058 1389 z "},"":{"ha":1389,"x_min":0,"x_max":0,"o":"m 174 985 l 174 868 l 464 868 l 464 751 l 231 751 l 231 637 l 464 637 l 464 521 l 174 521 l 174 404 l 464 404 b 578 521 526 404 578 458 l 578 608 b 491 694 578 656 540 694 b 578 781 540 694 578 732 l 578 868 b 464 985 578 930 526 985 l 174 985 z m 1215 751 l 1215 521 b 1099 404 1215 458 1164 404 l 811 404 b 694 521 746 404 694 458 l 694 868 b 811 985 694 930 746 985 l 1099 985 b 1215 868 1164 985 1215 930 l 811 868 l 811 521 l 1099 521 l 1099 637 l 955 637 l 955 751 l 1215 751 z "},"":{"ha":1389,"x_min":0,"x_max":0,"o":"m 1099 1215 l 290 1215 b 174 1099 225 1215 174 1164 l 174 290 b 290 174 174 225 225 174 l 1099 174 b 1215 290 1164 174 1215 225 l 1215 1099 b 1099 1215 1215 1164 1164 1215 z m 1099 290 l 290 290 l 290 1099 l 1099 1099 l 1099 290 z m 637 578 l 637 811 b 578 868 637 841 610 868 l 377 868 l 377 781 l 551 781 l 551 724 l 434 724 l 434 665 l 551 665 l 551 608 l 377 608 l 377 521 l 578 521 b 637 578 610 521 637 548 z m 838 651 l 941 521 l 1042 521 l 911 694 l 1042 868 l 941 868 l 838 738 l 838 868 l 751 868 l 751 521 l 838 521 l 838 651 z "},"":{"ha":1389,"x_min":0,"x_max":0,"o":"m 1099 1215 l 290 1215 b 174 1099 225 1215 174 1164 l 174 290 b 290 174 174 225 225 174 l 1099 174 b 1215 290 1164 174 1215 225 l 1215 1099 b 1099 1215 1215 1164 1164 1215 z m 1099 724 l 1012 724 l 1012 811 l 955 811 l 955 724 l 868 724 l 868 665 l 955 665 l 955 578 l 1012 578 l 1012 665 l 1099 665 l 1099 290 l 290 290 l 290 1099 l 1099 1099 l 1099 724 z m 578 578 l 578 811 b 521 868 578 841 553 868 l 317 868 l 317 781 l 491 781 l 491 724 l 377 724 l 377 665 l 491 665 l 491 608 l 317 608 l 317 521 l 521 521 b 578 578 553 521 578 548 z m 724 651 l 825 521 l 925 521 l 795 694 l 925 868 l 825 868 l 724 738 l 724 868 l 637 868 l 637 521 l 724 521 l 724 651 z "},"":{"ha":1389,"x_min":0,"x_max":0,"o":"m 434 578 l 491 578 l 491 404 l 578 404 l 578 578 l 637 578 l 637 317 l 724 317 l 724 608 b 665 665 724 640 697 665 l 404 665 b 347 608 374 665 347 640 l 347 317 l 434 317 l 434 578 z m 781 665 l 781 317 l 868 317 l 868 404 l 985 404 b 1042 464 1015 404 1042 431 l 1042 608 b 985 665 1042 640 1015 665 l 781 665 z m 955 491 l 868 491 l 868 578 l 955 578 l 955 491 z m 1099 1215 l 290 1215 b 174 1099 225 1215 174 1164 l 174 290 b 290 174 174 225 225 174 l 1099 174 b 1215 290 1164 174 1215 225 l 1215 1099 b 1099 1215 1215 1164 1164 1215 z m 1099 290 l 290 290 l 290 1099 l 1099 1099 l 1099 290 z m 838 781 l 838 1012 b 781 1072 838 1044 814 1072 l 578 1072 l 578 985 l 751 985 l 751 925 l 637 925 l 637 868 l 751 868 l 751 811 l 578 811 l 578 724 l 781 724 b 838 781 814 724 838 749 z "},"":{"ha":1389,"x_min":0,"x_max":0,"o":"m 1158 1272 l 233 1272 b 117 1158 168 1272 117 1221 l 117 117 l 347 347 l 1158 347 b 1272 464 1221 347 1272 399 l 1272 1158 b 1158 1272 1272 1221 1221 1272 z m 1158 464 l 298 464 l 231 396 l 231 1158 l 1158 1158 l 1158 464 z m 694 811 b 811 925 757 811 811 863 b 694 1042 811 990 757 1042 b 578 925 632 1042 578 990 b 694 811 578 863 632 811 z m 925 610 b 854 719 925 659 898 700 b 694 751 806 741 751 751 b 534 719 637 751 583 741 b 464 610 491 700 464 659 l 464 578 l 925 578 l 925 610 z "},"":{"ha":1389,"x_min":0,"x_max":0,"o":"m 521 985 l 404 985 l 404 694 l 290 694 l 290 985 l 174 985 l 174 578 l 404 578 l 404 404 l 521 404 l 521 578 l 637 578 l 637 694 l 521 694 l 521 985 z m 985 751 l 985 637 l 1099 637 l 1099 521 l 811 521 l 811 868 l 1215 868 b 1099 985 1215 930 1164 985 l 811 985 b 694 868 746 985 694 930 l 694 521 b 811 404 694 458 746 404 l 1099 404 b 1215 521 1164 404 1215 458 l 1215 751 l 985 751 z "},"":{"ha":1389,"x_min":0,"x_max":0,"o":"m 751 751 l 751 637 l 868 637 l 868 521 l 637 521 l 637 868 l 985 868 b 868 985 985 930 930 985 l 637 985 b 521 868 572 985 521 930 l 521 521 b 637 404 521 458 572 404 l 868 404 b 985 521 930 404 985 458 l 985 751 l 751 751 z m 1389 751 l 1272 751 l 1272 868 l 1158 868 l 1158 751 l 1042 751 l 1042 637 l 1158 637 l 1158 521 l 1272 521 l 1272 637 l 1389 637 l 1389 751 z m 404 985 l 290 985 l 290 694 l 174 694 l 174 985 l 57 985 l 57 578 l 290 578 l 290 404 l 404 404 l 404 578 l 464 578 l 464 694 l 404 694 l 404 985 z "},"":{"ha":1389,"x_min":0,"x_max":0,"o":"m 1099 1215 l 290 1215 b 174 1099 225 1215 174 1164 l 174 290 b 290 174 174 225 225 174 l 1099 174 b 1215 290 1164 174 1215 225 l 1215 1099 b 1099 1215 1215 1164 1164 1215 z m 1099 290 l 290 290 l 290 1099 l 1099 1099 l 1099 290 z m 551 521 l 637 521 l 637 608 l 694 608 l 694 694 l 637 694 l 637 868 l 551 868 l 551 694 l 464 694 l 464 868 l 377 868 l 377 608 l 551 608 l 551 521 z m 1053 521 l 939 694 l 1053 868 l 955 868 l 838 694 l 955 521 l 1053 521 z m 838 694 l 838 868 l 751 868 l 751 521 l 838 521 l 838 694 z "},"":{"ha":1389,"x_min":0,"x_max":0,"o":"m 1099 1215 l 290 1215 b 174 1099 225 1215 174 1164 l 174 290 b 290 174 174 225 225 174 l 1099 174 b 1215 290 1164 174 1215 225 l 1215 1099 b 1099 1215 1215 1164 1164 1215 z m 1099 724 l 1012 724 l 1012 811 l 955 811 l 955 724 l 868 724 l 868 665 l 955 665 l 955 578 l 1012 578 l 1012 665 l 1099 665 l 1099 290 l 290 290 l 290 1099 l 1099 1099 l 1099 724 z m 491 521 l 578 521 l 578 608 l 637 608 l 637 694 l 578 694 l 578 868 l 491 868 l 491 694 l 404 694 l 404 868 l 317 868 l 317 608 l 491 608 l 491 521 z m 751 651 l 854 521 l 955 521 l 825 694 l 955 868 l 854 868 l 751 738 l 751 868 l 665 868 l 665 521 l 751 521 l 751 651 z "},"":{"ha":1389,"x_min":0,"x_max":0,"o":"m 434 578 l 491 578 l 491 404 l 578 404 l 578 578 l 637 578 l 637 317 l 724 317 l 724 608 b 665 665 724 640 697 665 l 404 665 b 347 608 374 665 347 640 l 347 317 l 434 317 l 434 578 z m 781 317 l 868 317 l 868 404 l 985 404 b 1042 464 1015 404 1042 431 l 1042 608 b 985 665 1042 640 1015 665 l 781 665 l 781 317 z m 868 578 l 955 578 l 955 491 l 868 491 l 868 578 z m 1099 1215 l 290 1215 b 174 1099 225 1215 174 1164 l 174 290 b 290 174 174 225 225 174 l 1099 174 b 1215 290 1164 174 1215 225 l 1215 1099 b 1099 1215 1215 1164 1164 1215 z m 1099 290 l 290 290 l 290 1099 l 1099 1099 l 1099 290 z m 724 724 l 811 724 l 811 811 l 868 811 l 868 898 l 811 898 l 811 1072 l 724 1072 l 724 898 l 637 898 l 637 1072 l 551 1072 l 551 811 l 724 811 l 724 724 z "},"":{"ha":1389,"x_min":0,"x_max":0,"o":"m 955 637 l 1099 637 l 1099 521 l 811 521 l 811 868 l 1215 868 b 1099 985 1215 930 1164 985 l 811 985 b 694 868 746 985 694 930 l 694 521 b 811 404 694 458 746 404 l 1099 404 b 1215 521 1164 404 1215 458 l 1215 751 l 955 751 l 955 637 z m 174 637 l 464 637 l 464 521 l 174 521 l 174 404 l 464 404 b 578 521 526 404 578 458 l 578 637 b 464 751 578 700 526 751 l 290 751 l 290 868 l 578 868 l 578 985 l 174 985 l 174 637 z "},"":{"ha":1389,"x_min":0,"x_max":0,"o":"m 1099 1215 l 290 1215 b 174 1099 225 1215 174 1164 l 174 290 b 290 174 174 225 225 174 l 1099 174 b 1215 290 1164 174 1215 225 l 1215 1099 b 1099 1215 1215 1164 1164 1215 z m 1099 290 l 290 290 l 290 1099 l 1099 1099 l 1099 290 z m 637 578 l 637 665 b 578 724 637 697 610 724 l 464 724 l 464 781 l 637 781 l 637 868 l 377 868 l 377 665 l 551 665 l 551 608 l 377 608 l 377 521 l 578 521 b 637 578 610 521 637 548 z m 838 651 l 941 521 l 1042 521 l 911 694 l 1042 868 l 941 868 l 838 738 l 838 868 l 751 868 l 751 521 l 838 521 l 838 651 z "},"":{"ha":1389,"x_min":0,"x_max":0,"o":"m 1099 1215 l 290 1215 b 174 1099 225 1215 174 1164 l 174 290 b 290 174 174 225 225 174 l 1099 174 b 1215 290 1164 174 1215 225 l 1215 1099 b 1099 1215 1215 1164 1164 1215 z m 1099 724 l 1012 724 l 1012 811 l 955 811 l 955 724 l 868 724 l 868 665 l 955 665 l 955 578 l 1012 578 l 1012 665 l 1099 665 l 1099 290 l 290 290 l 290 1099 l 1099 1099 l 1099 724 z m 578 578 l 578 665 b 521 724 578 697 553 724 l 434 724 l 434 781 l 578 781 l 578 868 l 347 868 l 347 665 l 491 665 l 491 608 l 347 608 l 347 521 l 521 521 b 578 578 553 521 578 548 z m 724 651 l 825 521 l 925 521 l 795 694 l 925 868 l 825 868 l 724 738 l 724 868 l 637 868 l 637 521 l 724 521 l 724 651 z "},"":{"ha":1389,"x_min":0,"x_max":0,"o":"m 434 578 l 491 578 l 491 404 l 578 404 l 578 578 l 637 578 l 637 317 l 724 317 l 724 608 b 665 665 724 640 697 665 l 404 665 b 347 608 374 665 347 640 l 347 317 l 434 317 l 434 578 z m 781 317 l 868 317 l 868 404 l 985 404 b 1042 464 1015 404 1042 431 l 1042 608 b 985 665 1042 640 1015 665 l 781 665 l 781 317 z m 868 578 l 955 578 l 955 491 l 868 491 l 868 578 z m 1099 1215 l 290 1215 b 174 1099 225 1215 174 1164 l 174 290 b 290 174 174 225 225 174 l 1099 174 b 1215 290 1164 174 1215 225 l 1215 1099 b 1099 1215 1215 1164 1164 1215 z m 1099 290 l 290 290 l 290 1099 l 1099 1099 l 1099 290 z m 838 781 l 838 868 b 781 925 838 901 814 925 l 665 925 l 665 985 l 838 985 l 838 1072 l 578 1072 l 578 868 l 751 868 l 751 811 l 578 811 l 578 724 l 781 724 b 838 781 814 724 838 749 z "},"":{"ha":1389,"x_min":0,"x_max":0,"o":"m 1099 925 l 1099 464 l 868 464 l 868 925 l 1099 925 z m 1099 1099 l 868 1099 b 694 925 773 1099 694 1023 l 694 464 b 868 290 694 366 773 290 l 1099 290 b 1272 464 1196 290 1272 366 l 1272 925 b 1099 1099 1272 1023 1196 1099 z m 578 925 l 578 1099 l 290 1099 b 117 925 193 1099 117 1023 l 117 464 b 290 290 117 366 193 290 l 464 290 b 637 464 559 290 637 366 l 637 637 b 464 811 637 732 559 811 l 290 811 l 290 925 l 578 925 z m 464 637 l 464 464 l 290 464 l 290 637 l 464 637 z "},"":{"ha":1389,"x_min":0,"x_max":0,"o":"m 1042 1042 l 1042 694 l 868 694 l 868 1042 l 1042 1042 z m 1042 1158 l 868 1158 b 751 1042 806 1158 751 1104 l 751 694 b 868 578 751 632 806 578 l 1042 578 b 1158 694 1104 578 1158 632 l 1158 1042 b 1042 1158 1158 1104 1104 1158 z m 637 1042 l 637 1158 l 347 1158 b 231 1042 285 1158 231 1104 l 231 694 b 347 578 231 632 285 578 l 521 578 b 637 694 583 578 637 632 l 637 811 b 521 925 637 873 583 925 l 347 925 l 347 1042 l 637 1042 z m 521 811 l 521 694 l 347 694 l 347 811 l 521 811 z m 290 117 l 174 117 l 174 404 l 290 404 l 290 117 z m 521 117 l 404 117 l 404 404 l 521 404 l 521 117 z m 751 117 l 637 117 l 637 404 l 751 404 l 751 117 z m 1215 117 l 868 117 l 868 404 l 1215 404 l 1215 117 z "},"":{"ha":1389,"x_min":0,"x_max":0,"o":"m 347 1042 b 464 1158 410 1042 464 1093 b 347 1272 464 1221 410 1272 b 231 1158 285 1272 231 1221 b 347 1042 231 1093 285 1042 z m 578 844 b 507 949 578 890 551 930 b 347 985 458 971 404 985 b 187 949 290 985 236 971 b 117 844 144 930 117 890 l 117 811 l 578 811 l 578 844 z m 1042 1042 b 1158 1158 1104 1042 1158 1093 b 1042 1272 1158 1221 1104 1272 b 925 1158 979 1272 925 1221 b 1042 1042 925 1093 979 1042 z m 1272 844 b 1202 949 1272 890 1245 930 b 1042 985 1153 971 1099 985 b 882 949 985 985 930 971 b 811 844 838 930 811 890 l 811 811 l 1272 811 l 1272 844 z m 1099 404 l 1099 521 l 290 521 l 290 404 l 117 578 l 290 751 l 290 635 l 1099 637 l 1099 751 l 1272 578 l 1099 404 z m 578 290 l 578 347 l 434 347 b 404 317 418 347 404 334 l 404 144 b 434 117 404 127 418 117 l 551 117 b 578 144 567 117 578 127 l 578 231 b 551 260 578 247 567 260 l 464 260 l 464 290 l 578 290 z m 521 203 l 521 174 l 464 174 l 464 203 l 521 203 z m 1012 290 l 955 290 l 955 117 l 898 117 l 898 290 l 838 290 l 838 347 l 1012 347 l 1012 290 z m 724 290 l 724 260 l 781 260 l 781 203 l 724 203 l 724 117 l 665 117 l 665 347 l 811 347 l 811 290 l 724 290 z "},"":{"ha":1389,"x_min":0,"x_max":0,"o":"m 1099 1215 l 290 1215 b 174 1099 225 1215 174 1164 l 174 290 b 290 174 174 225 225 174 l 1099 174 b 1215 290 1164 174 1215 225 l 1215 1099 b 1099 1215 1215 1164 1164 1215 z m 1099 290 l 290 290 l 290 1099 l 1099 1099 l 1099 290 z m 838 651 l 941 521 l 1042 521 l 911 694 l 1042 868 l 941 868 l 838 738 l 838 868 l 751 868 l 751 521 l 838 521 l 838 651 z m 434 521 l 578 521 b 637 578 610 521 637 548 l 637 665 b 578 724 637 697 610 724 l 464 724 l 464 781 l 637 781 l 637 868 l 434 868 b 377 811 401 868 377 841 l 377 578 b 434 521 377 548 401 521 z m 464 665 l 551 665 l 551 578 l 464 578 l 464 665 z "},"":{"ha":1389,"x_min":0,"x_max":0,"o":"m 1099 1215 l 290 1215 b 174 1099 225 1215 174 1164 l 174 290 b 290 174 174 225 225 174 l 1099 174 b 1215 290 1164 174 1215 225 l 1215 1099 b 1099 1215 1215 1164 1164 1215 z m 1099 724 l 1012 724 l 1012 811 l 955 811 l 955 724 l 868 724 l 868 665 l 955 665 l 955 578 l 1012 578 l 1012 665 l 1099 665 l 1099 290 l 290 290 l 290 1099 l 1099 1099 l 1099 724 z m 724 651 l 825 521 l 925 521 l 795 694 l 925 868 l 825 868 l 724 738 l 724 868 l 637 868 l 637 521 l 724 521 l 724 651 z m 404 521 l 521 521 b 578 578 553 521 578 548 l 578 665 b 521 724 578 697 553 724 l 434 724 l 434 781 l 578 781 l 578 868 l 404 868 b 347 811 374 868 347 841 l 347 578 b 404 521 347 548 374 521 z m 434 665 l 491 665 l 491 578 l 434 578 l 434 665 z "},"":{"ha":1389,"x_min":0,"x_max":0,"o":"m 434 578 l 491 578 l 491 404 l 578 404 l 578 578 l 637 578 l 637 317 l 724 317 l 724 608 b 665 665 724 640 697 665 l 404 665 b 347 608 374 665 347 640 l 347 317 l 434 317 l 434 578 z m 781 317 l 868 317 l 868 404 l 985 404 b 1042 464 1015 404 1042 431 l 1042 608 b 985 665 1042 640 1015 665 l 781 665 l 781 317 z m 868 578 l 955 578 l 955 491 l 868 491 l 868 578 z m 1099 1215 l 290 1215 b 174 1099 225 1215 174 1164 l 174 290 b 290 174 174 225 225 174 l 1099 174 b 1215 290 1164 174 1215 225 l 1215 1099 b 1099 1215 1215 1164 1164 1215 z m 1099 290 l 290 290 l 290 1099 l 1099 1099 l 1099 290 z m 637 724 l 781 724 b 838 781 814 724 838 749 l 838 868 b 781 925 838 901 814 925 l 665 925 l 665 985 l 838 985 l 838 1072 l 637 1072 b 578 1012 605 1072 578 1044 l 578 781 b 637 724 578 749 605 724 z m 665 868 l 751 868 l 751 781 l 665 781 l 665 868 z "},"":{"ha":1389,"x_min":0,"x_max":0,"o":"m 1099 1215 l 290 1215 b 174 1099 225 1215 174 1164 l 174 290 b 290 174 174 225 225 174 l 1099 174 b 1215 290 1164 174 1215 225 l 1215 1099 b 1099 1215 1215 1164 1164 1215 z m 1099 290 l 290 290 l 290 1099 l 1099 1099 l 1099 290 z m 448 521 l 551 521 l 635 792 b 578 868 646 830 618 868 l 377 868 l 377 781 l 529 781 l 448 521 z m 838 651 l 941 521 l 1042 521 l 911 694 l 1042 868 l 941 868 l 838 738 l 838 868 l 751 868 l 751 521 l 838 521 l 838 651 z "},"":{"ha":1389,"x_min":0,"x_max":0,"o":"m 1099 1215 l 290 1215 b 174 1099 225 1215 174 1164 l 174 290 b 290 174 174 225 225 174 l 1099 174 b 1215 290 1164 174 1215 225 l 1215 1099 b 1099 1215 1215 1164 1164 1215 z m 1099 724 l 1012 724 l 1012 811 l 955 811 l 955 724 l 868 724 l 868 665 l 955 665 l 955 578 l 1012 578 l 1012 665 l 1099 665 l 1099 290 l 290 290 l 290 1099 l 1099 1099 l 1099 724 z m 391 521 l 491 521 l 575 792 b 521 868 589 830 559 868 l 317 868 l 317 781 l 469 781 l 391 521 z m 724 651 l 825 521 l 925 521 l 795 694 l 925 868 l 825 868 l 724 738 l 724 868 l 637 868 l 637 521 l 724 521 l 724 651 z "},"":{"ha":1389,"x_min":0,"x_max":0,"o":"m 434 578 l 491 578 l 491 404 l 578 404 l 578 578 l 637 578 l 637 317 l 724 317 l 724 608 b 665 665 724 640 697 665 l 404 665 b 347 608 374 665 347 640 l 347 317 l 434 317 l 434 578 z m 781 317 l 868 317 l 868 404 l 985 404 b 1042 464 1015 404 1042 431 l 1042 608 b 985 665 1042 640 1015 665 l 781 665 l 781 317 z m 868 578 l 955 578 l 955 491 l 868 491 l 868 578 z m 1099 1215 l 290 1215 b 174 1099 225 1215 174 1164 l 174 290 b 290 174 174 225 225 174 l 1099 174 b 1215 290 1164 174 1215 225 l 1215 1099 b 1099 1215 1215 1164 1164 1215 z m 1099 290 l 290 290 l 290 1099 l 1099 1099 l 1099 290 z m 651 724 l 751 724 l 836 996 b 781 1072 849 1034 819 1072 l 578 1072 l 578 985 l 730 985 l 651 724 z "},"":{"ha":1389,"x_min":0,"x_max":0,"o":"m 434 521 l 578 521 b 637 578 610 521 637 548 l 637 811 b 578 868 637 841 610 868 l 434 868 b 377 811 401 868 377 841 l 377 578 b 434 521 377 548 401 521 z m 464 811 l 551 811 l 551 724 l 464 724 l 464 811 z m 464 665 l 551 665 l 551 578 l 464 578 l 464 665 z m 1099 1215 l 290 1215 b 174 1099 225 1215 174 1164 l 174 290 b 290 174 174 225 225 174 l 1099 174 b 1215 290 1164 174 1215 225 l 1215 1099 b 1099 1215 1215 1164 1164 1215 z m 1099 290 l 290 290 l 290 1099 l 1099 1099 l 1099 290 z m 838 651 l 941 521 l 1042 521 l 911 694 l 1042 868 l 941 868 l 838 738 l 838 868 l 751 868 l 751 521 l 838 521 l 838 651 z "},"":{"ha":1389,"x_min":0,"x_max":0,"o":"m 404 521 l 521 521 b 578 578 553 521 578 548 l 578 811 b 521 868 578 841 553 868 l 404 868 b 347 811 374 868 347 841 l 347 578 b 404 521 347 548 374 521 z m 434 811 l 491 811 l 491 724 l 434 724 l 434 811 z m 434 665 l 491 665 l 491 578 l 434 578 l 434 665 z m 1099 1215 l 290 1215 b 174 1099 225 1215 174 1164 l 174 290 b 290 174 174 225 225 174 l 1099 174 b 1215 290 1164 174 1215 225 l 1215 1099 b 1099 1215 1215 1164 1164 1215 z m 1099 724 l 1012 724 l 1012 811 l 955 811 l 955 724 l 868 724 l 868 665 l 955 665 l 955 578 l 1012 578 l 1012 665 l 1099 665 l 1099 290 l 290 290 l 290 1099 l 1099 1099 l 1099 724 z m 724 651 l 825 521 l 925 521 l 795 694 l 925 868 l 825 868 l 724 738 l 724 868 l 637 868 l 637 521 l 724 521 l 724 651 z "},"":{"ha":1389,"x_min":0,"x_max":0,"o":"m 434 578 l 491 578 l 491 404 l 578 404 l 578 578 l 637 578 l 637 317 l 724 317 l 724 608 b 665 665 724 640 697 665 l 404 665 b 347 608 374 665 347 640 l 347 317 l 434 317 l 434 578 z m 781 317 l 868 317 l 868 404 l 985 404 b 1042 464 1015 404 1042 431 l 1042 608 b 985 665 1042 640 1015 665 l 781 665 l 781 317 z m 868 578 l 955 578 l 955 491 l 868 491 l 868 578 z m 1099 1215 l 290 1215 b 174 1099 225 1215 174 1164 l 174 290 b 290 174 174 225 225 174 l 1099 174 b 1215 290 1164 174 1215 225 l 1215 1099 b 1099 1215 1215 1164 1164 1215 z m 1099 290 l 290 290 l 290 1099 l 1099 1099 l 1099 290 z m 637 724 l 781 724 b 838 781 814 724 838 749 l 838 1012 b 781 1072 838 1044 814 1072 l 637 1072 b 578 1012 605 1072 578 1044 l 578 781 b 637 724 578 749 605 724 z m 665 1012 l 751 1012 l 751 925 l 665 925 l 665 1012 z m 665 868 l 751 868 l 751 781 l 665 781 l 665 868 z "},"":{"ha":1389,"x_min":0,"x_max":0,"o":"m 637 578 l 637 811 b 578 868 637 841 610 868 l 434 868 b 377 811 401 868 377 841 l 377 724 b 434 665 377 692 401 665 l 551 665 l 551 608 l 377 608 l 377 521 l 578 521 b 637 578 610 521 637 548 z m 551 724 l 464 724 l 464 811 l 551 811 l 551 724 z m 1099 1215 l 290 1215 b 174 1099 225 1215 174 1164 l 174 290 b 290 174 174 225 225 174 l 1099 174 b 1215 290 1164 174 1215 225 l 1215 1099 b 1099 1215 1215 1164 1164 1215 z m 1099 290 l 290 290 l 290 1099 l 1099 1099 l 1099 290 z m 838 651 l 941 521 l 1042 521 l 911 694 l 1042 868 l 941 868 l 838 738 l 838 868 l 751 868 l 751 521 l 838 521 l 838 651 z "},"":{"ha":1389,"x_min":0,"x_max":0,"o":"m 578 578 l 578 811 b 521 868 578 841 553 868 l 404 868 b 347 811 374 868 347 841 l 347 724 b 404 665 347 692 374 665 l 491 665 l 491 608 l 347 608 l 347 521 l 521 521 b 578 578 553 521 578 548 z m 491 724 l 434 724 l 434 811 l 491 811 l 491 724 z m 1099 1215 l 290 1215 b 174 1099 225 1215 174 1164 l 174 290 b 290 174 174 225 225 174 l 1099 174 b 1215 290 1164 174 1215 225 l 1215 1099 b 1099 1215 1215 1164 1164 1215 z m 1099 724 l 1012 724 l 1012 811 l 955 811 l 955 724 l 868 724 l 868 665 l 955 665 l 955 578 l 1012 578 l 1012 665 l 1099 665 l 1099 290 l 290 290 l 290 1099 l 1099 1099 l 1099 724 z m 724 651 l 825 521 l 925 521 l 795 694 l 925 868 l 825 868 l 724 738 l 724 868 l 637 868 l 637 521 l 724 521 l 724 651 z "},"":{"ha":1389,"x_min":0,"x_max":0,"o":"m 434 578 l 491 578 l 491 404 l 578 404 l 578 578 l 637 578 l 637 317 l 724 317 l 724 608 b 665 665 724 640 697 665 l 404 665 b 347 608 374 665 347 640 l 347 317 l 434 317 l 434 578 z m 781 317 l 868 317 l 868 404 l 985 404 b 1042 464 1015 404 1042 431 l 1042 608 b 985 665 1042 640 1015 665 l 781 665 l 781 317 z m 868 578 l 955 578 l 955 491 l 868 491 l 868 578 z m 1099 1215 l 290 1215 b 174 1099 225 1215 174 1164 l 174 290 b 290 174 174 225 225 174 l 1099 174 b 1215 290 1164 174 1215 225 l 1215 1099 b 1099 1215 1215 1164 1164 1215 z m 1099 290 l 290 290 l 290 1099 l 1099 1099 l 1099 290 z m 838 781 l 838 1012 b 781 1072 838 1044 814 1072 l 637 1072 b 578 1012 605 1072 578 1044 l 578 925 b 637 868 578 895 605 868 l 751 868 l 751 811 l 578 811 l 578 724 l 781 724 b 838 781 814 724 838 749 z m 751 925 l 665 925 l 665 1012 l 751 1012 l 751 925 z "},"":{"ha":1389,"x_min":0,"x_max":0,"o":"m 1215 751 l 1128 751 l 1128 781 l 1012 781 l 1012 608 l 1128 608 l 1128 637 l 1215 637 l 1215 578 b 1158 521 1215 548 1188 521 l 985 521 b 925 578 952 521 925 548 l 925 811 b 985 868 925 841 952 868 l 1158 868 b 1215 811 1188 868 1215 841 l 1215 751 z m 464 811 l 464 521 l 377 521 l 377 608 l 260 608 l 260 521 l 174 521 l 174 811 b 231 868 174 841 201 868 l 404 868 b 464 811 437 868 464 841 z m 377 781 l 260 781 l 260 694 l 377 694 l 377 781 z m 781 694 b 838 637 814 694 838 667 l 838 578 b 781 521 838 548 814 521 l 551 521 l 551 868 l 781 868 b 838 811 814 868 838 841 l 838 751 b 781 694 838 722 814 694 z m 637 781 l 637 738 l 751 738 l 751 781 l 637 781 z m 751 651 l 637 651 l 637 608 l 751 608 l 751 651 z "},"":{"ha":1389,"x_min":0,"x_max":0,"o":"m 1272 751 l 1031 751 l 1218 939 l 1137 1023 l 868 751 l 751 751 l 751 868 l 1023 1137 l 939 1218 l 751 1031 l 751 1272 l 637 1272 l 637 1031 l 450 1218 l 366 1137 l 637 868 l 637 751 l 521 751 l 252 1023 l 171 939 l 358 751 l 117 751 l 117 637 l 358 637 l 171 450 l 252 366 l 521 637 l 637 637 l 637 521 l 366 252 l 450 171 l 637 358 l 637 117 l 751 117 l 751 358 l 939 171 l 1023 252 l 751 521 l 751 637 l 868 637 l 1137 366 l 1218 450 l 1031 637 l 1272 637 l 1272 751 z "},"":{"ha":1389,"x_min":0,"x_max":0,"o":"m 1272 1058 l 1006 1280 l 933 1194 l 1199 968 l 1272 1058 z m 456 1194 l 382 1280 l 117 1058 l 190 971 l 456 1194 z m 724 925 l 637 925 l 637 578 l 911 415 l 955 486 l 724 621 l 724 925 z m 694 1158 b 174 637 407 1158 174 925 b 694 117 174 350 407 117 b 1215 637 982 117 1215 350 b 694 1158 1215 925 982 1158 z m 694 231 b 290 637 469 231 290 412 b 694 1042 290 860 469 1042 b 1099 637 920 1042 1099 860 b 694 231 1099 412 920 231 z "},"":{"ha":1389,"x_min":0,"x_max":0,"o":"m 1272 1058 l 1006 1286 l 930 1199 l 1199 971 l 1272 1058 z m 458 1191 l 382 1278 l 117 1058 l 190 971 l 458 1191 z m 724 925 l 637 925 l 637 578 l 909 410 l 955 480 l 724 618 l 724 925 z m 694 1158 b 174 637 404 1158 174 925 b 694 117 174 347 404 117 b 1215 637 985 117 1215 347 b 694 1158 1215 925 985 1158 z m 694 231 b 290 637 469 231 290 410 b 694 1042 290 863 469 1042 b 1099 637 920 1042 1099 863 b 694 231 1099 410 920 231 z "},"":{"ha":1389,"x_min":0,"x_max":0,"o":"m 694 1272 b 117 694 374 1272 117 1015 b 694 117 117 374 374 117 b 1272 694 1015 117 1272 374 b 694 1272 1272 1015 1015 1272 z m 694 231 b 231 694 439 231 231 439 b 694 1158 231 949 439 1158 b 1158 694 949 1158 1158 949 b 694 231 1158 439 949 231 z m 724 985 l 637 985 l 637 637 l 941 453 l 985 526 l 724 681 l 724 985 z "},"":{"ha":1389,"x_min":0,"x_max":0,"o":"m 694 1272 b 117 694 374 1272 117 1015 b 694 117 117 374 374 117 b 1272 694 1015 117 1272 374 b 694 1272 1272 1015 1015 1272 z m 884 423 l 637 670 l 637 985 l 751 985 l 751 719 l 966 505 l 884 423 z "},"":{"ha":1389,"x_min":0,"x_max":0,"o":"m 694 1272 b 811 1158 757 1272 811 1221 b 694 1042 811 1093 757 1042 b 578 1158 632 1042 578 1093 b 694 1272 578 1221 632 1272 z m 1215 868 l 868 868 l 868 117 l 751 117 l 751 464 l 637 464 l 637 117 l 521 117 l 521 868 l 174 868 l 174 985 l 1215 985 l 1215 868 z "},"":{"ha":1389,"x_min":0,"x_max":0,"o":"m 1185 1042 b 694 985 1036 1001 857 985 b 203 1042 532 985 353 1001 l 174 925 b 521 868 282 898 404 879 l 521 117 l 637 117 l 637 464 l 751 464 l 751 117 l 868 117 l 868 868 b 1215 925 985 879 1107 898 l 1185 1042 z m 694 1042 b 811 1158 757 1042 811 1093 b 694 1272 811 1221 757 1272 b 578 1158 632 1272 578 1221 b 694 1042 578 1093 632 1042 z "},"":{"ha":1389,"x_min":0,"x_max":0,"o":"m 578 1158 b 694 1272 578 1221 629 1272 b 811 1158 760 1272 811 1221 b 694 1042 811 1093 760 1042 b 578 1158 629 1042 578 1093 z m 1099 637 l 1099 751 b 865 857 1009 751 920 795 l 789 941 b 754 966 779 952 768 960 l 754 968 l 751 968 b 684 982 732 979 708 985 b 578 863 624 977 578 922 l 578 521 b 694 404 578 458 632 404 l 985 404 l 985 117 l 1099 117 l 1099 434 b 985 551 1099 496 1047 551 l 811 551 l 811 749 b 1099 637 884 686 998 637 z m 578 231 b 404 404 483 231 404 309 b 521 570 404 480 453 545 l 521 689 b 290 404 388 662 290 545 b 578 117 290 244 418 117 b 863 347 719 117 836 214 l 743 347 b 578 231 719 279 654 231 z "},"":{"ha":1389,"x_min":0,"x_max":0,"o":"m 925 1126 b 1042 1242 925 1191 977 1242 b 1158 1126 1107 1242 1158 1191 b 1042 1009 1158 1063 1107 1009 b 925 1126 977 1009 925 1063 z m 868 404 l 751 404 b 578 231 751 309 675 231 b 404 404 483 231 404 309 b 578 578 404 502 483 578 l 578 694 b 290 404 418 694 290 564 b 578 117 290 244 418 117 b 868 404 738 117 868 244 z m 1042 608 l 933 608 l 1031 819 b 922 985 1066 898 1009 985 l 624 985 b 515 914 575 985 534 958 l 475 811 l 586 779 l 624 868 l 751 868 l 646 632 b 754 464 610 553 670 464 l 1042 464 l 1042 174 l 1158 174 l 1158 491 b 1042 608 1158 556 1104 608 z "},"":{"ha":1389,"x_min":0,"x_max":0,"o":"m 377 811 l 260 811 l 260 404 l 377 404 l 377 811 z m 724 811 l 608 811 l 608 404 l 724 404 l 724 811 z m 1215 290 l 117 290 l 117 174 l 1215 174 l 1215 290 z m 1072 811 l 955 811 l 955 404 l 1072 404 l 1072 811 z m 665 1199 l 966 1042 l 363 1042 l 665 1199 z m 665 1332 l 117 1042 l 117 925 l 1215 925 l 1215 1042 l 665 1332 z "},"":{"ha":1389,"x_min":0,"x_max":0,"o":"m 1215 968 l 1215 1099 b 1099 1215 1215 1164 1164 1215 l 290 1215 b 174 1099 225 1215 174 1164 l 174 290 b 290 174 174 225 225 174 l 1099 174 b 1215 290 1164 174 1215 225 l 1215 420 b 1272 521 1251 442 1272 477 l 1272 868 b 1215 968 1272 911 1251 947 z m 1158 868 l 1158 521 l 751 521 l 751 868 l 1158 868 z m 290 290 l 290 1099 l 1099 1099 l 1099 985 l 751 985 b 637 868 689 985 637 930 l 637 521 b 751 404 637 458 689 404 l 1099 404 l 1099 290 l 290 290 z m 838 694 b 925 781 838 743 879 781 b 1012 694 974 781 1012 743 b 925 608 1012 646 974 608 b 838 694 879 608 838 646 z "},"":{"ha":1389,"x_min":0,"x_max":0,"o":"m 1099 1215 l 290 1215 b 174 1099 225 1215 174 1164 l 174 290 b 290 174 174 225 225 174 l 1099 174 b 1215 290 1164 174 1215 225 l 1215 1099 b 1099 1215 1215 1164 1164 1215 z m 985 290 l 404 290 l 404 304 b 694 404 488 369 589 404 b 985 304 800 404 901 369 l 985 290 z m 1099 355 b 694 521 996 458 852 521 b 290 355 537 521 393 458 l 290 1099 l 1099 1099 l 1099 355 z m 694 637 b 898 838 806 637 898 727 b 694 1042 898 952 806 1042 b 491 838 583 1042 491 952 b 694 637 491 727 583 637 z m 694 925 b 781 838 743 925 781 887 b 694 751 781 792 743 751 b 608 838 646 751 608 792 b 694 925 608 887 646 925 z "},"":{"ha":1389,"x_min":0,"x_max":0,"o":"m 694 1272 b 117 694 374 1272 117 1015 b 694 117 117 374 374 117 b 1272 694 1015 117 1272 374 b 694 1272 1272 1015 1015 1272 z m 426 317 b 694 404 502 372 594 404 b 963 317 795 404 887 372 b 694 231 887 263 795 231 b 426 317 594 231 502 263 z m 1050 399 b 694 521 952 475 827 521 b 339 399 562 521 437 475 b 231 694 271 477 231 581 b 694 1158 231 949 439 1158 b 1158 694 949 1158 1158 949 b 1050 399 1158 581 1118 477 z m 694 1042 b 491 838 583 1042 491 952 b 694 637 491 727 583 637 b 898 838 806 637 898 727 b 694 1042 898 952 806 1042 z m 694 751 b 608 838 646 751 608 792 b 694 925 608 887 646 925 b 781 838 743 925 781 887 b 694 751 781 792 743 751 z "},"":{"ha":1389,"x_min":0,"x_max":0,"o":"m 1272 751 l 1272 1215 l 868 1215 l 868 1042 l 521 1042 l 521 1215 l 117 1215 l 117 751 l 521 751 l 521 925 l 637 925 l 637 347 l 868 347 l 868 174 l 1272 174 l 1272 637 l 868 637 l 868 464 l 751 464 l 751 925 l 868 925 l 868 751 l 1272 751 z m 404 868 l 231 868 l 231 1099 l 404 1099 l 404 868 z m 985 521 l 1158 521 l 1158 290 l 985 290 l 985 521 z m 985 1099 l 1158 1099 l 1158 868 l 985 868 l 985 1099 z "},"":{"ha":1389,"x_min":0,"x_max":0,"o":"m 985 1332 l 404 1332 b 290 1215 342 1332 290 1278 l 290 174 b 404 57 290 111 342 57 l 985 57 b 1099 174 1047 57 1099 111 l 1099 1215 b 985 1332 1099 1278 1047 1332 z m 404 1158 l 404 1215 l 985 1215 l 985 1158 l 404 1158 z m 404 347 l 404 1042 l 985 1042 l 985 347 l 404 347 z m 404 174 l 404 231 l 985 231 l 985 174 l 404 174 z m 925 985 l 464 985 l 464 868 l 925 868 l 925 985 z "},"":{"ha":1389,"x_min":0,"x_max":0,"o":"m 290 464 b 694 57 290 239 469 57 b 1099 464 920 57 1099 239 l 1099 694 l 290 694 l 290 464 z m 933 1137 l 1055 1259 l 1006 1305 l 873 1172 b 694 1215 819 1199 760 1215 b 515 1172 629 1215 570 1199 l 382 1305 l 334 1259 l 456 1137 b 290 811 355 1063 290 944 l 290 751 l 1099 751 l 1099 811 b 933 1137 1099 944 1034 1063 z m 521 868 b 464 925 488 868 464 895 b 521 985 464 958 488 985 b 578 925 553 985 578 958 b 521 868 578 895 553 868 z m 868 868 b 811 925 836 868 811 895 b 868 985 811 958 836 985 b 925 925 901 985 925 958 b 868 868 925 895 901 868 z "},"":{"ha":1389,"x_min":0,"x_max":0,"o":"m 1099 637 l 751 637 l 751 290 l 637 290 l 637 637 l 290 637 l 290 751 l 637 751 l 637 1099 l 751 1099 l 751 751 l 1099 751 l 1099 637 z "},"":{"ha":1389,"x_min":0,"x_max":0,"o":"m 1215 1042 l 1031 1042 l 925 1158 l 578 1158 l 578 1042 l 876 1042 l 982 925 l 1215 925 l 1215 231 l 290 231 l 290 751 l 174 751 l 174 231 b 290 117 174 168 225 117 l 1215 117 b 1332 231 1278 117 1332 168 l 1332 925 b 1215 1042 1332 990 1278 1042 z m 464 578 b 751 290 464 418 591 290 b 1042 578 911 290 1042 418 b 751 868 1042 738 911 868 b 464 578 591 868 464 738 z m 751 751 b 925 578 849 751 925 675 b 751 404 925 483 849 404 b 578 578 656 404 578 483 b 751 751 578 675 656 751 z m 290 1042 l 464 1042 l 464 1158 l 290 1158 l 290 1332 l 174 1332 l 174 1158 l 0 1158 l 0 1042 l 174 1042 l 174 868 l 290 868 l 290 1042 z "},"":{"ha":1389,"x_min":0,"x_max":0,"o":"m 456 1194 l 382 1280 l 117 1058 l 190 971 l 456 1194 z m 1272 1058 l 1006 1280 l 933 1194 l 1199 968 l 1272 1058 z m 694 1158 b 174 637 407 1158 174 925 b 694 117 174 350 407 117 b 1215 637 982 117 1215 350 b 694 1158 1215 925 982 1158 z m 694 231 b 290 637 469 231 290 412 b 694 1042 290 860 469 1042 b 1099 637 920 1042 1099 860 b 694 231 1099 412 920 231 z m 751 868 l 637 868 l 637 694 l 464 694 l 464 578 l 637 578 l 637 404 l 751 404 l 751 578 l 925 578 l 925 694 l 751 694 l 751 868 z "},"":{"ha":1389,"x_min":0,"x_max":0,"o":"m 581 174 b 694 57 581 109 632 57 b 808 174 757 57 808 109 l 581 174 z m 694 1042 b 985 751 854 1042 985 911 l 985 347 l 404 347 l 404 751 b 694 1042 404 911 534 1042 z m 694 1302 b 608 1215 646 1302 608 1264 l 608 1147 b 290 751 426 1109 290 947 l 290 404 l 174 290 l 174 231 l 1215 231 l 1215 290 l 1099 404 l 1099 751 b 781 1147 1099 947 963 1109 l 781 1215 b 694 1302 781 1264 743 1302 z m 751 925 l 637 925 l 637 751 l 464 751 l 464 637 l 637 637 l 637 464 l 751 464 l 751 637 l 925 637 l 925 751 l 751 751 l 751 925 z "},"":{"ha":1389,"x_min":0,"x_max":0,"o":"m 1099 1215 l 290 1215 b 174 1099 225 1215 174 1164 l 174 290 b 290 174 174 225 225 174 l 1099 174 b 1215 290 1164 174 1215 225 l 1215 1099 b 1099 1215 1215 1164 1164 1215 z m 1099 290 l 290 290 l 290 1099 l 1099 1099 l 1099 290 z m 637 404 l 751 404 l 751 637 l 985 637 l 985 751 l 751 751 l 751 985 l 637 985 l 637 751 l 404 751 l 404 637 l 637 637 l 637 404 z "},"":{"ha":1389,"x_min":0,"x_max":0,"o":"m 117 1158 l 985 1158 l 985 1042 l 117 1042 l 117 1158 z m 868 404 l 985 404 l 985 578 l 1042 578 l 1042 694 l 985 985 l 117 985 l 57 694 l 57 578 l 117 578 l 117 231 l 637 231 l 637 578 l 868 578 l 868 404 z m 521 347 l 231 347 l 231 578 l 521 578 l 521 347 z m 176 694 l 212 868 l 890 868 l 922 694 l 176 694 z m 1332 347 l 1158 347 l 1158 521 l 1042 521 l 1042 347 l 868 347 l 868 231 l 1042 231 l 1042 57 l 1158 57 l 1158 231 l 1332 231 l 1332 347 z "},"":{"ha":1389,"x_min":0,"x_max":0,"o":"m 1158 1158 l 231 1158 b 117 1042 168 1158 117 1107 l 117 347 b 231 231 117 282 168 231 l 811 231 l 811 347 l 231 347 l 231 694 l 1272 694 l 1272 1042 b 1158 1158 1272 1107 1221 1158 z m 1158 925 l 231 925 l 231 1042 l 1158 1042 l 1158 925 z m 1389 404 l 1389 290 l 1215 290 l 1215 117 l 1099 117 l 1099 290 l 925 290 l 925 404 l 1099 404 l 1099 578 l 1215 578 l 1215 404 l 1389 404 z "},"":{"ha":1389,"x_min":0,"x_max":0,"o":"m 1099 290 l 290 290 l 290 1099 l 811 1099 l 811 1215 l 290 1215 b 174 1099 225 1215 174 1164 l 174 290 b 290 174 174 225 225 174 l 1099 174 b 1215 290 1164 174 1215 225 l 1215 811 l 1099 811 l 1099 290 z m 868 637 l 985 637 l 985 404 l 868 404 l 868 637 z m 404 811 l 521 811 l 521 404 l 404 404 l 404 811 z m 637 985 l 751 985 l 751 404 l 637 404 l 637 985 z m 1099 1099 l 1099 1215 l 985 1215 l 985 1099 l 868 1099 l 868 985 l 985 985 l 985 868 l 1099 868 l 1099 985 l 1215 985 l 1215 1099 l 1099 1099 z "},"":{"ha":1389,"x_min":0,"x_max":0,"o":"m 694 1272 b 117 694 374 1272 117 1015 b 694 117 117 374 374 117 b 1272 694 1015 117 1272 374 b 694 1272 1272 1015 1015 1272 z m 985 637 l 751 637 l 751 404 l 637 404 l 637 637 l 404 637 l 404 751 l 637 751 l 637 985 l 751 985 l 751 751 l 985 751 l 985 637 z "},"":{"ha":1389,"x_min":0,"x_max":0,"o":"m 751 985 l 637 985 l 637 751 l 404 751 l 404 637 l 637 637 l 637 404 l 751 404 l 751 637 l 985 637 l 985 751 l 751 751 l 751 985 z m 694 1272 b 117 694 374 1272 117 1015 b 694 117 117 374 374 117 b 1272 694 1015 117 1272 374 b 694 1272 1272 1015 1015 1272 z m 694 231 b 231 694 439 231 231 439 b 694 1158 231 949 439 1158 b 1158 694 949 1158 1158 949 b 694 231 1158 439 949 231 z "},"":{"ha":1389,"x_min":0,"x_max":0,"o":"m 1272 1158 b 1158 1272 1272 1221 1221 1272 l 231 1272 b 117 1158 168 1272 117 1221 l 117 464 b 231 347 117 399 168 347 l 1042 347 l 1272 117 l 1272 1158 z m 1158 396 l 1090 464 l 231 464 l 231 1158 l 1158 1158 l 1158 396 z m 751 1099 l 637 1099 l 637 868 l 404 868 l 404 751 l 637 751 l 637 521 l 751 521 l 751 751 l 985 751 l 985 868 l 751 868 l 751 1099 z "},"":{"ha":1389,"x_min":0,"x_max":0,"o":"m 694 1072 l 1042 811 l 1042 751 b 1158 735 1082 751 1120 746 l 1158 868 l 694 1215 l 231 868 l 231 174 l 675 174 b 640 290 659 209 648 250 l 347 290 l 347 811 l 694 1072 z m 1042 637 b 751 347 882 637 751 507 b 1042 57 751 187 882 57 b 1332 347 1202 57 1332 187 b 1042 637 1332 507 1202 637 z m 1215 317 l 1072 317 l 1072 174 l 1012 174 l 1012 317 l 868 317 l 868 377 l 1012 377 l 1012 521 l 1072 521 l 1072 377 l 1215 377 l 1215 317 z "},"":{"ha":1389,"x_min":0,"x_max":0,"o":"m 637 578 l 290 578 l 290 290 l 174 290 l 174 692 l 464 901 l 751 692 l 751 629 b 868 713 784 665 825 692 l 868 751 l 464 1042 l 57 751 l 57 174 l 404 174 l 404 464 l 521 464 l 521 174 l 675 174 b 637 347 651 225 637 285 l 637 578 z m 985 985 l 1099 985 l 1099 868 l 985 868 l 985 985 z m 1332 629 l 1332 1215 l 578 1215 l 578 1101 l 694 1017 l 694 1099 l 1215 1099 l 1215 713 b 1332 629 1259 692 1299 665 z m 1332 347 b 1042 637 1332 507 1202 637 b 751 347 882 637 751 507 b 1042 57 751 187 882 57 b 1332 347 1202 57 1332 187 z m 1012 174 l 1012 317 l 868 317 l 868 377 l 1012 377 l 1012 521 l 1072 521 l 1072 377 l 1215 377 l 1215 317 l 1072 317 l 1072 174 l 1012 174 z "},"":{"ha":1389,"x_min":0,"x_max":0,"o":"m 1158 494 b 952 529 1085 494 1015 507 b 933 532 944 529 939 532 b 892 513 917 532 903 524 l 765 388 b 382 768 600 469 467 605 l 510 895 b 524 955 526 911 532 933 b 491 1161 505 1017 491 1088 b 434 1218 491 1191 467 1218 l 231 1218 b 174 1161 201 1218 174 1191 b 1158 176 174 616 613 176 b 1215 233 1188 176 1215 203 l 1215 437 b 1158 494 1215 469 1188 494 z m 290 1101 l 377 1101 b 404 952 382 1053 391 1001 l 334 884 b 290 1101 312 952 296 1025 z m 1099 293 b 879 339 1023 298 949 315 l 949 407 b 1099 382 998 393 1050 385 l 1099 293 z m 1042 1044 l 1042 1218 l 925 1218 l 925 1044 l 751 1044 l 751 928 l 925 928 l 925 754 l 1042 754 l 1042 928 l 1215 928 l 1215 1044 l 1042 1044 z "},"":{"ha":1389,"x_min":0,"x_max":0,"o":"m 464 751 l 925 751 l 925 637 l 464 637 l 464 751 z m 1164 694 l 1272 694 b 985 985 1272 854 1145 985 l 751 985 l 751 873 l 985 873 b 1164 694 1082 873 1164 792 z m 225 694 b 404 873 225 792 307 873 l 637 873 l 637 985 l 404 985 b 117 694 244 985 117 854 b 404 404 117 534 244 404 l 637 404 l 637 515 l 404 515 b 225 694 307 515 225 597 z m 1099 694 l 985 694 l 985 521 l 811 521 l 811 404 l 985 404 l 985 231 l 1099 231 l 1099 404 l 1272 404 l 1272 521 l 1099 521 l 1099 694 z "},"":{"ha":1389,"x_min":0,"x_max":0,"o":"m 751 1042 l 751 868 l 925 868 l 925 751 l 751 751 l 751 578 l 637 578 l 637 751 l 464 751 l 464 868 l 637 868 l 637 1042 l 751 1042 z m 1042 798 b 694 1158 1042 1009 887 1158 b 347 798 502 1158 347 1009 b 694 269 347 662 461 483 b 1042 798 928 483 1042 662 z m 694 1272 b 1158 798 939 1272 1158 1088 b 694 117 1158 608 1004 380 b 231 798 385 380 231 608 b 694 1272 231 1088 450 1272 z "},"":{"ha":1389,"x_min":0,"x_max":0,"o":"m 1158 1332 l 1158 1158 l 1332 1158 l 1332 1042 l 1158 1042 l 1158 868 l 1042 868 l 1042 1042 l 868 1042 l 868 1158 l 1042 1158 l 1042 1332 l 1158 1332 z m 694 637 b 578 751 632 637 578 689 b 694 868 578 817 632 868 b 811 751 757 868 811 817 b 694 637 811 689 757 637 z m 751 1213 l 751 1096 b 694 1099 732 1099 713 1099 b 347 741 502 1099 347 952 b 694 212 347 605 461 426 b 1042 741 928 426 1042 605 l 1042 751 l 1158 751 l 1158 741 b 694 57 1158 548 1004 320 b 231 741 385 320 231 548 b 694 1215 231 1028 450 1215 b 751 1213 713 1215 732 1215 z "},"":{"ha":1389,"x_min":0,"x_max":0,"o":"m 347 746 l 347 1020 l 694 1150 l 1042 1020 l 1042 806 b 1158 770 1082 800 1120 787 l 1158 1099 l 694 1272 l 231 1099 l 231 746 b 694 117 231 456 429 182 b 700 117 697 117 697 117 b 597 282 654 163 618 220 b 347 746 450 374 347 553 z m 985 694 b 694 404 825 694 694 564 b 985 117 694 244 825 117 b 1272 404 1145 117 1272 244 b 985 694 1272 564 1145 694 z m 1158 377 l 1012 377 l 1012 231 l 955 231 l 955 377 l 811 377 l 811 434 l 955 434 l 955 578 l 1012 578 l 1012 434 l 1158 434 l 1158 377 z "},"":{"ha":1389,"x_min":0,"x_max":0,"o":"m 1042 231 l 231 231 l 231 1042 l 751 1042 l 751 1158 l 231 1158 b 117 1042 168 1158 117 1104 l 117 231 b 231 117 117 168 168 117 l 1042 117 b 1158 231 1104 117 1158 168 l 1158 751 l 1042 751 l 1042 231 z m 591 415 l 477 551 l 317 347 l 955 347 l 749 618 l 591 415 z m 1158 1158 l 1158 1332 l 1042 1332 l 1042 1158 l 868 1158 b 868 1042 868 1156 868 1042 l 1042 1042 l 1042 868 l 1158 868 l 1158 1042 l 1332 1042 l 1332 1158 l 1158 1158 z "},"":{"ha":1389,"x_min":0,"x_max":0,"o":"m 404 838 b 491 925 404 887 445 925 b 578 838 540 925 578 887 b 491 751 578 792 540 751 b 404 838 445 751 404 792 z m 694 377 b 990 578 830 377 944 461 l 399 578 b 694 377 445 461 559 377 z m 898 751 b 985 838 944 751 985 792 b 898 925 985 887 944 925 b 811 838 849 925 811 887 b 898 751 811 792 849 751 z m 1272 1332 l 1158 1332 l 1158 1215 l 1042 1215 l 1042 1099 l 1158 1099 l 1158 985 l 1272 985 l 1272 1099 l 1389 1099 l 1389 1215 l 1272 1215 l 1272 1332 z m 1158 694 b 694 231 1158 439 949 231 b 231 694 439 231 231 439 b 694 1158 231 949 439 1158 b 925 1096 779 1158 857 1134 l 925 1223 b 694 1272 854 1256 776 1272 b 117 694 374 1272 117 1015 b 694 117 117 374 374 117 b 1272 694 1015 117 1272 374 b 1245 868 1272 754 1264 814 l 1123 868 b 1158 694 1145 814 1158 757 z "},"":{"ha":1389,"x_min":0,"x_max":0,"o":"m 1158 347 l 1158 521 l 1042 521 l 1042 347 l 868 347 l 868 231 l 1042 231 l 1042 57 l 1158 57 l 1158 231 l 1332 231 l 1332 347 l 1158 347 z m 1042 1158 l 1158 1158 l 1158 637 l 1042 637 l 1042 1158 z m 231 1158 l 347 1158 l 347 231 l 231 231 l 231 1158 z m 637 1158 l 751 1158 l 751 925 l 637 925 l 637 1158 z m 637 811 l 751 811 l 751 578 l 637 578 l 637 811 z m 637 464 l 751 464 l 751 231 l 637 231 l 637 464 z "},"":{"ha":1389,"x_min":0,"x_max":0,"o":"m 637 868 l 751 868 l 751 1042 l 925 1042 l 925 1158 l 751 1158 l 751 1332 l 637 1332 l 637 1158 l 464 1158 l 464 1042 l 637 1042 l 637 868 z m 404 347 b 290 231 342 347 290 296 b 404 117 290 168 342 117 b 521 231 469 117 521 168 b 404 347 521 296 469 347 z m 985 347 b 868 231 920 347 868 296 b 985 117 868 168 920 117 b 1099 231 1047 117 1099 168 b 985 347 1099 296 1047 347 z m 469 637 l 901 637 b 1001 697 944 637 982 659 l 1223 1101 l 1123 1158 l 901 751 l 494 751 l 247 1272 l 57 1272 l 57 1158 l 174 1158 l 382 719 l 304 578 b 404 404 260 499 317 404 l 1099 404 l 1099 521 l 404 521 l 469 637 z "},"":{"ha":1389,"x_min":0,"x_max":0,"o":"m 1272 1088 l 613 429 l 366 673 l 450 754 l 613 591 l 1191 1169 l 1272 1088 z m 694 231 b 231 694 439 231 231 439 b 694 1158 231 949 439 1158 b 941 1085 784 1158 871 1131 l 1025 1169 b 694 1272 930 1234 817 1272 b 117 694 374 1272 117 1015 b 694 117 117 374 374 117 b 971 187 795 117 890 141 l 884 274 b 694 231 827 247 762 231 z m 1099 521 l 925 521 l 925 404 l 1099 404 l 1099 231 l 1215 231 l 1215 404 l 1389 404 l 1389 521 l 1215 521 l 1215 694 l 1099 694 l 1099 521 z "},"":{"ha":1389,"x_min":0,"x_max":0,"o":"m 1099 751 b 1128 751 1109 751 1118 751 l 868 1215 l 521 1215 l 849 646 b 1099 751 911 711 1001 751 z m 472 1128 l 117 491 l 290 174 l 656 808 l 472 1128 z m 765 491 l 572 491 l 391 174 l 841 174 b 751 404 787 236 751 315 b 765 491 751 434 757 464 z m 1158 464 l 1158 637 l 1042 637 l 1042 464 l 868 464 l 868 347 l 1042 347 l 1042 174 l 1158 174 l 1158 347 l 1332 347 l 1332 464 l 1158 464 z "},"":{"ha":1389,"x_min":0,"x_max":0,"o":"m 1042 1329 l 464 1332 b 347 1215 399 1332 347 1278 l 347 1042 l 464 1042 l 464 1099 l 1042 1099 l 1042 290 l 464 290 l 464 347 l 347 347 l 347 174 b 464 57 347 111 399 57 l 1042 57 b 1158 174 1104 57 1158 111 l 1158 1215 b 1042 1329 1158 1278 1104 1329 z m 578 521 l 694 521 l 694 925 l 290 925 l 290 811 l 496 811 l 174 486 l 255 404 l 578 730 l 578 521 z "},"":{"ha":1389,"x_min":0,"x_max":0,"o":"m 231 1042 l 117 1042 l 117 231 b 231 117 117 168 168 117 l 1042 117 l 1042 231 l 231 231 l 231 1042 z m 1158 1272 l 464 1272 b 347 1158 399 1272 347 1221 l 347 464 b 464 347 347 399 399 347 l 1158 347 b 1272 464 1221 347 1272 399 l 1272 1158 b 1158 1272 1272 1221 1221 1272 z m 1158 464 l 464 464 l 464 1158 l 1158 1158 l 1158 464 z m 751 521 l 868 521 l 868 751 l 1099 751 l 1099 868 l 868 868 l 868 1099 l 751 1099 l 751 868 l 521 868 l 521 751 l 751 751 l 751 521 z "},"":{"ha":1389,"x_min":0,"x_max":0,"o":"m 637 521 l 751 521 l 751 694 l 925 694 l 925 811 l 751 811 l 751 985 l 637 985 l 637 811 l 464 811 l 464 694 l 637 694 l 637 521 z m 1215 1215 l 174 1215 b 57 1099 109 1215 57 1164 l 57 404 b 174 290 57 342 109 290 l 464 290 l 464 174 l 925 174 l 925 290 l 1215 290 b 1332 404 1278 290 1332 342 l 1332 1099 b 1215 1215 1332 1164 1278 1215 z m 1215 404 l 174 404 l 174 1099 l 1215 1099 l 1215 404 z "},"":{"ha":1389,"x_min":0,"x_max":0,"o":"m 1272 1099 l 1272 985 l 1099 985 l 1099 811 l 985 811 l 985 985 l 811 985 l 811 1099 l 985 1099 l 985 1272 l 1099 1272 l 1099 1099 l 1272 1099 z m 1099 290 l 290 290 l 290 1099 l 637 1099 l 637 1215 l 290 1215 b 174 1099 225 1215 174 1164 l 174 290 b 290 174 174 225 225 174 l 1099 174 b 1215 290 1164 174 1215 225 l 1215 637 l 1099 637 l 1099 290 z m 868 637 l 868 404 l 985 404 l 985 637 l 868 637 z m 637 404 l 751 404 l 751 868 l 637 868 l 637 404 z m 521 404 l 521 751 l 404 751 l 404 404 l 521 404 z "},"":{"ha":1389,"x_min":0,"x_max":0,"o":"m 1099 694 l 1042 694 l 1042 1158 l 347 1158 l 347 694 l 290 694 b 117 521 193 694 117 616 l 117 231 l 1272 231 l 1272 521 b 1099 694 1272 616 1196 694 z m 464 1042 l 925 1042 l 925 694 l 464 694 l 464 1042 z m 1158 347 l 231 347 l 231 521 b 290 578 231 553 258 578 l 1099 578 b 1158 521 1131 578 1158 553 l 1158 347 z m 985 464 b 1042 521 985 494 1009 521 b 1099 464 1074 521 1099 494 b 1042 404 1099 431 1074 404 b 985 464 1009 404 985 431 z "},"":{"ha":1389,"x_min":0,"x_max":0,"o":"m 694 1272 b 117 694 374 1272 117 1015 b 694 117 117 374 374 117 b 1272 694 1015 117 1272 374 b 694 1272 1272 1015 1015 1272 z m 694 231 b 231 694 439 231 231 439 b 694 1158 231 949 439 1158 b 1158 694 949 1158 1158 949 b 694 231 1158 439 949 231 z m 868 694 b 694 521 868 600 789 521 b 521 694 600 521 521 600 b 694 868 521 789 600 868 b 868 694 789 868 868 789 z "},"":{"ha":1389,"x_min":0,"x_max":0,"o":"m 920 491 b 985 556 920 529 947 556 b 1050 491 1020 556 1050 529 b 985 426 1050 456 1020 426 b 920 491 947 426 920 456 z m 985 377 b 854 315 941 377 857 355 b 985 247 884 271 930 247 b 1112 315 1036 247 1085 271 b 985 377 1109 355 1025 377 z m 1042 746 l 1042 1025 l 608 1215 l 174 1025 l 174 741 b 608 174 174 480 358 233 b 700 206 640 182 670 193 b 985 57 762 117 865 57 b 1332 404 1175 57 1332 214 b 1042 746 1332 578 1207 719 z m 637 404 b 651 312 637 372 640 342 b 608 293 635 304 621 298 b 290 741 423 353 290 540 l 290 949 l 608 1088 l 925 949 l 925 746 b 637 404 762 719 637 578 z m 985 174 b 751 404 857 174 751 277 b 985 637 751 532 857 637 b 1215 404 1112 637 1215 532 b 985 174 1215 277 1112 174 z "},"":{"ha":1389,"x_min":0,"x_max":0,"o":"m 1099 1215 l 290 1215 b 174 1099 225 1215 174 1164 l 174 290 b 290 174 174 225 225 174 l 1099 174 b 1213 290 1161 174 1213 225 l 1213 1099 b 1099 1215 1213 1164 1161 1215 z m 1006 407 b 1001 404 1004 407 1001 404 l 868 404 b 844 423 857 404 846 412 l 700 754 b 692 760 700 757 694 760 b 689 754 692 757 689 757 l 600 543 b 605 534 600 540 600 534 b 608 532 605 532 605 532 l 705 532 b 719 524 711 532 716 529 l 762 429 b 751 407 765 420 760 410 b 743 404 749 407 746 404 l 391 404 b 374 420 380 404 374 412 b 374 429 374 423 374 426 l 600 966 b 629 985 605 977 616 985 l 760 985 b 787 966 770 985 781 977 l 1015 429 b 1006 407 1017 420 1015 410 z "},"":{"ha":1389,"x_min":0,"x_max":0,"o":"m 678 347 b 347 694 494 355 347 507 b 694 1042 347 887 502 1042 b 1042 711 882 1042 1034 895 l 920 749 b 694 925 895 849 803 925 b 464 694 567 925 464 822 b 640 469 464 586 540 494 l 678 347 z m 1272 694 b 1270 643 1272 678 1272 659 l 1156 675 b 1158 694 1158 684 1158 689 b 694 1158 1158 949 949 1158 b 231 694 439 1158 231 949 b 694 231 231 439 439 231 b 713 233 700 231 705 231 l 746 119 b 694 117 730 117 711 117 b 117 694 374 117 117 374 b 694 1272 117 1015 374 1272 b 1272 694 1015 1272 1272 1015 z m 1055 448 l 1272 521 l 694 694 l 868 117 l 941 334 l 1188 87 l 1302 201 l 1055 448 z "},"":{"ha":1389,"x_min":0,"x_max":0,"o":"m 231 868 l 521 868 b 404 985 521 930 469 985 l 231 985 b 174 925 201 985 174 958 b 231 868 174 895 201 868 z m 1272 575 l 1272 925 b 1158 1042 1272 990 1221 1042 l 792 1042 l 732 1104 l 814 1185 l 773 1226 l 567 1023 l 610 979 l 692 1061 l 751 1001 l 751 868 b 637 751 751 806 700 751 l 518 751 b 477 779 505 762 494 770 l 456 727 l 429 738 l 453 789 b 347 811 420 803 385 811 b 260 795 317 811 288 803 l 279 743 l 252 732 l 231 787 b 90 651 171 760 122 711 l 141 629 l 130 602 l 79 627 b 57 521 65 594 57 559 b 73 434 57 491 65 461 l 125 453 l 136 426 l 81 404 b 217 263 109 345 157 296 l 239 315 l 266 304 l 241 252 b 347 231 274 239 309 231 b 434 247 377 231 407 239 l 415 298 l 442 309 l 464 255 b 605 391 524 282 572 331 l 553 412 l 564 439 l 616 415 b 629 464 621 431 627 448 l 928 464 b 925 434 928 453 925 445 b 1128 231 925 323 1017 231 b 1332 434 1240 231 1332 323 b 1272 575 1332 488 1310 540 z m 347 347 b 174 521 252 347 174 426 b 347 694 174 616 252 694 b 521 521 442 694 521 616 b 347 347 521 426 442 347 z m 629 578 b 621 608 627 589 624 600 l 570 589 l 559 616 l 613 637 l 637 637 b 868 868 765 637 868 741 l 868 925 l 1158 925 l 1158 635 b 1128 637 1147 635 1139 637 b 987 578 1074 637 1023 616 l 629 578 z m 1128 347 b 1042 434 1080 347 1042 385 b 1128 521 1042 483 1080 521 b 1215 434 1177 521 1215 483 b 1128 347 1215 385 1177 347 z "},"":{"ha":1389,"x_min":0,"x_max":0,"o":"m 838 404 b 665 231 838 309 762 231 b 491 404 570 231 491 309 l 608 404 b 665 347 608 374 635 347 b 724 404 697 347 724 374 b 665 464 724 437 697 464 l 117 464 l 117 578 l 665 578 b 838 404 762 578 838 502 z m 1099 1012 b 898 1215 1099 1126 1009 1215 b 694 1012 784 1215 694 1126 l 811 1012 b 898 1099 811 1061 849 1099 b 985 1012 944 1099 985 1061 b 898 925 985 966 944 925 l 117 925 l 117 811 l 898 811 b 1099 1012 1009 811 1099 901 z m 1072 751 l 117 751 l 117 637 l 1072 637 b 1158 551 1118 637 1158 597 b 1072 464 1158 502 1118 464 l 1072 347 b 1272 551 1183 347 1272 437 b 1072 751 1272 662 1183 751 z "},"":{"ha":1389,"x_min":0,"x_max":0,"o":"m 290 637 b 412 689 334 637 380 654 b 410 933 480 757 480 868 b 290 985 377 966 334 985 b 165 930 244 985 201 966 b 168 686 98 863 100 754 b 290 637 201 654 247 637 z m 250 852 b 290 868 260 863 274 868 b 331 852 304 868 320 863 b 331 770 353 830 353 792 b 290 751 320 760 304 751 b 250 768 274 751 260 757 b 250 852 225 792 225 827 z m 1042 985 l 521 985 l 521 637 l 1272 637 l 1272 751 b 1042 985 1272 879 1169 985 z m 637 751 l 637 868 l 1042 868 b 1158 751 1104 868 1158 817 l 637 751 z m 117 464 l 464 464 l 464 347 l 925 347 l 925 464 l 1272 464 l 1272 578 l 117 578 l 117 464 z "},"":{"ha":1389,"x_min":0,"x_max":0,"o":"m 347 1012 b 399 979 366 1012 388 1004 b 372 903 412 952 401 917 b 347 898 363 901 355 898 b 296 930 331 898 307 906 b 293 974 285 949 290 966 b 323 1006 296 982 304 998 b 347 1012 331 1009 339 1012 z m 722 890 l 1109 751 b 1175 692 1139 741 1164 719 b 1180 602 1188 662 1191 632 l 1177 600 l 681 781 l 722 890 z m 578 510 l 811 426 l 811 404 l 578 404 l 578 510 z m 347 1128 b 271 1112 323 1128 296 1123 b 190 879 184 1069 149 966 b 347 781 220 817 282 781 b 423 798 372 781 399 787 b 505 1031 510 841 545 944 b 347 1128 475 1093 412 1128 z m 654 1039 l 532 711 l 1248 453 l 1289 562 b 1147 860 1332 684 1270 817 l 654 1039 z m 127 795 l 87 686 l 464 551 l 464 290 l 925 290 l 925 382 l 1188 290 l 1226 399 l 127 795 z "},"":{"ha":1389,"x_min":0,"x_max":0,"o":"m 404 578 b 578 751 502 578 578 656 b 404 925 578 849 502 925 b 231 751 309 925 231 849 b 404 578 231 656 309 578 z m 404 811 b 464 751 437 811 464 784 b 404 694 464 722 437 694 b 347 751 374 694 347 722 b 404 811 347 784 374 811 z m 1099 985 l 637 985 l 637 521 l 174 521 l 174 985 l 57 985 l 57 404 l 1332 404 l 1332 751 b 1099 985 1332 879 1226 985 z m 1215 521 l 751 521 l 751 868 l 1099 868 b 1215 751 1164 868 1215 817 l 1215 521 z "},"":{"ha":1389,"x_min":0,"x_max":0,"o":"m 231 694 l 231 1215 l 117 1215 l 117 694 b 404 404 117 534 244 404 l 751 404 l 751 521 l 404 521 b 231 694 309 521 231 600 z m 1321 391 b 1204 429 1299 434 1248 448 l 1139 399 l 944 803 b 841 868 922 841 884 868 l 637 868 l 637 1215 l 290 1215 l 290 751 b 464 578 290 656 366 578 l 868 578 l 1066 174 l 1280 271 b 1321 391 1326 293 1345 347 z "},"":{"ha":1389,"x_min":0,"x_max":0,"o":"m 290 694 l 290 1215 l 174 1215 l 174 694 b 464 404 174 534 304 404 l 811 404 l 811 521 l 464 521 b 290 694 366 521 290 600 z m 1185 347 l 1099 347 l 1099 751 b 985 868 1099 817 1047 868 l 694 868 l 694 1215 l 347 1215 l 347 751 b 521 578 347 656 426 578 l 925 578 l 925 174 l 1185 174 b 1272 260 1234 174 1272 212 b 1185 347 1272 309 1234 347 z "},"":{"ha":1389,"x_min":0,"x_max":0,"o":"m 1156 277 b 1072 174 1166 222 1123 174 l 811 174 l 811 347 l 868 578 l 521 578 b 347 751 426 578 347 656 l 347 1215 l 694 1215 l 694 868 l 985 868 b 1099 751 1047 868 1099 817 l 985 347 l 1066 347 b 1156 277 1109 347 1147 320 z m 290 694 l 290 1215 l 174 1215 l 174 694 b 464 404 174 534 304 404 l 694 404 l 694 521 l 464 521 b 290 694 366 521 290 600 z "},"":{"ha":1389,"x_min":0,"x_max":0,"o":"m 309 1063 b 282 1223 258 1099 244 1172 b 442 1253 317 1275 391 1289 b 472 1090 494 1215 507 1145 b 309 1063 434 1039 363 1025 z m 925 290 l 518 290 b 345 437 431 290 358 353 l 231 985 l 117 985 l 231 418 b 518 174 252 277 374 174 l 925 174 l 925 290 z m 939 521 l 656 521 l 597 757 b 895 686 689 705 787 670 l 895 811 b 624 884 800 792 697 827 l 529 958 b 486 979 515 966 502 974 b 429 982 467 985 448 985 l 426 982 b 320 830 355 968 307 901 l 399 488 b 570 347 415 407 486 347 l 966 347 l 1185 174 l 1272 260 l 939 521 z "},"":{"ha":1389,"x_min":0,"x_max":0,"o":"m 439 1077 b 439 1240 393 1120 393 1194 b 602 1240 486 1286 559 1286 b 602 1077 648 1194 648 1120 b 439 1077 556 1031 486 1031 z m 347 464 l 347 985 l 231 985 l 231 464 b 521 174 231 304 361 174 l 868 174 l 868 290 l 521 290 b 347 464 426 290 347 366 z m 1158 228 l 865 521 l 665 521 l 665 735 b 985 608 746 667 873 608 l 985 735 b 713 852 887 732 776 784 l 632 941 b 591 971 621 955 608 963 b 537 985 575 979 556 985 l 534 985 b 404 854 464 985 404 925 l 404 521 b 578 347 404 426 483 347 l 871 347 l 1074 144 l 1158 228 z "},"":{"ha":1389,"x_min":0,"x_max":0,"o":"m 1099 884 b 751 404 958 798 781 643 l 868 404 l 868 290 l 521 290 l 521 404 l 637 404 b 117 868 608 665 382 868 l 117 985 b 694 618 369 985 591 836 b 1039 985 773 792 917 911 l 811 985 l 811 1099 l 1215 1099 l 1215 694 l 1099 694 l 1099 884 z "},"":{"ha":1389,"x_min":0,"x_max":0,"o":"m 1004 347 l 336 347 l 814 1042 l 1134 1042 l 1004 347 z m 751 1158 l 117 231 l 1099 231 l 1272 1158 l 751 1158 z m 838 868 b 694 724 760 868 694 803 b 838 578 694 643 760 578 b 985 724 920 578 985 643 b 838 868 985 803 920 868 z "},"":{"ha":1389,"x_min":0,"x_max":0,"o":"m 1169 1158 l 231 1158 b 117 1042 168 1158 117 1104 l 117 811 b 231 694 179 811 231 757 b 117 578 231 632 179 578 l 117 347 b 231 231 117 285 168 231 l 1158 231 b 1272 347 1221 231 1272 285 l 1272 1042 b 1169 1158 1272 1104 1226 1158 z m 1158 347 l 231 347 l 231 494 b 347 694 301 534 347 610 b 233 895 347 781 301 854 l 231 1042 l 1158 1042 l 1158 347 z m 513 483 l 418 648 l 472 665 l 545 608 l 684 643 l 543 884 l 624 906 l 857 689 l 998 727 b 1066 689 1028 735 1058 719 b 1025 618 1074 659 1055 627 l 513 483 z "},"":{"ha":1389,"x_min":0,"x_max":0,"o":"m 1272 464 l 1272 578 l 781 868 l 781 1185 b 694 1272 781 1234 743 1272 b 608 1185 646 1272 608 1234 l 608 868 l 117 578 l 117 464 l 608 608 l 608 290 l 464 203 l 464 117 l 694 174 l 925 117 l 925 203 l 781 290 l 781 608 l 1272 464 z "},"":{"ha":1389,"x_min":0,"x_max":0,"o":"m 608 944 l 608 1185 b 694 1272 608 1234 646 1272 b 781 1185 743 1272 781 1234 l 781 868 l 1272 578 l 1272 464 l 1015 540 l 608 944 z m 1145 81 l 1226 163 l 781 608 l 553 836 l 163 1226 l 81 1145 l 450 776 l 117 578 l 117 464 l 608 608 l 608 290 l 464 203 l 464 117 l 694 174 l 925 117 l 925 203 l 781 290 l 781 445 l 1145 81 z "},"":{"ha":1389,"x_min":0,"x_max":0,"o":"m 347 117 l 1042 117 l 694 464 l 347 117 z m 1215 1215 l 174 1215 b 57 1099 111 1215 57 1164 l 57 404 b 174 290 57 342 111 290 l 404 290 l 404 404 l 174 404 l 174 1099 l 1215 1099 l 1215 404 l 985 404 l 985 290 l 1215 290 b 1332 404 1278 290 1332 342 l 1332 1099 b 1215 1215 1332 1164 1278 1215 z "},"":{"ha":1389,"x_min":0,"x_max":0,"o":"m 985 1099 l 174 1099 b 57 985 111 1099 57 1047 l 57 464 l 174 464 b 347 290 174 366 252 290 b 521 464 442 290 521 366 l 868 464 b 1042 290 868 366 947 290 b 1215 464 1137 290 1215 366 l 1332 464 l 1332 751 l 985 1099 z m 868 985 l 925 985 l 1099 811 l 868 811 l 868 985 z m 521 985 l 751 985 l 751 811 l 521 811 l 521 985 z m 174 985 l 404 985 l 404 811 l 174 811 l 174 985 z m 347 391 b 274 464 307 391 274 423 b 347 534 274 502 307 534 b 420 464 388 534 420 502 b 347 391 420 423 388 391 z m 1042 391 b 968 464 1001 391 968 423 b 1042 534 968 502 1001 534 b 1115 464 1082 534 1115 502 b 1042 391 1115 423 1082 391 z m 1215 578 l 1169 578 b 1042 637 1139 613 1093 637 b 914 578 990 637 944 613 l 475 578 b 347 637 445 613 399 637 b 220 578 296 637 250 613 l 174 578 l 174 694 l 1215 694 l 1215 578 z "},"":{"ha":1389,"x_min":0,"x_max":0,"o":"m 724 925 l 637 925 l 637 578 l 911 415 l 955 486 l 724 621 l 724 925 z m 1004 1283 l 1270 1061 l 1196 974 l 928 1196 l 1004 1283 z m 385 1283 l 458 1196 l 193 974 l 119 1061 l 385 1283 z m 694 1158 b 174 637 407 1158 174 925 b 694 117 174 350 407 117 b 1215 637 982 117 1215 350 b 694 1158 1215 925 982 1158 z m 694 231 b 290 637 472 231 290 412 b 694 1042 290 860 472 1042 b 1099 637 917 1042 1099 860 b 694 231 1099 412 917 231 z "},"":{"ha":1389,"x_min":0,"x_max":0,"o":"m 1004 1283 l 1270 1061 l 1196 974 l 928 1196 l 1004 1283 z m 385 1283 l 458 1196 l 193 974 l 119 1061 l 385 1283 z m 694 1158 b 174 637 407 1158 174 925 b 694 117 174 350 407 117 b 1215 637 982 117 1215 350 b 694 1158 1215 925 982 1158 z m 694 231 b 290 637 472 231 290 412 b 694 1042 290 860 472 1042 b 1099 637 917 1042 1099 860 b 694 231 1099 412 917 231 z m 751 868 l 637 868 l 637 694 l 464 694 l 464 578 l 637 578 l 637 404 l 751 404 l 751 578 l 925 578 l 925 694 l 751 694 l 751 868 z "},"":{"ha":1389,"x_min":0,"x_max":0,"o":"m 581 1025 b 694 1042 616 1036 654 1042 b 1099 637 917 1042 1099 860 b 1082 524 1099 597 1093 559 l 1172 434 b 1215 637 1199 496 1215 564 b 694 1158 1215 925 982 1158 b 491 1115 621 1158 553 1142 l 581 1025 z m 1004 1283 l 1270 1061 l 1196 974 l 928 1196 l 1004 1283 z m 174 1267 l 92 1185 l 174 1107 l 119 1061 l 193 974 l 255 1023 l 301 977 b 174 637 222 887 174 768 b 694 117 174 350 407 117 b 1036 244 825 117 944 163 l 1156 122 l 1240 203 l 174 1267 z m 694 231 b 290 637 472 231 290 412 b 382 895 290 735 326 825 l 952 326 b 694 231 884 266 792 231 z m 434 1172 l 458 1196 l 385 1283 l 350 1256 l 434 1172 z "},"":{"ha":1389,"x_min":0,"x_max":0,"o":"m 610 548 l 486 670 l 426 610 l 610 426 l 958 773 l 895 836 l 610 548 z m 1004 1283 l 1270 1061 l 1196 974 l 928 1196 l 1004 1283 z m 385 1283 l 458 1196 l 193 974 l 119 1061 l 385 1283 z m 694 1158 b 174 637 407 1158 174 925 b 694 117 174 350 407 117 b 1215 637 982 117 1215 350 b 694 1158 1215 925 982 1158 z m 694 231 b 290 637 472 231 290 412 b 694 1042 290 860 472 1042 b 1099 637 917 1042 1099 860 b 694 231 1099 412 917 231 z "},"":{"ha":1389,"x_min":0,"x_max":0,"o":"m 694 1272 b 117 694 374 1272 117 1015 b 694 117 117 374 374 117 b 1272 694 1015 117 1272 374 b 694 1272 1272 1015 1015 1272 z m 694 231 b 231 694 439 231 231 439 b 694 1158 231 949 439 1158 b 1158 694 949 1158 1158 949 b 694 231 1158 439 949 231 z m 694 955 b 434 694 551 955 434 838 b 694 434 434 551 551 434 b 955 694 838 434 955 551 b 694 955 955 838 838 955 z m 694 637 b 637 694 662 637 637 662 b 694 751 637 727 662 751 b 751 694 727 751 751 727 b 694 637 751 662 727 637 z "},"":{"ha":1389,"x_min":0,"x_max":0,"o":"m 637 1272 l 751 1272 l 751 985 l 1215 985 l 1215 811 l 751 811 l 751 578 l 1042 578 l 1042 404 l 751 404 l 751 117 l 637 117 l 637 404 l 347 404 l 347 578 l 637 578 l 637 811 l 174 811 l 174 985 l 637 985 l 637 1272 z "},"":{"ha":1389,"x_min":0,"x_max":0,"o":"m 231 117 l 117 117 l 117 1272 l 231 1272 l 231 117 z m 1272 985 l 347 985 l 347 811 l 1272 811 l 1272 985 z m 925 578 l 347 578 l 347 404 l 925 404 l 925 578 z "},"":{"ha":1389,"x_min":0,"x_max":0,"o":"m 1158 1272 l 1272 1272 l 1272 117 l 1158 117 l 1158 1272 z m 117 811 l 1042 811 l 1042 985 l 117 985 l 117 811 z m 464 404 l 1042 404 l 1042 578 l 464 578 l 464 404 z "},"":{"ha":1389,"x_min":0,"x_max":0,"o":"m 1272 117 l 117 117 l 117 231 l 1272 231 l 1272 117 z m 578 1272 l 404 1272 l 404 347 l 578 347 l 578 1272 z m 985 925 l 811 925 l 811 347 l 985 347 l 985 925 z "},"":{"ha":1389,"x_min":0,"x_max":0,"o":"m 1272 751 l 985 751 l 985 1042 l 811 1042 l 811 751 l 578 751 l 578 1215 l 404 1215 l 404 751 l 106 751 l 106 637 l 404 637 l 404 174 l 578 174 l 578 637 l 811 637 l 811 347 l 985 347 l 985 637 l 1272 637 l 1272 751 z "},"":{"ha":1389,"x_min":0,"x_max":0,"o":"m 1272 1272 l 1272 1158 l 117 1158 l 117 1272 l 1272 1272 z m 404 117 l 578 117 l 578 1042 l 404 1042 l 404 117 z m 811 464 l 985 464 l 985 1042 l 811 1042 l 811 464 z "},"":{"ha":1389,"x_min":0,"x_max":0,"o":"m 1099 1215 l 290 1215 b 174 1099 225 1215 174 1164 l 174 694 b 290 578 174 632 225 578 l 1099 578 b 1215 694 1164 578 1215 632 l 1215 1099 b 1099 1215 1215 1164 1164 1215 z m 290 811 l 469 811 b 545 694 483 765 510 724 l 290 694 l 290 811 z m 1099 694 l 844 694 b 920 811 879 724 906 765 l 1099 811 l 1099 694 z m 1099 925 l 811 925 l 811 868 b 694 751 811 806 757 751 b 578 868 632 751 578 806 l 578 925 l 290 925 l 290 1099 l 1099 1099 l 1099 925 z m 985 521 l 811 521 l 811 464 b 781 391 811 437 800 410 b 694 347 762 363 730 347 b 608 391 659 347 627 363 b 578 464 589 410 578 437 l 578 521 l 174 521 l 174 290 b 290 174 174 225 225 174 l 1099 174 b 1215 290 1164 174 1215 225 l 1215 521 l 985 521 z m 290 404 l 469 404 b 475 391 472 399 475 396 b 545 290 488 350 513 317 l 290 290 l 290 404 z m 1099 290 l 844 290 b 914 391 876 317 901 350 b 920 404 914 396 917 399 l 1099 404 l 1099 290 z "},"":{"ha":1389,"x_min":0,"x_max":0,"o":"m 1077 1006 b 857 917 993 1006 914 974 l 450 556 b 312 499 415 518 366 499 b 117 694 203 499 117 586 b 312 890 117 803 203 890 b 453 830 366 890 415 871 l 518 773 l 608 849 l 534 914 b 312 1006 475 974 396 1006 b 0 694 141 1006 0 865 b 312 382 0 524 141 382 b 532 472 396 382 475 415 l 939 833 b 1077 890 974 871 1023 890 b 1272 694 1185 890 1272 803 b 1077 499 1272 586 1185 499 b 936 559 1025 499 974 518 l 868 616 l 781 540 l 854 475 b 1077 382 914 415 993 382 b 1389 694 1248 382 1389 524 b 1077 1006 1389 868 1248 1006 z "},"":{"ha":1389,"x_min":0,"x_max":0,"o":"m 231 1158 l 231 925 l 464 1158 l 231 1158 z m 925 1158 l 1158 925 l 1158 1158 l 925 1158 z m 1158 231 l 1158 464 l 925 231 l 1158 231 z m 231 231 l 464 231 l 231 464 l 231 231 z m 1099 694 b 694 1099 1099 920 920 1099 b 290 694 469 1099 290 920 b 694 290 290 469 469 290 b 1099 694 920 290 1099 469 z m 694 404 b 404 694 534 404 404 534 b 694 985 404 854 534 985 b 985 694 854 985 985 854 b 694 404 985 534 854 404 z "},"":{"ha":1389,"x_min":0,"x_max":0,"o":"m 567 743 l 483 662 b 380 830 445 700 407 751 l 494 860 b 567 743 510 808 537 773 z m 637 1042 l 404 1272 l 174 1042 l 347 1042 b 358 917 350 996 353 952 l 472 944 b 464 1042 467 971 464 1006 l 637 1042 z m 1215 1042 l 985 1272 l 751 1042 l 925 1042 b 779 703 920 827 852 768 b 694 610 749 675 719 648 b 629 684 675 640 651 662 l 548 602 b 637 404 602 553 637 513 l 637 117 l 751 117 l 751 404 b 857 616 751 521 792 559 b 1042 1042 936 686 1034 776 l 1215 1042 z "},"":{"ha":1389,"x_min":0,"x_max":0,"o":"m 694 1275 b 117 697 374 1275 117 1017 b 694 119 117 377 374 119 l 985 119 l 985 233 l 694 233 b 231 697 442 233 231 445 b 694 1161 231 949 442 1161 b 1158 697 947 1161 1158 949 l 1158 616 b 1072 524 1158 570 1118 524 b 985 616 1025 524 985 570 l 985 697 b 694 987 985 857 854 987 b 404 697 534 987 404 857 b 694 407 404 537 534 407 b 901 494 773 407 846 439 b 1072 407 936 442 1001 407 b 1272 616 1185 407 1272 502 l 1272 697 b 694 1275 1272 1017 1015 1275 z m 694 524 b 521 697 600 524 521 602 b 694 871 521 792 600 871 b 868 697 789 871 868 792 b 694 524 868 602 789 524 z "},"":{"ha":1389,"x_min":0,"x_max":0,"o":"m 404 290 l 985 290 l 985 1158 l 404 1158 l 404 290 z m 521 1042 l 868 1042 l 868 404 l 521 404 l 521 1042 z m 174 1042 l 290 1042 l 290 404 l 174 404 l 174 1042 z m 1099 1042 l 1215 1042 l 1215 404 l 1099 404 l 1099 1042 z "},"":{"ha":1389,"x_min":0,"x_max":0,"o":"m 1099 1215 l 290 1215 b 174 1099 225 1215 174 1164 l 174 290 b 290 174 174 225 225 174 l 1099 174 b 1215 290 1164 174 1215 225 l 1215 1099 b 1099 1215 1215 1164 1164 1215 z m 1099 290 l 290 290 l 290 1099 l 1099 1099 l 1099 290 z m 404 694 l 521 694 l 521 404 l 404 404 l 404 694 z m 868 985 l 985 985 l 985 404 l 868 404 l 868 985 z m 637 578 l 751 578 l 751 404 l 637 404 l 637 578 z m 637 811 l 751 811 l 751 694 l 637 694 l 637 811 z "},"":{"ha":1389,"x_min":0,"x_max":0,"o":"m 985 521 l 1074 431 b 751 236 1017 334 882 255 l 751 751 l 925 751 l 925 868 l 751 868 l 751 936 b 868 1099 819 960 868 1025 b 694 1272 868 1196 789 1272 b 521 1099 600 1272 521 1196 b 637 936 521 1025 570 960 l 637 868 l 464 868 l 464 751 l 637 751 l 637 236 b 315 431 507 255 372 334 l 404 521 l 174 694 l 174 521 b 694 117 174 296 458 117 b 1215 521 930 117 1215 296 l 1215 694 l 985 521 z m 694 1158 b 751 1099 727 1158 751 1131 b 694 1042 751 1069 727 1042 b 637 1099 662 1042 637 1069 b 694 1158 637 1131 662 1158 z "},"":{"ha":1389,"x_min":0,"x_max":0,"o":"m 1017 841 l 1126 1025 b 1109 1074 1134 1042 1128 1063 b 1061 1061 1093 1082 1072 1077 l 952 873 b 437 873 787 944 602 944 l 328 1061 b 277 1072 315 1077 293 1082 b 263 1025 260 1061 255 1042 l 372 841 b 57 347 190 738 73 553 l 1332 347 b 1017 841 1316 553 1199 738 z m 404 507 b 334 578 366 507 334 540 b 404 651 334 618 366 651 b 477 578 445 651 477 618 b 404 507 477 540 445 507 z m 985 507 b 911 578 944 507 911 540 b 985 651 911 618 944 651 b 1055 578 1023 651 1055 618 b 985 507 1055 540 1023 507 z "},"":{"ha":1389,"x_min":0,"x_max":0,"o":"m 868 1272 b 507 1055 711 1272 575 1183 b 334 882 434 1015 372 955 b 117 521 206 814 117 678 b 521 117 117 296 296 117 b 882 334 678 117 814 206 b 1055 507 955 374 1017 434 b 1272 868 1183 575 1272 711 b 868 1272 1272 1093 1093 1272 z m 521 231 b 231 521 361 231 231 361 b 290 694 231 586 252 646 b 694 290 290 469 469 290 b 521 231 646 252 586 231 z m 694 404 b 404 694 534 404 404 534 b 464 868 404 760 426 819 b 868 464 464 646 643 464 b 694 404 819 426 760 404 z m 966 597 b 868 578 936 586 903 578 b 578 868 708 578 578 708 b 597 966 578 903 586 936 b 694 985 627 977 659 985 b 985 694 854 985 985 854 b 966 597 985 659 977 627 z m 1099 694 b 694 1099 1099 917 920 1099 b 868 1158 743 1137 803 1158 b 1158 868 1028 1158 1158 1028 b 1099 694 1158 803 1137 743 z "},"":{"ha":1389,"x_min":0,"x_max":0,"o":"m 1158 1272 l 231 1272 b 117 1158 168 1272 117 1221 l 117 117 l 347 347 l 1158 347 b 1272 464 1221 347 1272 399 l 1272 1158 b 1158 1272 1272 1221 1221 1272 z m 1158 464 l 298 464 l 231 396 l 231 1158 l 1158 1158 l 1158 464 z m 637 1099 l 751 1099 l 751 751 l 637 751 l 637 1099 z m 637 637 l 751 637 l 751 521 l 637 521 l 637 637 z "},"":{"ha":1389,"x_min":0,"x_max":0,"o":"m 985 1329 l 404 1332 b 290 1215 342 1332 290 1278 l 290 174 b 404 57 290 111 342 57 l 985 57 b 1099 174 1047 57 1099 111 l 1099 1215 b 985 1329 1099 1278 1047 1329 z m 985 174 l 404 174 l 404 231 l 985 231 l 985 174 z m 985 347 l 404 347 l 404 1042 l 985 1042 l 985 347 z m 985 1158 l 404 1158 l 404 1215 l 985 1215 l 985 1158 z m 464 811 l 925 811 l 925 724 l 464 724 l 464 811 z m 521 637 l 868 637 l 868 551 l 521 551 l 521 637 z "},"":{"ha":1389,"x_min":0,"x_max":0,"o":"m 985 751 l 985 1215 l 404 1215 l 404 985 l 174 985 l 174 174 l 637 174 l 637 404 l 751 404 l 751 174 l 1215 174 l 1215 751 l 985 751 z m 404 290 l 290 290 l 290 404 l 404 404 l 404 290 z m 404 521 l 290 521 l 290 637 l 404 637 l 404 521 z m 404 751 l 290 751 l 290 868 l 404 868 l 404 751 z m 637 521 l 521 521 l 521 637 l 637 637 l 637 521 z m 637 751 l 521 751 l 521 868 l 637 868 l 637 751 z m 637 985 l 521 985 l 521 1099 l 637 1099 l 637 985 z m 868 521 l 751 521 l 751 637 l 868 637 l 868 521 z m 868 751 l 751 751 l 751 868 l 868 868 l 868 751 z m 868 985 l 751 985 l 751 1099 l 868 1099 l 868 985 z m 1099 290 l 985 290 l 985 404 l 1099 404 l 1099 290 z m 1099 521 l 985 521 l 985 637 l 1099 637 l 1099 521 z "},"":{"ha":1389,"x_min":0,"x_max":0,"o":"m 811 694 l 694 578 l 578 694 l 694 811 l 811 694 z m 694 1042 l 817 920 l 963 1063 l 694 1332 l 426 1063 l 572 920 l 694 1042 z m 347 694 l 469 817 l 326 963 l 57 694 l 326 426 l 469 572 l 347 694 z m 1042 694 l 920 572 l 1063 426 l 1332 694 l 1063 963 l 920 817 l 1042 694 z m 694 347 l 572 469 l 426 326 l 694 57 l 963 326 l 817 469 l 694 347 z "},"":{"ha":1389,"x_min":0,"x_max":0,"o":"m 1042 925 b 811 694 914 925 811 822 b 1042 464 811 567 914 464 b 1272 694 1169 464 1272 567 b 1042 925 1272 822 1169 925 z m 898 694 b 1042 838 898 773 963 838 b 1109 822 1066 838 1088 833 l 914 627 b 898 694 903 648 898 670 z m 1042 551 b 974 567 1017 551 996 556 l 1169 762 b 1185 694 1180 741 1185 719 b 1042 551 1185 616 1120 551 z m 985 347 l 404 347 l 404 1042 l 985 1042 l 985 985 l 1099 985 l 1099 1215 b 985 1332 1099 1278 1047 1332 l 404 1332 b 290 1215 342 1332 290 1278 l 290 174 b 404 57 290 111 342 57 l 985 57 b 1099 174 1047 57 1099 111 l 1099 404 l 985 404 l 985 347 z m 404 1215 l 985 1215 l 985 1158 l 404 1158 l 404 1215 z m 985 174 l 404 174 l 404 231 l 985 231 l 985 174 z "},"":{"ha":1389,"x_min":0,"x_max":0,"o":"m 578 1158 l 811 1158 l 811 925 l 578 925 l 578 1158 z m 231 464 l 464 464 l 464 231 l 231 231 l 231 464 z m 231 811 l 464 811 l 464 578 l 231 578 l 231 811 z m 231 1158 l 464 1158 l 464 925 l 231 925 l 231 1158 z m 925 1158 l 1158 1158 l 1158 925 l 925 925 l 925 1158 z m 637 355 l 637 231 l 757 231 l 1104 578 l 982 700 l 637 355 z m 811 692 l 811 811 l 578 811 l 578 578 l 697 578 l 811 692 z m 1207 719 l 1126 800 b 1085 800 1112 814 1096 814 l 1023 741 l 1145 618 l 1207 678 b 1207 719 1218 692 1218 708 z "},"":{"ha":1389,"x_min":0,"x_max":0,"o":"m 1261 651 l 1215 689 b 1215 700 1215 694 1215 694 l 1261 738 b 1267 768 1270 743 1272 757 l 1218 852 b 1196 865 1213 860 1204 865 b 1188 863 1194 865 1191 863 l 1134 841 b 1123 846 1128 844 1128 844 l 1115 906 b 1090 925 1112 917 1101 925 l 993 925 b 968 906 979 925 971 917 l 960 849 b 955 844 958 846 958 846 b 949 841 952 844 952 844 l 895 863 b 887 865 892 865 890 865 b 865 854 879 865 871 860 l 817 768 b 822 738 811 757 814 746 l 868 703 b 868 689 868 697 868 694 l 822 651 b 817 624 814 646 811 632 l 865 537 b 887 526 871 529 879 526 b 895 526 890 526 892 526 l 949 548 b 960 543 955 545 958 545 l 971 483 b 993 464 971 472 982 464 l 1093 464 b 1115 483 1104 464 1112 472 l 1123 543 b 1128 545 1126 543 1128 545 b 1134 548 1131 545 1134 548 l 1191 526 b 1199 524 1194 526 1196 524 b 1218 537 1207 524 1215 529 l 1267 621 b 1261 651 1275 632 1272 646 z m 1042 608 b 955 694 993 608 955 646 b 1042 781 955 743 993 781 b 1128 694 1090 781 1128 743 b 1042 608 1128 646 1090 608 z m 985 347 l 404 347 l 404 1042 l 985 1042 l 985 985 l 1099 985 l 1099 1215 b 985 1332 1099 1278 1047 1332 l 404 1332 b 290 1215 342 1332 290 1278 l 290 174 b 404 57 290 111 342 57 l 985 57 b 1099 174 1047 57 1099 111 l 1099 404 l 985 404 l 985 347 z m 404 1215 l 985 1215 l 985 1158 l 404 1158 l 404 1215 z m 985 174 l 404 174 l 404 231 l 985 231 l 985 174 z "},"":{"ha":1389,"x_min":0,"x_max":0,"o":"m 985 347 l 404 347 l 404 1042 l 985 1042 l 985 985 l 1099 985 l 1099 1215 b 985 1332 1099 1278 1047 1332 l 404 1332 b 290 1215 342 1332 290 1278 l 290 174 b 404 57 290 111 342 57 l 985 57 b 1099 174 1047 57 1099 111 l 1099 404 l 985 404 l 985 347 z m 404 1215 l 985 1215 l 985 1158 l 404 1158 l 404 1215 z m 985 174 l 404 174 l 404 231 l 985 231 l 985 174 z m 1180 833 l 1215 751 l 1251 833 l 1332 868 l 1251 903 l 1215 985 l 1180 903 l 1099 868 l 1180 833 z m 925 925 l 854 768 l 694 694 l 854 621 l 925 464 l 998 621 l 1158 694 l 998 768 l 925 925 z m 1215 637 l 1180 556 l 1099 521 l 1180 486 l 1215 404 l 1251 486 l 1332 521 l 1251 556 l 1215 637 z "},"":{"ha":1389,"x_min":0,"x_max":0,"o":"m 987 214 b 808 195 930 160 868 168 b 621 195 746 222 686 222 b 445 214 537 160 494 171 b 524 966 163 507 203 949 b 703 920 602 963 656 922 b 909 968 770 933 836 974 b 1104 865 996 960 1061 928 b 1134 450 925 757 968 518 b 987 214 1101 363 1058 279 z m 697 968 b 911 1215 686 1099 792 1204 b 697 968 930 1066 779 955 z "},"":{"ha":1389,"x_min":0,"x_max":0,"o":"m 231 464 l 231 117 l 1158 117 l 1158 464 b 1042 578 1158 526 1104 578 l 347 578 b 231 464 285 578 231 526 z m 1042 347 l 347 347 l 347 464 l 1042 464 l 1042 347 z m 694 1272 b 404 985 534 1272 404 1145 l 694 578 l 985 985 b 694 1272 985 1145 854 1272 z m 694 751 l 521 985 b 694 1158 521 1080 600 1158 b 868 985 789 1158 868 1080 l 694 751 z "},"":{"ha":1389,"x_min":0,"x_max":0,"o":"m 231 925 l 464 925 l 464 1158 l 231 1158 l 231 925 z m 578 231 l 811 231 l 811 464 l 578 464 l 578 231 z m 231 231 l 464 231 l 464 464 l 231 464 l 231 231 z m 231 578 l 464 578 l 464 811 l 231 811 l 231 578 z m 578 578 l 811 578 l 811 811 l 578 811 l 578 578 z m 925 1158 l 925 925 l 1158 925 l 1158 1158 l 925 1158 z m 578 925 l 811 925 l 811 1158 l 578 1158 l 578 925 z m 925 578 l 1158 578 l 1158 811 l 925 811 l 925 578 z m 925 231 l 1158 231 l 1158 464 l 925 464 l 925 231 z "},"":{"ha":1389,"x_min":0,"x_max":0,"o":"m 231 925 l 464 925 l 464 1158 l 231 1158 l 231 925 z m 578 231 l 811 231 l 811 464 l 578 464 l 578 231 z m 231 231 l 464 231 l 464 464 l 231 464 l 231 231 z m 231 578 l 464 578 l 464 811 l 231 811 l 231 578 z m 578 578 l 811 578 l 811 811 l 578 811 l 578 578 z m 925 231 l 1158 231 l 1158 464 l 925 464 l 925 231 z m 1099 1389 b 811 1099 939 1389 811 1259 b 1099 811 811 939 939 811 b 1389 1099 1259 811 1389 939 b 1099 1389 1389 1259 1259 1389 z m 1128 925 l 1072 925 l 1072 985 l 1128 985 l 1128 925 z m 1128 1042 l 1072 1042 l 1072 1272 l 1128 1272 l 1128 1042 z m 925 578 l 1158 578 l 1158 697 b 1099 694 1139 694 1120 694 b 925 735 1039 694 979 708 l 925 578 z m 578 1158 l 578 925 l 735 925 b 694 1099 708 979 694 1039 b 697 1158 694 1120 694 1139 l 578 1158 z "},"":{"ha":1389,"x_min":0,"x_max":0,"o":"m 369 301 l 382 174 l 477 263 l 637 703 b 534 760 597 713 562 732 l 369 301 z m 854 760 b 751 703 827 732 792 713 l 911 263 l 1006 174 l 1023 301 l 854 760 z m 868 925 b 751 1088 868 1001 819 1066 l 751 1215 l 637 1215 l 637 1088 b 521 925 570 1066 521 1001 b 694 751 521 830 600 751 b 868 925 789 751 868 830 z m 694 868 b 637 925 662 868 637 895 b 694 985 637 958 662 985 b 751 925 727 985 751 958 b 694 868 751 895 727 868 z "},"":{"ha":1389,"x_min":0,"x_max":0,"o":"m 1188 1085 l 1109 1183 b 1042 1215 1093 1204 1069 1215 l 347 1215 b 279 1183 320 1215 296 1204 l 201 1085 b 174 1012 184 1066 174 1042 l 174 290 b 290 174 174 225 225 174 l 1099 174 b 1215 290 1164 174 1215 225 l 1215 1012 b 1188 1085 1215 1042 1204 1066 z m 361 1099 l 1028 1099 l 1074 1044 l 315 1044 l 361 1099 z m 290 290 l 290 925 l 1099 925 l 1099 290 l 290 290 z m 779 811 l 610 811 l 610 637 l 464 637 l 694 404 l 925 637 l 779 637 l 779 811 z "},"":{"ha":1389,"x_min":0,"x_max":0,"o":"m 985 985 l 694 1215 l 404 811 l 174 985 l 174 231 l 1215 231 l 1215 985 l 985 985 z m 1099 407 l 694 724 l 464 404 l 290 545 l 290 751 l 431 646 l 719 1050 l 944 868 l 1099 868 l 1099 407 z "},"":{"ha":1389,"x_min":0,"x_max":0,"o":"m 1158 751 l 453 751 l 776 1077 l 694 1158 l 231 694 l 694 231 l 776 312 l 453 637 l 1158 637 l 1158 751 z "},"":{"ha":1389,"x_min":0,"x_max":0,"o":"m 1015 1164 l 911 1267 l 339 694 l 911 122 l 1015 225 l 543 694 l 1015 1164 z "},"":{"ha":1389,"x_min":0,"x_max":0,"o":"m 1028 1172 l 925 1272 l 347 694 l 925 117 l 1028 217 l 553 694 l 1028 1172 z "},"":{"ha":1389,"x_min":0,"x_max":0,"o":"m 694 1158 b 1158 694 949 1158 1158 949 b 694 231 1158 439 949 231 b 231 694 439 231 231 439 b 694 1158 231 949 439 1158 z m 694 1272 b 117 694 374 1272 117 1015 b 694 117 117 374 374 117 b 1272 694 1015 117 1272 374 b 694 1272 1272 1015 1015 1272 z m 751 694 l 751 925 l 637 925 l 637 694 l 464 694 l 694 464 l 925 694 l 751 694 z "},"":{"ha":1389,"x_min":0,"x_max":0,"o":"m 117 694 b 694 117 117 374 374 117 b 1272 694 1015 117 1272 374 b 694 1272 1272 1015 1015 1272 b 117 694 374 1272 117 1015 z m 1158 694 b 694 231 1158 439 949 231 b 231 694 439 231 231 439 b 694 1158 231 949 439 1158 b 1158 694 949 1158 1158 949 z m 464 694 l 694 925 l 776 844 l 684 751 l 925 751 l 925 637 l 684 637 l 776 545 l 694 464 l 464 694 z "},"":{"ha":1389,"x_min":0,"x_max":0,"o":"m 1272 694 b 694 1272 1272 1015 1015 1272 b 117 694 374 1272 117 1015 b 694 117 117 374 374 117 b 1272 694 1015 117 1272 374 z m 231 694 b 694 1158 231 949 439 1158 b 1158 694 949 1158 1158 949 b 694 231 1158 439 949 231 b 231 694 439 231 231 439 z m 925 694 l 694 464 l 613 545 l 705 637 l 464 637 l 464 751 l 705 751 l 613 844 l 694 925 l 925 694 z "},"":{"ha":1389,"x_min":0,"x_max":0,"o":"m 694 231 b 231 694 439 231 231 439 b 694 1158 231 949 439 1158 b 1158 694 949 1158 1158 949 b 694 231 1158 439 949 231 z m 694 117 b 1272 694 1015 117 1272 374 b 694 1272 1272 1015 1015 1272 b 117 694 374 1272 117 1015 b 694 117 117 374 374 117 z m 637 694 l 637 464 l 751 464 l 751 694 l 925 694 l 694 925 l 464 694 l 637 694 z "},"":{"ha":1389,"x_min":0,"x_max":0,"o":"m 1158 694 l 1077 776 l 751 453 l 751 1158 l 637 1158 l 637 453 l 315 776 l 231 694 l 694 231 l 1158 694 z "},"":{"ha":1389,"x_min":0,"x_max":0,"o":"m 404 811 l 694 521 l 985 811 l 404 811 z "},"":{"ha":1389,"x_min":0,"x_max":0,"o":"m 694 1158 b 1158 694 949 1158 1158 949 b 694 231 1158 439 949 231 b 231 694 439 231 231 439 b 694 1158 231 949 439 1158 z m 694 1272 b 117 694 374 1272 117 1015 b 694 117 117 374 374 117 b 1272 694 1015 117 1272 374 b 694 1272 1272 1015 1015 1272 z m 694 521 l 464 751 l 925 751 l 694 521 z "},"":{"ha":1389,"x_min":0,"x_max":0,"o":"m 404 578 l 694 868 l 985 578 l 404 578 z "},"":{"ha":1389,"x_min":0,"x_max":0,"o":"m 694 1158 l 613 1077 l 936 751 l 231 751 l 231 637 l 936 637 l 613 312 l 694 231 l 1158 694 l 694 1158 z "},"":{"ha":1389,"x_min":0,"x_max":0,"o":"m 361 217 l 464 117 l 1042 694 l 464 1272 l 361 1172 l 836 694 l 361 217 z "},"":{"ha":1389,"x_min":0,"x_max":0,"o":"m 811 985 l 521 694 l 811 404 l 811 985 z "},"":{"ha":1389,"x_min":0,"x_max":0,"o":"m 347 1042 l 347 925 l 844 925 l 290 372 l 372 290 l 925 844 l 925 347 l 1042 347 l 1042 1042 l 347 1042 z "},"":{"ha":1389,"x_min":0,"x_max":0,"o":"m 578 404 l 868 694 l 578 985 l 578 404 z "},"":{"ha":1389,"x_min":0,"x_max":0,"o":"m 928 751 l 231 751 l 231 637 l 928 637 l 928 464 l 1158 694 l 928 925 l 928 751 z "},"":{"ha":1389,"x_min":0,"x_max":0,"o":"m 231 694 l 312 613 l 637 936 l 637 231 l 751 231 l 751 936 l 1074 613 l 1158 694 l 694 1158 l 231 694 z "},"":{"ha":1389,"x_min":0,"x_max":0,"o":"m 1272 637 l 811 637 l 811 751 l 1272 751 l 1272 637 z m 1272 985 l 811 985 l 811 868 l 1272 868 l 1272 985 z m 811 404 l 1272 404 l 1272 521 l 811 521 l 811 404 z m 694 868 l 694 521 b 578 404 694 458 643 404 l 231 404 b 117 521 168 404 117 458 l 117 868 b 231 985 117 930 168 985 l 578 985 b 694 868 643 985 694 930 z m 608 521 l 477 694 l 377 564 l 304 651 l 203 521 l 608 521 z "},"":{"ha":1389,"x_min":0,"x_max":0,"o":"m 1099 1099 l 1099 290 l 290 290 l 290 1099 l 1099 1099 z m 1099 1215 l 290 1215 b 174 1099 225 1215 174 1164 l 174 290 b 290 174 174 225 225 174 l 1099 174 b 1215 290 1164 174 1215 225 l 1215 1099 b 1099 1215 1215 1164 1164 1215 z m 811 404 l 404 404 l 404 521 l 811 521 l 811 404 z m 985 637 l 404 637 l 404 751 l 985 751 l 985 637 z m 985 868 l 404 868 l 404 985 l 985 985 l 985 868 z "},"":{"ha":1389,"x_min":0,"x_max":0,"o":"m 1099 694 l 985 694 l 985 521 l 811 521 l 811 404 l 1099 404 l 1099 694 z m 404 868 l 578 868 l 578 985 l 290 985 l 290 694 l 404 694 l 404 868 z m 1215 1215 l 174 1215 b 57 1099 111 1215 57 1164 l 57 290 b 174 174 57 225 111 174 l 1215 174 b 1332 290 1278 174 1332 225 l 1332 1099 b 1215 1215 1332 1164 1278 1215 z m 1215 288 l 174 288 l 174 1101 l 1215 1101 l 1215 288 z "},"":{"ha":1389,"x_min":0,"x_max":0,"o":"m 1099 1215 l 290 1215 b 174 1099 225 1215 174 1164 l 174 290 b 290 174 174 225 225 174 l 1099 174 b 1215 290 1164 174 1215 225 l 1215 1099 b 1099 1215 1215 1164 1164 1215 z m 1099 290 l 290 290 l 290 1099 l 1099 1099 l 1099 290 z m 404 811 l 521 811 l 521 404 l 404 404 l 404 811 z m 637 985 l 751 985 l 751 404 l 637 404 l 637 985 z m 868 637 l 985 637 l 985 404 l 868 404 l 868 637 z "},"":{"ha":1389,"x_min":0,"x_max":0,"o":"m 404 521 l 811 521 l 811 404 l 404 404 l 404 521 z m 404 751 l 985 751 l 985 637 l 404 637 l 404 751 z m 404 985 l 985 985 l 985 868 l 404 868 l 404 985 z m 1099 1215 l 857 1215 b 694 1332 833 1283 770 1332 b 532 1215 618 1332 556 1283 l 290 1215 b 266 1213 282 1215 274 1215 b 209 1180 244 1207 222 1196 b 182 1145 198 1172 190 1158 b 174 1099 176 1131 174 1115 l 174 290 b 182 244 174 274 176 258 b 209 206 190 231 198 217 b 266 176 222 193 244 179 b 290 174 274 174 282 174 l 1099 174 b 1215 290 1164 174 1215 225 l 1215 1099 b 1099 1215 1215 1164 1164 1215 z m 694 1229 b 738 1185 719 1229 738 1210 b 694 1142 738 1164 719 1142 b 651 1185 670 1142 651 1164 b 694 1229 651 1210 670 1229 z m 1099 290 l 290 290 l 290 1099 l 1099 1099 l 1099 290 z "},"":{"ha":1389,"x_min":0,"x_max":0,"o":"m 1099 1215 l 857 1215 b 694 1332 833 1283 770 1332 b 532 1215 618 1332 556 1283 l 290 1215 b 174 1099 225 1215 174 1164 l 174 290 b 290 174 174 225 225 174 l 1099 174 b 1215 290 1164 174 1215 225 l 1215 1099 b 1099 1215 1215 1164 1164 1215 z m 694 1229 b 727 1215 708 1229 719 1223 b 738 1185 732 1207 738 1196 b 694 1142 738 1164 719 1142 b 651 1185 670 1142 651 1164 b 662 1215 651 1196 656 1207 b 694 1229 670 1223 681 1229 z m 1099 290 l 290 290 l 290 1099 l 1099 1099 l 1099 290 z m 694 1042 b 521 868 600 1042 521 963 b 694 694 521 773 600 694 b 868 868 789 694 868 773 b 694 1042 868 963 789 1042 z m 694 811 b 637 868 662 811 637 836 b 694 925 637 901 662 925 b 751 868 727 925 751 901 b 694 811 751 836 727 811 z m 347 437 l 347 347 l 1042 347 l 1042 437 b 694 643 1042 581 811 643 b 347 437 578 643 347 581 z m 480 464 b 694 529 521 496 618 529 b 909 464 770 529 868 496 l 480 464 z "},"":{"ha":1389,"x_min":0,"x_max":0,"o":"m 637 521 l 751 521 l 751 404 l 637 404 l 637 521 z m 637 985 l 751 985 l 751 637 l 637 637 l 637 985 z m 1099 1215 l 857 1215 b 694 1332 833 1283 770 1332 b 532 1215 618 1332 556 1283 l 290 1215 b 266 1213 282 1215 274 1215 b 209 1180 244 1207 222 1196 b 182 1145 198 1172 190 1158 b 174 1099 176 1131 174 1115 l 174 290 b 182 244 174 274 176 258 b 209 206 190 231 198 217 b 266 176 222 193 244 179 b 290 174 274 174 282 174 l 1099 174 b 1215 290 1164 174 1215 225 l 1215 1099 b 1099 1215 1215 1164 1164 1215 z m 694 1229 b 738 1185 719 1229 738 1210 b 694 1142 738 1164 719 1142 b 651 1185 670 1142 651 1164 b 694 1229 651 1210 670 1229 z m 1099 290 l 290 290 l 290 1099 l 1099 1099 l 1099 290 z "},"":{"ha":1389,"x_min":0,"x_max":0,"o":"m 694 578 l 925 578 l 925 811 l 694 811 l 694 985 l 404 694 l 694 404 l 694 578 z m 1099 1215 l 857 1215 b 694 1332 833 1283 770 1332 b 532 1215 618 1332 556 1283 l 290 1215 b 266 1213 282 1215 274 1215 b 209 1180 244 1207 222 1196 b 182 1145 198 1172 190 1158 b 174 1099 176 1131 174 1115 l 174 290 b 182 244 174 274 176 258 b 209 206 190 231 198 217 b 266 176 222 193 244 179 b 290 174 274 174 282 174 l 1099 174 b 1215 290 1164 174 1215 225 l 1215 1099 b 1099 1215 1215 1164 1164 1215 z m 694 1229 b 738 1185 719 1229 738 1210 b 694 1142 738 1164 719 1142 b 651 1185 670 1142 651 1164 b 694 1229 651 1210 670 1229 z m 1099 290 l 290 290 l 290 1099 l 1099 1099 l 1099 290 z "},"":{"ha":1389,"x_min":0,"x_max":0,"o":"m 985 694 l 811 694 l 811 925 l 578 925 l 578 694 l 404 694 l 694 404 l 985 694 z m 1099 1215 l 857 1215 b 694 1332 833 1283 770 1332 b 532 1215 618 1332 556 1283 l 290 1215 b 266 1213 282 1215 274 1215 b 209 1180 244 1207 222 1196 b 182 1145 198 1172 190 1158 b 174 1099 176 1131 174 1115 l 174 290 b 182 244 174 274 176 258 b 209 206 190 231 198 217 b 266 176 222 193 244 179 b 290 174 274 174 282 174 l 1099 174 b 1215 290 1164 174 1215 225 l 1215 1099 b 1099 1215 1215 1164 1164 1215 z m 694 1229 b 738 1185 719 1229 738 1210 b 694 1142 738 1164 719 1142 b 651 1185 670 1142 651 1164 b 694 1229 651 1210 670 1229 z m 1099 290 l 290 290 l 290 1099 l 1099 1099 l 1099 290 z "},"":{"ha":1389,"x_min":0,"x_max":0,"o":"m 1042 868 l 960 949 l 578 570 l 429 719 l 347 637 l 578 404 l 1042 868 z m 1099 1215 l 857 1215 b 694 1332 833 1283 770 1332 b 532 1215 618 1332 556 1283 l 290 1215 b 266 1213 282 1215 274 1215 b 209 1180 244 1207 222 1196 b 182 1145 198 1172 190 1158 b 174 1099 176 1131 174 1115 l 174 290 b 182 244 174 274 176 258 b 209 206 190 231 198 217 b 266 176 222 193 244 179 b 290 174 274 174 282 174 l 1099 174 b 1215 290 1164 174 1215 225 l 1215 1099 b 1099 1215 1215 1164 1164 1215 z m 694 1229 b 738 1185 719 1229 738 1210 b 694 1142 738 1164 719 1142 b 651 1185 670 1142 651 1164 b 694 1229 651 1210 670 1229 z m 1099 290 l 290 290 l 290 1099 l 1099 1099 l 1099 290 z "},"":{"ha":1389,"x_min":0,"x_max":0,"o":"m 608 1128 b 724 1245 608 1194 659 1245 b 838 1128 787 1245 838 1194 b 724 1012 838 1063 787 1012 b 608 1128 659 1012 608 1063 z m 1145 363 l 1107 732 b 1020 811 1104 776 1066 811 l 925 811 b 708 892 838 811 760 841 l 591 1009 b 510 1042 583 1017 556 1042 b 429 1006 480 1042 453 1031 l 236 817 b 225 692 206 776 206 724 l 307 529 l 125 296 l 214 225 l 429 496 l 418 575 l 464 534 l 464 231 l 578 231 l 578 586 l 456 708 l 591 844 b 800 711 648 789 692 741 l 751 231 l 838 231 l 863 434 l 1047 434 l 1055 363 b 1012 290 1031 347 1012 320 b 1099 203 1012 241 1053 203 b 1185 290 1147 203 1185 241 b 1145 363 1185 320 1169 347 z m 873 521 l 898 724 l 1012 724 l 1036 521 l 873 521 z "},"":{"ha":1389,"x_min":0,"x_max":0,"o":"m 1099 1272 l 290 1272 b 174 1158 225 1272 174 1221 l 174 347 b 290 231 174 285 225 231 l 521 231 l 694 57 l 868 231 l 1099 231 b 1215 347 1164 231 1215 285 l 1215 1158 b 1099 1272 1215 1221 1164 1272 z m 1099 347 l 819 347 l 787 312 l 694 222 l 602 315 l 570 347 l 290 347 l 290 1158 l 1099 1158 l 1099 347 z m 694 404 l 803 643 l 1042 751 l 803 860 l 694 1099 l 586 860 l 347 751 l 586 643 l 694 404 z "},"":{"ha":1389,"x_min":0,"x_max":0,"o":"m 694 1332 b 57 694 342 1332 57 1047 b 694 57 57 342 342 57 b 1332 694 1047 57 1332 342 b 694 1332 1332 1047 1047 1332 z m 694 174 b 174 694 407 174 174 407 b 694 1215 174 982 407 1215 b 1215 694 982 1215 1215 982 b 694 174 1215 407 982 174 z m 1142 727 l 727 1145 b 659 1145 705 1161 678 1161 l 244 727 b 244 662 228 708 228 681 l 659 244 b 727 244 681 228 705 228 l 1142 662 b 1142 727 1164 681 1164 713 z m 781 551 l 700 632 l 762 694 l 578 694 l 578 521 l 464 521 l 464 751 b 521 811 464 787 486 811 l 762 811 l 700 873 l 781 955 l 985 751 l 781 551 z "},"":{"ha":1389,"x_min":0,"x_max":0,"o":"m 716 1042 l 719 1020 l 738 925 l 1042 925 l 1042 578 l 846 578 l 844 602 l 825 694 l 404 694 l 404 1042 l 716 1042 z m 811 1158 l 290 1158 l 290 174 l 404 174 l 404 578 l 730 578 l 751 464 l 1158 464 l 1158 1042 l 833 1042 l 811 1158 z "},"":{"ha":1389,"x_min":0,"x_max":0,"o":"m 290 811 l 404 811 l 404 404 l 290 404 l 290 811 z m 637 811 l 751 811 l 751 404 l 637 404 l 637 811 z m 1272 1042 l 694 1332 l 117 1042 l 117 925 l 1272 925 l 1272 1042 z m 374 1042 l 694 1202 l 1015 1042 l 374 1042 z m 117 290 l 117 174 l 833 174 b 814 290 822 212 814 250 l 117 290 z m 1099 678 l 1099 811 l 985 811 l 985 621 l 1099 678 z m 1158 578 l 925 464 l 925 315 b 1158 0 925 171 1025 33 b 1389 315 1291 33 1389 171 l 1389 464 l 1158 578 z m 1115 174 l 998 290 l 1061 353 l 1115 296 l 1256 434 l 1316 372 l 1115 174 z "},"":{"ha":1389,"x_min":0,"x_max":0,"o":"m 464 868 l 464 781 l 594 781 l 594 521 l 681 521 l 681 781 l 811 781 l 811 868 l 464 868 z m 347 868 l 174 868 b 117 811 141 868 117 841 l 117 521 l 203 521 l 203 608 l 317 608 l 317 521 l 404 521 l 404 811 b 347 868 404 841 380 868 z m 317 694 l 203 694 l 203 781 l 317 781 l 317 694 z m 1215 868 l 955 868 b 898 811 922 868 898 841 l 898 521 l 985 521 l 985 781 l 1042 781 l 1042 578 l 1128 578 l 1128 781 l 1185 781 l 1185 521 l 1272 521 l 1272 811 b 1215 868 1272 841 1248 868 z "},"":{"ha":1389,"x_min":0,"x_max":0,"o":"m 174 1042 l 637 751 l 1099 1042 l 1099 868 l 1215 868 l 1215 1158 b 1099 1272 1215 1221 1164 1272 l 174 1272 b 60 1158 111 1272 60 1221 l 57 464 b 174 347 57 399 111 347 l 751 347 l 751 464 l 174 464 l 174 1042 z m 1099 1158 l 637 868 l 174 1158 l 1099 1158 z m 1215 578 l 1215 347 b 1099 231 1215 285 1164 231 b 985 347 1036 231 985 285 l 985 608 b 1012 637 985 624 996 637 b 1042 608 1028 637 1042 624 l 1042 347 l 1158 347 l 1158 608 b 1012 751 1158 686 1093 751 b 868 608 933 751 868 686 l 868 347 b 1099 117 868 220 971 117 b 1332 347 1226 117 1332 220 l 1332 578 l 1215 578 z "},"":{"ha":1389,"x_min":0,"x_max":0,"o":"m 955 1042 l 955 377 b 724 144 955 250 852 144 b 491 377 597 144 491 250 l 491 1099 b 637 1245 491 1180 556 1245 b 781 1099 716 1245 781 1180 l 781 491 b 724 434 781 461 754 434 b 665 491 692 434 665 461 l 665 1042 l 578 1042 l 578 491 b 724 347 578 412 643 347 b 868 491 803 347 868 412 l 868 1099 b 637 1332 868 1226 765 1332 b 404 1099 510 1332 404 1226 l 404 377 b 724 57 404 201 548 57 b 1042 377 901 57 1042 201 l 1042 1042 l 955 1042 z "},"":{"ha":1389,"x_min":0,"x_max":0,"o":"m 684 757 b 510 882 551 792 510 827 b 665 990 510 947 567 990 b 811 868 768 990 806 941 l 939 868 b 751 1088 933 968 873 1058 l 751 1215 l 578 1215 l 578 1090 b 377 882 467 1066 377 993 b 648 643 377 749 486 681 b 822 502 792 608 822 556 b 665 399 822 464 792 399 b 494 521 545 399 499 453 l 366 521 b 578 298 372 393 467 323 l 578 174 l 751 174 l 751 298 b 955 505 865 320 955 385 b 684 757 955 667 814 724 z "},"":{"ha":1389,"x_min":0,"x_max":0,"o":"m 1072 464 l 404 464 b 174 694 277 464 174 567 b 404 925 174 822 277 925 l 1128 925 b 1272 781 1207 925 1272 860 b 1128 637 1272 703 1207 637 l 521 637 b 464 694 488 637 464 662 b 521 751 464 727 488 751 l 1072 751 l 1072 838 l 521 838 b 377 694 442 838 377 773 b 521 551 377 616 442 551 l 1128 551 b 1359 781 1256 551 1359 654 b 1128 1012 1359 909 1256 1012 l 404 1012 b 87 694 228 1012 87 871 b 404 377 87 518 228 377 l 1072 377 l 1072 464 z "},"":{"ha":1389,"x_min":0,"x_max":0,"o":"m 1166 553 b 1185 694 1180 600 1185 646 b 1166 836 1185 743 1180 789 b 1196 985 1213 868 1226 933 b 1053 1034 1166 1034 1104 1055 b 808 1172 987 1101 903 1150 b 694 1272 800 1229 754 1272 b 581 1172 635 1272 589 1229 b 336 1034 486 1150 401 1101 b 193 985 285 1055 222 1034 b 222 836 163 933 176 868 b 203 694 209 789 203 743 b 222 553 203 646 209 600 b 193 404 176 521 163 456 b 336 355 222 355 285 334 b 412 290 361 331 385 309 l 334 117 l 442 117 l 499 241 b 581 217 526 231 553 222 b 694 117 589 160 635 117 b 808 217 754 117 800 160 b 887 241 836 222 863 231 l 944 117 l 1053 117 l 974 290 b 1053 355 1001 309 1028 331 b 1196 404 1104 334 1166 355 b 1166 553 1226 456 1213 521 z m 784 304 b 694 347 762 331 730 347 b 605 304 659 347 624 331 b 537 326 581 309 559 315 l 618 510 b 694 496 643 502 667 496 b 768 510 719 496 746 499 l 849 326 b 784 304 827 315 808 309 z m 608 694 b 694 781 608 741 646 781 b 781 694 741 781 781 741 b 694 608 781 646 741 608 b 608 694 646 608 608 646 z m 1082 578 b 996 521 1047 575 1015 553 b 987 420 977 488 974 450 b 936 374 971 401 955 388 l 849 567 b 895 692 876 602 895 646 b 694 890 895 803 806 890 b 494 692 583 890 494 800 b 537 570 494 646 510 605 l 450 374 b 399 418 431 388 415 401 b 393 521 415 450 412 488 b 304 578 374 556 339 575 b 285 703 290 618 285 659 b 298 808 285 741 290 776 b 393 868 336 811 374 833 b 393 982 415 903 415 947 b 594 1099 448 1039 518 1080 b 694 1042 613 1066 651 1042 b 795 1099 738 1042 776 1066 b 993 982 871 1080 941 1039 b 996 868 974 947 974 903 b 1088 811 1015 833 1050 814 b 1101 703 1096 776 1101 741 b 1082 578 1101 659 1096 618 z "},"":{"ha":1389,"x_min":0,"x_max":0,"o":"m 694 898 b 534 817 643 898 534 871 l 534 551 l 621 551 l 621 290 l 768 290 l 768 551 l 854 551 l 854 817 b 694 898 854 871 746 898 z m 694 1272 b 117 694 374 1272 117 1015 b 694 117 117 374 374 117 b 1272 694 1015 117 1272 374 b 694 1272 1272 1015 1015 1272 z m 694 231 b 231 694 439 231 231 439 b 694 1158 231 949 439 1158 b 1158 694 949 1158 1158 949 b 694 231 1158 439 949 231 z m 608 1012 b 694 1099 608 1061 646 1099 b 781 1012 743 1099 781 1061 b 694 925 781 966 743 925 b 608 1012 646 925 608 966 z "},"":{"ha":1389,"x_min":0,"x_max":0,"o":"m 811 1272 l 347 1272 b 231 1158 285 1272 231 1221 l 231 231 b 347 117 231 168 285 117 l 1042 117 b 1158 231 1104 117 1158 168 l 1158 925 l 811 1272 z m 347 231 l 347 1158 l 751 1158 l 751 868 l 1042 868 l 1042 231 l 347 231 z m 925 751 l 694 751 l 694 529 b 621 551 673 543 648 551 b 491 420 551 551 491 491 b 621 290 491 347 551 290 b 751 420 694 290 751 347 l 751 637 l 925 637 l 925 751 z "},"":{"ha":1389,"x_min":0,"x_max":0,"o":"m 694 1215 l 694 605 b 578 637 659 624 621 637 b 347 404 450 637 347 532 b 578 174 347 277 450 174 b 811 404 705 174 811 277 l 811 985 l 1042 985 l 1042 1215 l 694 1215 z m 578 290 b 464 404 515 290 464 342 b 578 521 464 469 515 521 b 694 404 643 521 694 469 b 578 290 694 342 643 290 z "},"":{"ha":1389,"x_min":0,"x_max":0,"o":"m 1099 868 l 1172 1028 l 1332 1099 l 1172 1172 l 1099 1332 l 1028 1172 l 868 1099 l 1028 1028 l 1099 868 z m 1099 521 l 1028 361 l 868 290 l 1028 217 l 1099 57 l 1172 217 l 1332 290 l 1172 361 l 1099 521 z m 665 838 l 521 1158 l 377 838 l 57 694 l 377 551 l 521 231 l 665 551 l 985 694 l 665 838 z m 578 637 l 521 510 l 464 637 l 336 694 l 464 751 l 521 879 l 578 751 l 705 694 l 578 637 z "},"":{"ha":1389,"x_min":0,"x_max":0,"o":"m 174 1099 l 174 290 b 290 174 174 225 225 174 l 637 174 l 637 1215 l 290 1215 b 174 1099 225 1215 174 1164 z m 521 290 l 290 290 l 290 1099 l 521 1099 l 521 290 z m 1099 1215 l 751 1215 l 751 751 l 1215 751 l 1215 1099 b 1099 1215 1215 1164 1164 1215 z m 1099 868 l 868 868 l 868 1099 l 1099 1099 l 1099 868 z m 751 174 l 1099 174 b 1215 290 1164 174 1215 225 l 1215 637 l 751 637 l 751 174 z m 868 521 l 1099 521 l 1099 290 l 868 290 l 868 521 z "},"":{"ha":1389,"x_min":0,"x_max":0,"o":"m 811 1272 l 231 1272 b 117 1158 168 1272 117 1221 l 117 578 l 231 578 l 231 1158 l 811 1158 l 811 1272 z m 1042 1042 l 464 1042 b 347 925 399 1042 347 990 l 347 347 l 464 347 l 464 925 l 1042 925 l 1042 1042 z m 1158 811 l 694 811 b 578 694 632 811 578 757 l 578 231 b 694 117 578 168 632 117 l 1158 117 b 1272 231 1221 117 1272 168 l 1272 694 b 1158 811 1272 757 1221 811 z m 1158 231 l 694 231 l 694 694 l 1158 694 l 1158 231 z "},"":{"ha":1389,"x_min":0,"x_max":0,"o":"m 868 1272 l 665 1272 l 608 1332 l 317 1332 l 260 1272 l 57 1272 l 57 1158 l 868 1158 l 868 1272 z m 925 868 b 811 852 884 868 846 863 l 811 1099 l 117 1099 l 117 404 b 231 290 117 342 168 290 l 562 290 b 925 57 624 152 765 57 b 1332 464 1150 57 1332 239 b 925 868 1332 686 1150 868 z m 521 464 b 526 404 521 442 524 423 l 231 404 l 231 985 l 694 985 l 694 795 b 521 464 589 722 521 600 z m 925 174 b 637 464 765 174 637 304 b 925 751 637 624 765 751 b 1215 464 1085 751 1215 624 b 925 174 1215 304 1085 174 z m 955 694 l 868 694 l 868 404 l 1077 285 l 1123 353 l 955 450 l 955 694 z "},"":{"ha":1389,"x_min":0,"x_max":0,"o":"m 1158 985 l 1213 1104 l 1332 1158 l 1213 1213 l 1158 1332 l 1104 1213 l 985 1158 l 1104 1104 l 1158 985 z m 491 985 l 545 1104 l 665 1158 l 545 1213 l 491 1332 l 437 1213 l 317 1158 l 437 1104 l 491 985 z m 1158 665 l 1104 545 l 985 491 l 1104 437 l 1158 317 l 1213 437 l 1332 491 l 1213 545 l 1158 665 z m 1025 860 l 860 1025 b 819 1042 849 1036 836 1042 b 779 1025 806 1042 789 1036 l 133 380 b 133 296 111 355 111 320 l 296 133 b 336 117 307 122 323 117 b 380 133 353 117 366 122 l 1025 779 b 1025 860 1047 800 1047 838 z m 819 901 l 901 819 l 833 751 l 751 833 l 819 901 z m 336 255 l 255 336 l 670 751 l 751 670 l 336 255 z "},"":{"ha":1389,"x_min":0,"x_max":0,"o":"m 1158 985 l 1213 1104 l 1332 1158 l 1213 1213 l 1158 1332 l 1104 1213 l 985 1158 l 1104 1104 l 1158 985 z m 1025 860 l 860 1025 b 819 1042 849 1036 836 1042 b 779 1025 806 1042 789 1036 l 133 380 b 133 296 111 355 111 320 l 296 133 b 336 117 307 122 323 117 b 380 133 353 117 366 122 l 1025 779 b 1025 860 1047 800 1047 838 z m 819 901 l 901 819 l 833 751 l 751 833 l 819 901 z m 336 255 l 255 336 l 670 751 l 751 670 l 336 255 z "},"":{"ha":1389,"x_min":0,"x_max":0,"o":"m 1158 985 l 1213 1104 l 1332 1158 l 1213 1213 l 1158 1332 l 1104 1213 l 985 1158 l 1104 1104 l 1158 985 z m 819 901 l 901 819 l 817 735 l 898 654 l 1025 779 b 1025 860 1047 803 1047 838 l 860 1025 b 819 1042 849 1036 836 1042 b 779 1025 806 1042 789 1036 l 654 901 l 735 817 l 819 901 z m 81 1145 l 488 735 l 133 380 b 133 296 111 355 111 320 l 296 133 b 336 117 307 122 323 117 b 380 133 353 117 366 122 l 735 488 l 1145 81 l 1226 163 l 163 1226 l 81 1145 z m 654 572 l 336 255 l 255 336 l 572 654 l 654 572 z "},"":{"ha":1389,"x_min":0,"x_max":0,"o":"m 814 814 l 694 868 l 814 922 l 868 1042 l 922 922 l 1042 868 l 922 814 l 868 694 l 814 814 z m 231 578 l 285 697 l 404 751 l 285 806 l 231 925 l 176 806 l 57 751 l 176 697 l 231 578 z m 491 868 l 556 1006 l 694 1072 l 556 1134 l 491 1272 l 429 1134 l 290 1072 l 429 1006 l 491 868 z m 260 203 l 608 551 l 838 320 l 1332 871 l 1251 955 l 838 494 l 608 724 l 174 290 l 260 203 z "},"":{"ha":1389,"x_min":0,"x_max":0,"o":"m 1101 1183 b 751 1329 1004 1264 884 1316 l 751 1213 b 1020 1101 852 1202 944 1161 l 1101 1183 z m 637 1213 l 637 1329 b 288 1183 505 1316 385 1264 l 369 1101 b 637 1213 445 1161 537 1202 z m 288 1020 l 206 1101 b 60 751 125 1004 73 884 l 176 751 b 288 1020 187 852 228 944 z m 1213 751 l 1329 751 b 1183 1101 1316 884 1264 1004 l 1101 1020 b 1213 751 1161 944 1202 852 z m 404 694 l 605 605 l 694 404 l 784 605 l 985 694 l 784 784 l 694 985 l 605 784 l 404 694 z m 694 174 b 263 404 515 174 355 266 l 404 404 l 404 521 l 57 521 l 57 174 l 174 174 l 174 331 b 694 57 288 165 477 57 b 1299 496 977 57 1215 241 l 1185 521 b 694 174 1115 320 922 174 z "},"":{"ha":1389,"x_min":0,"x_max":0,"o":"m 1299 1088 b 1215 1123 1272 1101 1245 1112 l 1215 426 b 1012 464 1150 450 1082 464 b 694 372 903 464 795 431 l 694 1072 b 377 1158 600 1126 494 1158 b 90 1088 271 1158 174 1131 b 57 1036 71 1080 57 1058 l 57 339 b 117 279 57 304 84 279 b 144 288 125 279 133 282 b 377 347 214 323 293 347 b 694 231 496 347 608 301 b 1012 347 781 301 892 347 b 1245 288 1096 347 1175 323 b 1272 279 1256 282 1264 279 b 1332 336 1302 279 1332 304 l 1332 1036 b 1299 1088 1332 1058 1318 1080 z m 578 426 b 377 464 513 450 445 464 b 174 426 307 464 239 450 l 174 1001 b 377 1042 239 1028 307 1042 b 578 1001 445 1042 515 1028 l 578 426 z m 1099 1359 l 811 1072 l 811 521 l 1099 781 l 1099 1359 z "},"":{"ha":1389,"x_min":0,"x_max":0,"o":"m 697 1025 l 692 1025 l 635 857 l 754 857 l 697 1025 z m 174 404 l 290 404 l 290 117 l 174 117 l 174 404 z m 694 521 b 1042 868 887 521 1042 675 b 694 1215 1042 1061 887 1215 b 347 868 502 1215 347 1061 b 694 521 347 675 502 521 z m 659 1099 l 730 1099 l 882 694 l 814 694 l 776 798 l 613 798 l 575 694 l 505 694 l 659 1099 z m 404 404 l 521 404 l 521 117 l 404 117 l 404 404 z m 637 404 l 751 404 l 751 117 l 637 117 l 637 404 z m 868 404 l 1215 404 l 1215 117 l 868 117 l 868 404 z "},"":{"ha":1389,"x_min":0,"x_max":0,"o":"m 694 1042 l 694 868 l 925 1099 l 694 1332 l 694 1158 b 231 694 439 1158 231 949 b 304 448 231 605 258 518 l 388 532 b 347 694 361 581 347 635 b 694 1042 347 887 502 1042 z m 1085 941 l 1001 857 b 1042 694 1025 808 1042 754 b 694 347 1042 502 887 347 l 694 521 l 464 290 l 694 57 l 694 231 b 1158 694 949 231 1158 439 b 1085 941 1158 784 1131 871 z "},"":{"ha":1389,"x_min":0,"x_max":0,"o":"m 637 404 b 694 347 637 374 662 347 b 751 404 727 347 751 374 b 694 464 751 437 727 464 b 637 404 662 464 637 437 z m 637 1215 l 637 985 l 751 985 l 751 1096 b 1099 694 949 1066 1099 898 b 694 290 1099 469 920 290 b 290 694 469 290 290 469 b 380 949 290 792 323 882 l 694 637 l 776 719 l 382 1112 l 382 1109 b 174 694 255 1015 174 865 b 694 174 174 407 407 174 b 1215 694 982 174 1215 407 b 694 1215 1215 982 982 1215 l 637 1215 z m 1042 694 b 985 751 1042 727 1015 751 b 925 694 952 751 925 727 b 985 637 925 662 952 637 b 1042 694 1015 637 1042 662 z m 347 694 b 404 637 347 662 374 637 b 464 694 437 637 464 662 b 404 751 464 727 437 751 b 347 694 374 751 347 727 z "},"":{"ha":1389,"x_min":0,"x_max":0,"o":"m 811 925 l 811 811 l 637 811 l 480 879 l 404 651 l 404 117 l 174 117 l 174 694 l 266 963 b 423 1031 288 1028 361 1061 l 662 925 l 811 925 z m 464 1332 b 347 1215 399 1332 347 1278 b 464 1099 347 1153 399 1099 b 578 1215 526 1099 578 1153 b 464 1332 578 1278 526 1332 z m 521 290 l 1215 290 l 1215 404 l 521 404 l 521 290 z m 1128 464 b 1215 551 1177 464 1215 502 b 1128 637 1215 597 1177 637 b 1042 551 1080 637 1042 597 b 1128 464 1042 502 1080 464 z m 751 694 b 694 751 751 727 727 751 l 521 751 l 521 637 l 637 637 l 637 578 b 751 464 637 515 689 464 l 868 464 b 985 578 930 464 985 515 l 985 751 l 868 751 l 868 637 l 751 637 l 751 694 z "},"":{"ha":1389,"x_min":0,"x_max":0,"o":"m 1215 985 b 1072 1128 1215 1063 1150 1128 b 1042 1126 1061 1128 1050 1128 l 1042 1158 b 898 1302 1042 1237 977 1302 b 857 1297 884 1302 871 1299 b 724 1389 836 1351 784 1389 b 581 1270 651 1389 594 1337 b 551 1272 572 1272 562 1272 b 404 1128 469 1272 404 1207 l 404 787 b 334 825 385 806 361 819 l 290 838 b 163 789 241 852 193 833 b 155 678 141 757 141 713 l 304 304 b 751 0 374 122 553 0 b 1215 464 1009 0 1215 206 l 1215 985 z m 1099 464 b 751 117 1099 271 944 117 b 410 347 602 117 467 209 l 260 727 l 290 719 b 347 667 317 711 339 692 l 404 521 l 521 521 l 521 1128 b 551 1158 521 1145 534 1158 b 578 1128 567 1158 578 1145 l 578 694 l 694 694 l 694 1245 b 724 1272 694 1261 708 1272 b 751 1245 741 1272 751 1261 l 751 694 l 868 694 l 868 1158 b 898 1185 868 1175 882 1185 b 925 1158 914 1185 925 1175 l 925 694 l 1042 694 l 1042 985 b 1072 1012 1042 1001 1055 1012 b 1099 985 1088 1012 1099 1001 l 1099 464 z "},"":{"ha":1389,"x_min":0,"x_max":0,"o":"m 985 1150 l 985 1272 l 811 1272 l 811 1158 l 578 1158 l 578 1272 l 404 1272 l 404 1150 b 231 925 307 1123 231 1034 l 231 231 b 347 117 231 168 285 117 l 1042 117 b 1158 231 1104 117 1158 168 l 1158 925 b 985 1150 1158 1034 1082 1123 z m 1042 231 l 347 231 l 347 925 b 464 1042 347 990 399 1042 l 925 1042 b 1042 925 990 1042 1042 990 l 1042 231 z m 955 694 l 955 464 l 838 464 l 838 578 l 434 578 l 434 694 l 955 694 z "},"":{"ha":1389,"x_min":0,"x_max":0,"o":"m 1272 1215 l 404 1215 b 312 1164 366 1215 334 1196 l 0 694 l 312 225 b 404 174 334 195 366 174 l 1272 174 b 1389 290 1337 174 1389 225 l 1389 1099 b 1272 1215 1389 1164 1337 1215 z m 1272 290 l 410 290 l 138 694 l 410 1099 l 1272 1099 l 1272 290 z m 602 404 l 811 613 l 1017 404 l 1099 486 l 892 694 l 1099 903 l 1017 985 l 811 776 l 602 985 l 521 903 l 730 694 l 521 486 l 602 404 z "},"":{"ha":1389,"x_min":0,"x_max":0,"o":"m 1120 808 b 694 1158 1080 1006 906 1158 b 309 922 526 1158 382 1063 b 0 578 136 906 0 757 b 347 231 0 388 155 231 l 1099 231 b 1389 521 1259 231 1389 361 b 1120 808 1389 673 1270 798 z m 1099 347 l 347 347 b 117 578 220 347 117 450 b 323 808 117 697 203 798 l 382 814 l 412 871 b 694 1042 467 977 575 1042 b 1006 784 846 1042 977 933 l 1023 697 l 1112 692 b 1272 521 1202 686 1272 610 b 1099 347 1272 426 1196 347 z m 464 637 l 610 637 l 610 464 l 779 464 l 779 637 l 925 637 l 694 868 l 464 637 z "},"":{"ha":1389,"x_min":0,"x_max":0,"o":"m 1158 1042 l 1158 231 l 347 231 l 347 117 l 1158 117 b 1272 231 1221 117 1272 168 l 1272 1042 l 1158 1042 z m 925 1272 l 231 1272 b 117 1158 168 1272 117 1221 l 117 464 b 231 347 117 399 168 347 l 925 347 b 1042 464 990 347 1042 399 l 1042 1158 b 925 1272 1042 1221 990 1272 z m 521 464 l 231 464 l 231 751 l 521 751 l 521 464 z m 925 464 l 637 464 l 637 751 l 925 751 l 925 464 z m 925 868 l 231 868 l 231 1158 l 925 1158 l 925 868 z "},"":{"ha":1389,"x_min":0,"x_max":0,"o":"m 811 694 l 1042 694 l 1042 608 l 811 608 l 811 694 z m 811 521 l 1042 521 l 1042 434 l 811 434 l 811 521 z m 1158 985 l 868 985 l 868 1158 b 751 1272 868 1221 817 1272 l 637 1272 b 521 1158 572 1272 521 1221 l 521 985 l 231 985 b 117 868 168 985 117 930 l 117 231 b 231 117 117 168 168 117 l 1158 117 b 1272 231 1221 117 1272 168 l 1272 868 b 1158 985 1272 930 1221 985 z m 637 985 l 637 1158 l 751 1158 l 751 868 l 637 868 l 637 985 z m 1158 231 l 231 231 l 231 868 l 521 868 b 637 751 521 806 572 751 l 751 751 b 868 868 817 751 868 806 l 1158 868 l 1158 231 z m 434 608 b 521 694 434 656 472 694 b 608 608 570 694 608 656 b 521 521 608 559 570 521 b 434 608 472 521 434 559 z m 640 453 b 521 477 605 469 564 477 b 401 453 477 477 437 469 b 347 372 369 439 347 407 l 347 347 l 694 347 l 694 372 b 640 453 694 407 673 439 z "},"":{"ha":1389,"x_min":0,"x_max":0,"o":"m 1185 757 b 1196 779 1194 773 1191 770 b 1109 947 1213 849 1175 922 l 993 996 b 911 1001 966 1004 936 1006 b 879 1053 903 1020 892 1039 b 773 1099 852 1082 814 1099 l 616 1099 b 510 1053 575 1099 537 1082 b 477 1001 496 1039 486 1020 b 396 996 453 1006 423 1006 l 279 949 b 193 779 214 922 176 849 l 203 757 b 57 442 62 488 57 488 b 130 312 57 388 84 339 b 361 347 212 260 274 304 l 1028 347 b 1180 290 1118 304 1137 290 b 1332 439 1240 290 1332 334 b 1185 757 1332 488 1324 491 z m 1164 410 l 1066 458 l 1128 613 l 1213 458 b 1164 410 1226 426 1194 393 z m 873 464 l 909 863 b 949 887 911 882 930 895 l 1066 841 b 1082 808 1077 836 1085 822 l 944 464 l 873 464 z m 445 464 l 307 808 b 323 841 304 822 312 836 l 439 887 b 480 863 458 895 477 882 l 515 464 l 445 464 z m 176 458 l 260 616 l 323 458 l 225 410 b 176 458 195 393 163 426 z m 589 952 b 616 985 586 971 600 985 l 773 985 b 803 952 789 985 803 971 l 757 464 l 632 464 l 589 952 z "},"":{"ha":1389,"x_min":0,"x_max":0,"o":"m 751 936 b 857 1042 800 952 841 993 l 1042 1042 l 868 637 b 1072 464 868 540 958 464 b 1272 637 1183 464 1272 540 l 1099 1042 l 1215 1042 l 1215 1158 l 857 1158 b 694 1272 836 1226 770 1272 b 532 1158 618 1272 553 1226 l 174 1158 l 174 1042 l 290 1042 l 117 637 b 317 464 117 540 206 464 b 521 637 431 464 521 540 l 347 1042 l 532 1042 b 637 936 548 993 589 952 l 637 290 l 117 290 l 117 174 l 1272 174 l 1272 290 l 751 290 l 751 936 z m 1180 637 l 963 637 l 1072 890 l 1180 637 z m 426 637 l 209 637 l 317 890 l 426 637 z m 694 1042 b 637 1099 662 1042 637 1069 b 694 1158 637 1131 662 1158 b 751 1099 727 1158 751 1131 b 694 1042 751 1069 727 1042 z "},"":{"ha":1389,"x_min":0,"x_max":0,"o":"m 578 811 l 578 694 l 464 694 l 464 811 l 578 811 z m 925 694 l 925 811 l 811 811 l 811 694 l 925 694 z m 1215 578 l 1215 117 l 174 117 l 174 578 l 231 578 l 231 811 b 694 1272 231 1066 439 1272 b 1158 811 949 1272 1158 1066 l 1158 578 l 1215 578 z m 404 464 l 290 464 l 290 231 l 404 231 l 404 464 z m 637 464 l 521 464 l 521 231 l 637 231 l 637 464 z m 637 1153 b 347 811 472 1126 347 982 l 347 578 l 637 578 l 637 1153 z m 751 578 l 1042 578 l 1042 811 b 751 1153 1042 982 917 1126 l 751 578 z m 868 464 l 751 464 l 751 231 l 868 231 l 868 464 z m 1099 464 l 985 464 l 985 231 l 1099 231 l 1099 464 z "},"":{"ha":1389,"x_min":0,"x_max":0,"o":"m 751 955 l 1042 955 l 1042 838 l 751 838 l 751 955 z m 751 551 l 1042 551 l 1042 434 l 751 434 l 751 551 z m 1099 1215 l 290 1215 b 174 1099 225 1215 174 1164 l 174 290 b 290 174 174 225 225 174 l 1099 174 b 1215 290 1164 174 1215 225 l 1215 1099 b 1099 1215 1215 1164 1164 1215 z m 1099 290 l 290 290 l 290 1099 l 1099 1099 l 1099 290 z m 637 1042 l 347 1042 l 347 751 l 637 751 l 637 1042 z m 578 811 l 404 811 l 404 985 l 578 985 l 578 811 z m 637 637 l 347 637 l 347 347 l 637 347 l 637 637 z m 578 404 l 404 404 l 404 578 l 578 578 l 578 404 z "},"":{"ha":1389,"x_min":0,"x_max":0,"o":"m 231 868 l 464 868 l 464 231 l 231 231 l 231 868 z m 925 637 l 1158 637 l 1158 231 l 925 231 l 925 637 z m 578 1158 l 811 1158 l 811 231 l 578 231 l 578 1158 z "},"":{"ha":1389,"x_min":0,"x_max":0,"o":"m 985 925 l 404 925 b 290 811 342 925 290 873 l 290 231 b 404 117 290 168 342 117 l 985 117 b 1099 231 1047 117 1099 168 l 1099 811 b 985 925 1099 873 1047 925 z m 751 203 l 637 203 l 637 290 l 751 290 l 751 203 z m 751 347 l 637 347 b 491 637 637 434 491 521 b 694 838 491 749 583 838 b 898 637 806 838 898 749 b 751 347 898 521 751 434 z m 1042 1012 l 347 1012 b 434 1099 347 1061 385 1099 l 955 1099 b 1042 1012 1004 1099 1042 1061 z m 985 1185 l 404 1185 b 491 1272 404 1234 445 1272 l 898 1272 b 985 1185 944 1272 985 1234 z "},"":{"ha":1389,"x_min":0,"x_max":0,"o":"m 464 578 b 521 637 464 610 488 637 b 578 578 553 637 578 610 b 521 521 578 548 553 521 b 464 578 488 521 464 548 z m 694 521 b 751 578 727 521 751 548 b 694 637 751 610 727 637 b 637 578 662 637 637 610 b 694 521 637 548 662 521 z m 868 521 b 925 578 901 521 925 548 b 868 637 925 610 901 637 b 811 578 836 637 811 610 b 868 521 811 548 836 521 z m 694 955 b 494 781 591 955 507 879 l 895 781 b 694 955 882 879 798 955 z m 694 1042 b 985 751 854 1042 985 911 l 985 694 l 404 694 l 404 751 b 694 1042 404 911 534 1042 z m 521 347 b 578 404 553 347 578 374 b 521 464 578 437 553 464 b 464 404 488 464 464 437 b 521 347 464 374 488 347 z m 694 347 b 751 404 727 347 751 374 b 694 464 751 437 727 464 b 637 404 662 464 637 437 b 694 347 637 374 662 347 z m 868 347 b 925 404 901 347 925 374 b 868 464 925 437 901 464 b 811 404 836 464 811 437 b 868 347 811 374 836 347 z m 1158 1158 l 231 1158 l 231 231 l 1158 231 l 1158 1158 z m 1158 1272 b 1272 1158 1221 1272 1272 1221 l 1272 231 b 1158 117 1272 168 1221 117 l 231 117 b 117 231 168 117 117 168 l 117 1158 b 231 1272 117 1221 168 1272 l 1158 1272 z "},"":{"ha":1389,"x_min":0,"x_max":0,"o":"m 290 985 b 404 1099 290 1047 342 1099 b 521 985 469 1099 521 1047 b 404 868 521 920 469 868 b 290 985 342 868 290 920 z m 1158 637 l 1158 1109 b 993 1272 1158 1199 1085 1272 b 879 1226 949 1272 909 1256 l 806 1153 b 776 1158 798 1156 787 1158 b 713 1139 754 1158 732 1150 l 873 979 b 892 1042 884 998 892 1017 b 887 1072 892 1053 890 1061 l 960 1145 b 993 1158 968 1153 982 1158 b 1042 1109 1020 1158 1042 1137 l 1042 637 l 646 637 b 597 678 627 648 613 662 l 518 768 b 477 798 505 781 491 789 b 418 811 458 806 439 811 b 290 681 347 808 290 751 l 290 637 l 117 637 l 117 290 b 231 174 117 225 168 174 b 290 117 231 141 258 117 l 1099 117 b 1158 174 1131 117 1158 141 b 1272 290 1221 174 1272 225 l 1272 637 l 1158 637 z m 1158 290 l 231 290 l 231 521 l 1158 521 l 1158 290 z "},"":{"ha":1389,"x_min":0,"x_max":0,"o":"m 985 1099 l 985 174 b 925 117 985 141 958 117 l 464 117 b 404 174 431 117 404 141 l 404 1099 b 464 1158 404 1131 431 1158 l 578 1158 l 578 1272 l 811 1272 l 811 1158 l 925 1158 b 985 1099 958 1158 985 1131 z m 868 1042 l 521 1042 l 521 231 l 868 231 l 868 1042 z "},"":{"ha":1389,"x_min":0,"x_max":0,"o":"m 985 1099 l 985 174 b 925 117 985 141 958 117 l 464 117 b 404 174 431 117 404 141 l 404 1099 b 464 1158 404 1131 431 1158 l 578 1158 l 578 1272 l 811 1272 l 811 1158 l 925 1158 b 985 1099 958 1158 985 1131 z m 868 1042 l 521 1042 l 521 347 l 868 347 l 868 1042 z "},"":{"ha":1389,"x_min":0,"x_max":0,"o":"m 985 1099 l 985 174 b 925 117 985 141 958 117 l 464 117 b 404 174 431 117 404 141 l 404 1099 b 464 1158 404 1131 431 1158 l 578 1158 l 578 1272 l 811 1272 l 811 1158 l 925 1158 b 985 1099 958 1158 985 1131 z m 868 1042 l 521 1042 l 521 464 l 868 464 l 868 1042 z "},"":{"ha":1389,"x_min":0,"x_max":0,"o":"m 985 1099 l 985 174 b 925 117 985 141 958 117 l 464 117 b 404 174 431 117 404 141 l 404 1099 b 464 1158 404 1131 431 1158 l 578 1158 l 578 1272 l 811 1272 l 811 1158 l 925 1158 b 985 1099 958 1158 985 1131 z m 868 1042 l 521 1042 l 521 578 l 868 578 l 868 1042 z "},"":{"ha":1389,"x_min":0,"x_max":0,"o":"m 985 1099 l 985 174 b 925 117 985 141 958 117 l 464 117 b 404 174 431 117 404 141 l 404 1099 b 464 1158 404 1131 431 1158 l 578 1158 l 578 1272 l 811 1272 l 811 1158 l 925 1158 b 985 1099 958 1158 985 1131 z m 868 1042 l 521 1042 l 521 694 l 868 694 l 868 1042 z "},"":{"ha":1389,"x_min":0,"x_max":0,"o":"m 985 1099 l 985 174 b 925 117 985 141 958 117 l 464 117 b 404 174 431 117 404 141 l 404 1099 b 464 1158 404 1131 431 1158 l 578 1158 l 578 1272 l 811 1272 l 811 1158 l 925 1158 b 985 1099 958 1158 985 1131 z m 868 1042 l 521 1042 l 521 811 l 868 811 l 868 1042 z "},"":{"ha":1389,"x_min":0,"x_max":0,"o":"m 985 1099 l 985 174 b 925 117 985 141 958 117 l 464 117 b 404 174 431 117 404 141 l 404 1099 b 464 1158 404 1131 431 1158 l 578 1158 l 578 1272 l 811 1272 l 811 1158 l 925 1158 b 985 1099 958 1158 985 1131 z m 868 1042 l 521 1042 l 521 925 l 868 925 l 868 1042 z "},"":{"ha":1389,"x_min":0,"x_max":0,"o":"m 906 1158 l 811 1158 l 811 1272 l 578 1272 l 578 1158 l 483 1158 b 404 1080 439 1158 404 1123 l 404 193 b 483 117 404 149 439 117 l 906 117 b 985 193 949 117 985 149 l 985 1080 b 906 1158 985 1123 949 1158 z m 751 347 l 637 347 l 637 464 l 751 464 l 751 347 z m 751 578 l 637 578 l 637 868 l 751 868 l 751 578 z "},"":{"ha":1389,"x_min":0,"x_max":0,"o":"m 906 1158 l 811 1158 l 811 1272 l 578 1272 l 578 1158 l 483 1158 b 404 1080 439 1158 404 1123 l 404 193 b 483 117 404 149 439 117 l 906 117 b 985 193 949 117 985 149 l 985 1080 b 906 1158 985 1123 949 1158 z m 637 231 l 637 551 l 521 551 l 751 985 l 751 665 l 868 665 l 637 231 z "},"":{"ha":1389,"x_min":0,"x_max":0,"o":"m 906 1158 l 811 1158 l 811 1272 l 578 1272 l 578 1158 l 483 1158 b 404 1080 439 1158 404 1123 l 404 193 b 483 117 404 149 439 117 l 906 117 b 985 193 949 117 985 149 l 985 1080 b 906 1158 985 1123 949 1158 z "},"":{"ha":1389,"x_min":0,"x_max":0,"o":"m 925 1158 l 811 1158 l 811 1272 l 578 1272 l 578 1158 l 464 1158 b 404 1099 431 1158 404 1131 l 404 174 b 464 117 404 141 431 117 l 925 117 b 985 174 958 117 985 141 l 985 1099 b 925 1158 985 1131 958 1158 z m 868 578 l 751 578 l 751 464 l 637 464 l 637 578 l 521 578 l 521 694 l 637 694 l 637 811 l 751 811 l 751 694 l 868 694 l 868 578 z "},"":{"ha":1389,"x_min":0,"x_max":0,"o":"m 906 1158 l 811 1158 l 811 1272 l 578 1272 l 578 1158 l 483 1158 b 404 1080 439 1158 404 1123 l 404 193 b 483 117 404 149 439 117 l 906 117 b 985 193 949 117 985 149 l 985 1080 b 906 1158 985 1123 949 1158 z "},"":{"ha":1389,"x_min":0,"x_max":0,"o":"m 906 1158 l 811 1158 l 811 1272 l 578 1272 l 578 1158 l 483 1158 b 404 1080 439 1158 404 1123 l 404 193 b 483 117 404 149 439 117 l 906 117 b 985 193 949 117 985 149 l 985 1080 b 906 1158 985 1123 949 1158 z m 751 347 l 637 347 l 637 464 l 751 464 l 751 347 z m 827 654 b 789 613 827 654 806 629 b 741 521 762 586 741 548 l 648 521 b 703 637 648 570 675 608 l 757 692 b 781 751 770 705 781 730 b 694 838 781 800 743 838 b 608 751 646 838 608 800 l 521 751 b 694 925 521 849 600 925 b 868 751 789 925 868 849 b 827 654 868 713 852 678 z "},"":{"ha":1389,"x_min":0,"x_max":0,"o":"m 1215 258 l 1134 174 l 760 545 l 844 629 l 1215 258 z m 760 1215 b 347 1044 610 1215 461 1158 l 345 1044 b 345 217 117 817 117 445 l 1172 1044 b 760 1215 1058 1158 909 1215 z m 355 391 b 290 629 312 461 290 543 b 315 784 290 684 298 735 b 437 469 328 673 366 564 l 355 391 z m 521 553 b 439 949 442 673 412 814 b 540 960 475 955 507 960 b 836 868 646 960 746 928 l 521 553 z m 605 1074 b 760 1099 654 1090 705 1099 b 998 1034 846 1099 928 1077 l 920 952 b 605 1074 825 1023 716 1061 z "},"":{"ha":1389,"x_min":0,"x_max":0,"o":"m 1215 765 l 1215 925 b 1042 1099 1215 1023 1137 1099 l 811 1099 b 694 1055 765 1099 724 1082 b 578 1099 665 1082 624 1099 l 347 1099 b 174 925 252 1099 174 1023 l 174 765 b 117 637 138 732 117 686 l 117 290 l 231 290 l 231 404 l 1158 404 l 1158 290 l 1272 290 l 1272 637 b 1215 765 1272 686 1251 732 z m 811 985 l 1042 985 b 1099 925 1074 985 1099 958 l 1099 811 l 751 811 l 751 925 b 811 985 751 958 779 985 z m 290 925 b 347 985 290 958 315 985 l 578 985 b 637 925 610 985 637 958 l 637 811 l 290 811 l 290 925 z m 231 521 l 231 637 b 290 694 231 667 258 694 l 1099 694 b 1158 637 1131 694 1158 667 l 1158 521 l 231 521 z "},"":{"ha":1389,"x_min":0,"x_max":0,"o":"m 1039 575 b 974 524 1017 556 998 540 l 925 608 l 925 751 l 985 751 l 985 811 l 659 811 l 559 985 l 347 985 l 404 939 l 317 838 l 374 781 l 464 838 l 464 608 l 415 524 b 350 575 391 540 372 556 l 290 515 b 694 347 399 407 543 347 b 1099 515 846 347 990 407 l 1039 575 z m 488 480 l 491 483 l 537 564 b 849 564 637 526 749 526 l 898 483 l 898 480 b 694 434 836 450 765 434 b 488 480 621 434 553 450 z m 1158 1158 l 1158 231 l 231 231 l 231 1158 l 1158 1158 z m 1158 1272 l 231 1272 b 117 1158 168 1272 117 1221 l 117 231 b 231 117 117 168 168 117 l 1158 117 b 1272 231 1221 117 1272 168 l 1272 1158 b 1158 1272 1272 1221 1221 1272 z "},"":{"ha":1389,"x_min":0,"x_max":0,"o":"m 1158 1158 l 1158 231 l 231 231 l 231 1158 l 1158 1158 z m 1158 1272 l 231 1272 b 117 1158 168 1272 117 1221 l 117 231 b 231 117 117 168 168 117 l 1158 117 b 1272 231 1221 117 1272 168 l 1272 1158 b 1158 1272 1272 1221 1221 1272 z m 955 770 l 955 868 b 838 985 955 930 903 985 l 551 985 b 434 868 486 985 434 930 l 434 770 b 347 643 382 751 347 703 l 347 404 l 434 404 l 434 491 l 955 491 l 955 404 l 1042 404 l 1042 643 b 955 770 1042 703 1006 751 z m 868 898 l 868 781 l 521 781 l 521 898 l 868 898 z m 434 643 b 486 694 434 673 456 694 l 906 694 b 955 643 933 694 955 673 l 955 578 l 434 578 l 434 643 z "},"":{"ha":1389,"x_min":0,"x_max":0,"o":"m 1061 727 l 1061 868 b 947 985 1061 930 1009 985 l 751 985 b 694 966 730 985 711 977 b 637 985 678 977 659 985 l 442 985 b 328 868 380 985 328 930 l 328 727 b 290 627 304 700 290 665 l 290 404 l 377 404 l 377 491 l 1012 491 l 1012 404 l 1099 404 l 1099 627 b 1061 727 1099 665 1085 700 z m 968 781 l 738 781 l 738 898 l 968 898 l 968 781 z m 420 898 l 651 898 l 651 781 l 420 781 l 420 898 z m 1012 578 l 377 578 l 377 637 b 434 694 377 667 401 694 l 955 694 b 1012 637 987 694 1012 667 l 1012 578 z m 1158 1158 l 1158 231 l 231 231 l 231 1158 l 1158 1158 z m 1158 1272 l 231 1272 b 117 1158 168 1272 117 1221 l 117 231 b 231 117 117 168 168 117 l 1158 117 b 1272 231 1221 117 1272 168 l 1272 1158 b 1158 1272 1272 1221 1221 1272 z "},"":{"ha":1389,"x_min":0,"x_max":0,"o":"m 537 1128 b 979 331 442 692 754 410 b 694 231 901 269 800 231 b 231 694 439 231 231 439 b 537 1128 231 895 358 1066 z m 694 1272 b 117 694 372 1272 117 1009 b 694 117 117 374 374 117 b 1196 407 909 117 1096 233 b 713 1272 762 420 496 895 b 694 1272 708 1272 700 1272 z "},"":{"ha":1389,"x_min":0,"x_max":0,"o":"m 537 1128 b 524 1031 529 1096 524 1063 l 640 911 b 713 1272 627 1031 648 1156 b 694 1272 708 1272 700 1272 b 374 1177 575 1272 467 1237 l 461 1093 b 537 1128 486 1107 510 1120 z m 81 1145 l 212 1015 b 117 694 152 922 117 811 b 694 117 117 374 374 117 b 1012 212 814 117 922 152 l 1145 81 l 1226 163 l 163 1226 l 81 1145 z m 296 928 l 928 296 b 694 231 860 255 779 231 b 231 694 439 231 231 439 b 296 928 231 781 255 860 z "},"":{"ha":1389,"x_min":0,"x_max":0,"o":"m 1099 1332 l 290 1332 b 174 1215 225 1332 174 1278 l 174 467 b 225 372 174 426 193 391 l 694 57 l 1164 372 b 1215 467 1194 391 1215 426 l 1215 1215 b 1099 1332 1215 1278 1164 1332 z m 694 198 l 290 467 l 290 1215 l 1099 1215 l 1099 467 l 694 198 z m 578 627 l 429 776 l 347 694 l 578 464 l 1042 925 l 960 1009 l 578 627 z "},"":{"ha":1389,"x_min":0,"x_max":0,"o":"m 1158 1099 l 231 1099 b 117 985 168 1099 117 1047 l 117 404 b 231 290 117 342 168 290 l 1158 290 b 1272 404 1221 290 1272 342 l 1272 985 b 1158 1099 1272 1047 1221 1099 z m 1158 751 l 811 751 l 811 985 l 1158 985 l 1158 751 z m 231 985 l 694 985 l 694 404 l 231 404 l 231 985 z m 811 404 l 811 637 l 1158 637 l 1158 404 l 811 404 z m 551 694 b 464 608 551 646 510 608 b 377 694 415 608 377 646 b 464 781 377 743 415 781 b 551 694 510 781 551 743 z "},"":{"ha":1389,"x_min":0,"x_max":0,"o":"m 578 578 l 621 578 l 510 1066 b 399 1158 499 1120 450 1158 l 174 1158 l 174 1042 l 399 1042 l 480 681 b 236 404 355 643 258 537 l 0 404 l 0 290 l 347 290 l 347 347 b 578 578 347 475 450 578 z m 1099 925 l 1053 925 l 974 1139 b 865 1215 958 1185 914 1215 l 637 1215 l 637 1099 l 865 1099 l 930 925 l 602 925 l 629 811 l 868 811 b 817 694 844 776 825 738 l 654 694 l 681 578 l 817 578 b 1085 347 841 450 949 355 b 1389 637 1248 339 1389 475 b 1099 925 1389 798 1261 925 z m 1099 464 b 925 637 1001 464 925 540 b 987 768 925 692 949 738 l 1042 616 l 1150 654 l 1096 808 b 1101 811 1096 808 1099 811 b 1275 637 1196 811 1275 735 b 1099 464 1275 540 1196 464 z m 578 521 b 404 347 483 521 404 442 b 578 174 404 252 483 174 b 751 347 675 174 751 252 b 578 521 751 442 675 521 z m 578 290 b 521 347 548 290 521 315 b 578 404 521 380 548 404 b 637 347 610 404 637 380 b 578 290 637 315 610 290 z "},"":{"ha":1389,"x_min":0,"x_max":0,"o":"m 404 290 b 290 174 342 290 290 236 l 1099 174 b 985 290 1099 236 1047 290 l 751 290 l 751 404 l 925 404 b 1042 521 990 404 1042 458 l 578 521 b 404 694 483 521 404 600 b 491 844 404 757 439 814 b 597 781 513 808 551 784 b 703 817 637 779 675 792 l 738 724 l 792 743 l 811 689 l 920 730 l 901 784 l 955 803 l 798 1240 l 741 1218 l 722 1272 l 613 1234 l 632 1180 l 578 1158 l 610 1069 b 467 963 543 1072 486 1025 b 290 694 363 917 290 814 b 578 404 290 534 418 404 l 578 290 l 404 290 z m 743 1128 l 844 854 l 789 836 l 689 1107 l 743 1128 z m 608 985 b 665 925 640 985 665 958 b 608 868 665 895 640 868 b 551 925 575 868 551 895 b 608 985 551 958 575 985 z "},"":{"ha":1389,"x_min":0,"x_max":0,"o":"m 933 513 l 1042 1215 l 811 1215 l 811 1272 l 578 1272 l 578 1215 l 290 1215 b 174 1099 225 1215 174 1164 l 174 868 b 290 751 174 806 225 751 l 418 751 l 456 513 b 347 290 391 461 347 380 l 347 231 b 464 117 347 168 399 117 l 925 117 b 1042 231 990 117 1042 168 l 1042 290 b 933 513 1042 380 998 461 z m 290 868 l 290 1099 l 366 1099 l 401 868 l 290 868 z m 906 1099 l 827 578 l 562 578 l 483 1099 l 906 1099 z m 925 231 l 464 231 l 464 290 b 637 464 464 385 540 464 l 751 464 b 925 290 849 464 925 385 l 925 231 z m 637 347 b 694 404 637 380 662 404 b 751 347 727 404 751 380 b 694 290 751 315 727 290 b 637 347 662 290 637 315 z "},"":{"ha":1389,"x_min":0,"x_max":0,"o":"m 551 1185 b 665 1302 551 1251 602 1302 b 781 1185 730 1302 781 1251 b 665 1072 781 1123 730 1072 b 551 1185 602 1072 551 1123 z m 703 977 b 656 1025 692 998 675 1015 b 545 1028 621 1047 578 1044 l 231 852 l 231 578 l 347 578 l 347 784 l 434 833 b 404 637 415 770 404 703 l 404 328 l 255 127 l 347 57 l 521 290 l 534 494 l 637 347 l 637 57 l 751 57 l 751 434 l 637 597 b 665 792 635 627 629 697 b 849 654 708 727 773 678 l 1194 57 l 1245 87 l 928 637 l 985 637 l 985 751 b 749 879 955 751 817 743 z "},"":{"ha":1389,"x_min":0,"x_max":0,"o":"m 1158 290 l 1158 1215 l 231 1215 l 231 290 l 117 290 l 117 174 l 1272 174 l 1272 290 l 1158 290 z m 925 868 l 1042 868 l 1042 751 l 925 751 l 925 868 z m 811 751 l 347 751 l 347 868 l 811 868 l 811 751 z m 1042 985 l 925 985 l 925 1099 l 1042 1099 l 1042 985 z m 811 1099 l 811 985 l 347 985 l 347 1099 l 811 1099 z m 347 290 l 347 637 l 811 637 l 811 532 b 768 448 784 513 768 483 b 868 347 768 393 811 347 b 968 448 925 347 968 393 b 925 532 968 483 952 513 l 925 637 l 1042 637 l 1042 290 l 347 290 z "},"":{"ha":1389,"x_min":0,"x_max":0,"o":"m 1158 290 l 1158 1215 l 231 1215 l 231 290 l 117 290 l 117 174 l 768 174 b 868 73 768 117 811 73 b 968 174 925 73 968 117 l 1272 174 l 1272 290 l 1158 290 z m 1042 751 l 925 751 l 925 868 l 1042 868 l 1042 751 z m 811 751 l 347 751 l 347 868 l 811 868 l 811 751 z m 811 637 l 811 521 l 347 521 l 347 637 l 811 637 z m 925 637 l 1042 637 l 1042 521 l 925 521 l 925 637 z m 1042 985 l 925 985 l 925 1099 l 1042 1099 l 1042 985 z m 811 1099 l 811 985 l 347 985 l 347 1099 l 811 1099 z m 347 290 l 347 404 l 811 404 l 811 290 l 347 290 z m 925 290 l 925 404 l 1042 404 l 1042 290 l 925 290 z "},"":{"ha":1389,"x_min":0,"x_max":0,"o":"m 694 1272 b 117 694 374 1272 117 1015 b 694 117 117 374 374 117 b 1272 694 1015 117 1272 374 b 694 1272 1272 1015 1015 1272 z m 231 694 b 694 1158 231 949 439 1158 b 979 1061 800 1158 901 1120 l 328 410 b 231 694 269 488 231 589 z m 694 231 b 410 328 589 231 488 269 l 1061 979 b 1158 694 1120 901 1158 800 b 694 231 1158 439 949 231 z "},"":{"ha":1389,"x_min":0,"x_max":0,"o":"m 521 464 l 868 464 l 868 347 l 521 347 l 521 464 z m 751 868 l 637 868 l 637 751 l 521 751 l 521 637 l 637 637 l 637 521 l 751 521 l 751 637 l 868 637 l 868 751 l 751 751 l 751 868 z m 694 1272 b 231 591 385 1009 231 781 b 694 117 231 301 450 117 b 1158 591 939 117 1158 301 b 694 1272 1158 781 1004 1009 z m 694 231 b 347 591 502 231 347 380 b 694 1120 347 727 461 906 b 1042 591 928 906 1042 727 b 694 231 1042 380 887 231 z "},"":{"ha":1389,"x_min":0,"x_max":0,"o":"m 1025 944 l 694 1272 l 637 1272 l 637 833 l 372 1099 l 290 1017 l 613 694 l 290 372 l 372 290 l 637 556 l 637 117 l 694 117 l 1025 445 l 776 694 l 1025 944 z m 751 1053 l 860 944 l 751 833 l 751 1053 z m 860 445 l 751 336 l 751 556 l 860 445 z "},"":{"ha":1389,"x_min":0,"x_max":0,"o":"m 825 694 l 958 559 b 985 694 974 602 985 648 b 958 827 985 741 974 787 l 825 694 z m 1131 1001 l 1058 928 b 1115 694 1093 857 1115 779 b 1058 461 1115 610 1093 532 l 1126 393 b 1215 700 1183 483 1215 589 b 1131 1001 1215 808 1183 911 z m 909 944 l 578 1272 l 521 1272 l 521 833 l 255 1099 l 174 1017 l 496 694 l 174 372 l 255 290 l 521 556 l 521 117 l 578 117 l 909 445 l 659 694 l 909 944 z m 637 1053 l 746 944 l 637 833 l 637 1053 z m 746 445 l 637 336 l 637 556 l 746 445 z "},"":{"ha":1389,"x_min":0,"x_max":0,"o":"m 404 694 l 290 811 l 174 694 l 290 578 l 404 694 z m 1025 944 l 694 1272 l 637 1272 l 637 833 l 372 1099 l 290 1017 l 613 694 l 290 372 l 372 290 l 637 556 l 637 117 l 694 117 l 1025 445 l 776 694 l 1025 944 z m 751 1053 l 860 944 l 751 833 l 751 1053 z m 860 445 l 751 336 l 751 556 l 860 445 z m 1099 811 l 985 694 l 1099 578 l 1215 694 l 1099 811 z "},"":{"ha":1389,"x_min":0,"x_max":0,"o":"m 751 1053 l 860 944 l 768 849 l 849 768 l 1025 944 l 694 1272 l 637 1272 l 637 982 l 751 865 l 751 1053 z m 312 1158 l 231 1077 l 613 694 l 290 372 l 372 290 l 637 556 l 637 117 l 694 117 l 944 363 l 1077 231 l 1158 312 l 312 1158 z m 751 336 l 751 556 l 860 445 l 751 336 z "},"":{"ha":1389,"x_min":0,"x_max":0,"o":"m 290 551 b 377 637 290 597 328 637 b 464 551 423 637 464 597 b 377 464 464 502 423 464 b 290 551 328 464 290 502 z m 811 551 b 898 637 811 597 849 637 b 985 551 944 637 985 597 b 898 464 985 502 944 464 b 811 551 849 464 811 502 z m 1042 404 l 231 404 l 231 694 l 868 694 l 868 811 l 279 811 l 339 985 l 868 985 l 868 1099 l 317 1099 b 236 1042 279 1099 250 1074 l 117 694 l 117 231 b 174 174 117 201 141 174 l 231 174 b 290 231 263 174 290 201 l 290 290 l 985 290 l 985 231 b 1042 174 985 201 1009 174 l 1099 174 b 1158 231 1131 174 1158 201 l 1158 694 l 1042 694 l 1042 404 z m 1272 1166 l 1109 1332 l 1080 1332 l 1080 1112 l 947 1245 l 906 1204 l 1066 1042 l 906 879 l 947 838 l 1080 971 l 1080 751 l 1109 751 l 1272 917 l 1147 1042 l 1272 1166 z m 1137 1221 l 1191 1166 l 1137 1112 l 1137 1221 z m 1191 917 l 1137 863 l 1137 971 l 1191 917 z "},"":{"ha":1389,"x_min":0,"x_max":0,"o":"m 825 694 l 958 559 b 985 694 974 602 985 648 b 958 827 985 741 974 787 l 825 694 z m 1131 1001 l 1058 928 b 1115 694 1093 857 1115 779 b 1058 461 1115 610 1093 532 l 1126 393 b 1215 700 1183 483 1215 589 b 1131 1001 1215 808 1183 911 z m 909 944 l 578 1272 l 521 1272 l 521 833 l 255 1099 l 174 1017 l 496 694 l 174 372 l 255 290 l 521 556 l 521 117 l 578 117 l 909 445 l 659 694 l 909 944 z m 637 1053 l 746 944 l 637 833 l 637 1053 z m 746 445 l 637 336 l 637 556 l 746 445 z "},"":{"ha":1389,"x_min":0,"x_max":0,"o":"m 578 868 b 521 811 548 868 521 841 b 578 751 521 779 548 751 b 637 811 610 751 637 779 b 578 868 637 841 610 868 z m 578 637 b 521 578 548 637 521 610 b 578 521 521 548 548 521 b 637 578 610 521 637 548 b 578 637 637 610 610 637 z m 404 838 b 377 811 388 838 377 827 b 404 781 377 795 388 781 b 434 811 420 781 434 795 b 404 838 434 827 420 838 z m 578 434 b 551 404 562 434 551 420 b 578 377 551 388 562 377 b 608 404 594 377 608 388 b 578 434 608 420 594 434 z m 404 608 b 377 578 388 608 377 594 b 404 551 377 562 388 551 b 434 578 420 551 434 562 b 404 608 434 594 420 608 z m 578 955 b 608 985 594 955 608 968 b 578 1012 608 1001 594 1012 b 551 985 562 1012 551 1001 b 578 955 551 968 562 955 z m 811 868 b 751 811 779 868 751 841 b 811 751 751 779 779 751 b 868 811 841 751 868 779 b 811 868 868 841 841 868 z m 811 955 b 838 985 827 955 838 968 b 811 1012 838 1001 827 1012 b 781 985 795 1012 781 1001 b 811 955 781 968 795 955 z m 985 608 b 955 578 968 608 955 594 b 985 551 955 562 968 551 b 1012 578 1001 551 1012 562 b 985 608 1012 594 1001 608 z m 985 838 b 955 811 968 838 955 827 b 985 781 955 795 968 781 b 1012 811 1001 781 1012 795 b 985 838 1012 827 1001 838 z m 694 1272 b 117 694 374 1272 117 1015 b 694 117 117 374 374 117 b 1272 694 1015 117 1272 374 b 694 1272 1272 1015 1015 1272 z m 694 231 b 231 694 439 231 231 439 b 694 1158 231 949 439 1158 b 1158 694 949 1158 1158 949 b 694 231 1158 439 949 231 z m 811 434 b 781 404 795 434 781 420 b 811 377 781 388 795 377 b 838 404 827 377 838 388 b 811 434 838 420 827 434 z m 811 637 b 751 578 779 637 751 610 b 811 521 751 548 779 521 b 868 578 841 521 868 548 b 811 637 868 610 841 637 z "},"":{"ha":1389,"x_min":0,"x_max":0,"o":"m 290 377 b 377 464 336 377 377 415 b 290 551 377 510 336 551 b 203 464 241 551 203 510 b 290 377 203 415 241 377 z m 521 637 b 578 694 553 637 578 662 b 521 751 578 727 553 751 b 464 694 488 751 464 727 b 521 637 464 662 488 637 z m 521 868 b 578 925 553 868 578 895 b 521 985 578 958 553 985 b 464 925 488 985 464 958 b 521 868 464 895 488 868 z m 174 174 l 1215 174 l 1215 290 l 174 290 l 174 174 z m 290 838 b 377 925 336 838 377 879 b 290 1012 377 974 336 1012 b 203 925 241 1012 203 974 b 290 838 203 879 241 838 z m 290 608 b 377 694 336 608 377 646 b 290 781 377 743 336 781 b 203 694 241 781 203 743 b 290 608 203 646 241 608 z m 521 404 b 578 464 553 404 578 431 b 521 521 578 494 553 521 b 464 464 488 521 464 494 b 521 404 464 431 488 404 z m 985 434 b 1012 464 1001 434 1012 448 b 985 491 1012 480 1001 491 b 955 464 968 491 955 480 b 985 434 955 448 968 434 z m 174 1215 l 174 1099 l 1215 1099 l 1215 1215 l 174 1215 z m 985 898 b 1012 925 1001 898 1012 909 b 985 955 1012 941 1001 955 b 955 925 968 955 955 941 b 985 898 955 909 968 898 z m 985 665 b 1012 694 1001 665 1012 678 b 985 724 1012 711 1001 724 b 955 694 968 724 955 711 b 985 665 955 678 968 665 z m 751 868 b 811 925 784 868 811 895 b 751 985 811 958 784 985 b 694 925 722 985 694 958 b 751 868 694 895 722 868 z m 751 637 b 811 694 784 637 811 662 b 751 751 811 727 784 751 b 694 694 722 751 694 727 b 751 637 694 662 722 637 z m 751 404 b 811 464 784 404 811 431 b 751 521 811 494 784 521 b 694 464 722 521 694 494 b 751 404 694 431 722 404 z "},"":{"ha":1389,"x_min":0,"x_max":0,"o":"m 751 1042 b 811 1099 751 1074 779 1099 b 868 1042 841 1099 868 1074 b 811 985 868 1009 841 985 b 751 1042 779 985 751 1009 z m 798 724 l 811 724 b 898 811 857 724 898 762 b 811 898 898 857 857 898 b 724 811 762 898 724 857 l 724 798 b 798 724 730 760 760 730 z m 811 1185 b 838 1215 827 1185 838 1199 b 811 1245 838 1232 827 1245 b 781 1215 795 1245 781 1232 b 811 1185 781 1199 795 1185 z m 578 1185 b 608 1215 594 1185 608 1199 b 578 1245 608 1232 594 1245 b 551 1215 562 1245 551 1232 b 578 1185 551 1199 562 1185 z m 985 811 b 1042 868 985 841 1009 868 b 1099 811 1074 868 1099 841 b 1042 751 1099 779 1074 751 b 985 811 1009 751 985 779 z m 985 1042 b 1042 1099 985 1074 1009 1099 b 1099 1042 1074 1099 1099 1074 b 1042 985 1099 1009 1074 985 b 985 1042 1009 985 985 1009 z m 1215 781 b 1245 811 1232 781 1245 795 b 1215 838 1245 827 1232 838 b 1185 811 1199 838 1185 827 b 1215 781 1185 795 1199 781 z m 521 1042 b 578 1099 521 1074 548 1099 b 637 1042 610 1099 637 1074 b 578 985 637 1009 610 985 b 521 1042 548 985 521 1009 z m 985 578 b 1042 637 985 610 1009 637 b 1099 578 1074 637 1099 610 b 1042 521 1099 548 1074 521 b 985 578 1009 521 985 548 z m 290 347 b 347 404 290 380 315 404 b 404 347 380 404 404 380 b 347 290 404 315 380 290 b 290 347 315 290 290 315 z m 811 203 b 781 174 795 203 781 190 b 811 144 781 157 795 144 b 838 174 827 144 838 157 b 811 203 838 190 827 203 z m 1215 608 b 1185 578 1199 608 1185 594 b 1215 551 1185 562 1199 551 b 1245 578 1232 551 1245 562 b 1215 608 1245 594 1232 608 z m 174 608 b 144 578 157 608 144 594 b 174 551 144 562 157 551 b 203 578 190 551 203 562 b 174 608 203 594 190 608 z m 521 347 b 578 404 521 380 548 404 b 637 347 610 404 637 380 b 578 290 637 315 610 290 b 521 347 548 290 521 315 z m 174 838 b 144 811 157 838 144 827 b 174 781 144 795 157 781 b 203 811 190 781 203 795 b 174 838 203 827 190 838 z m 578 203 b 551 174 562 203 551 190 b 578 144 551 157 562 144 b 608 174 594 144 608 157 b 578 203 608 190 594 203 z m 290 578 b 347 637 290 610 315 637 b 404 578 380 637 404 610 b 347 521 404 548 380 521 b 290 578 315 521 290 548 z m 144 1085 l 347 882 l 363 865 l 347 868 b 290 811 315 868 290 841 b 347 751 290 779 315 751 b 404 811 380 751 404 779 b 401 827 404 817 404 822 l 564 665 b 491 578 524 656 491 621 b 578 491 491 532 532 491 b 665 564 621 491 656 524 l 827 401 b 811 404 822 404 817 404 b 751 347 779 404 751 380 b 811 290 751 315 779 290 b 868 347 841 290 868 315 b 865 363 868 353 865 358 l 1082 144 l 1085 144 l 1166 225 l 225 1166 l 144 1085 z "},"":{"ha":1389,"x_min":0,"x_max":0,"o":"m 347 637 b 290 578 315 637 290 610 b 347 521 290 548 315 521 b 404 578 380 521 404 548 b 347 637 404 610 380 637 z m 347 404 b 290 347 315 404 290 380 b 347 290 290 315 315 290 b 404 347 380 290 404 315 b 347 404 404 380 380 404 z m 347 868 b 290 811 315 868 290 841 b 347 751 290 779 315 751 b 404 811 380 751 404 779 b 347 868 404 841 380 868 z m 174 838 b 144 811 157 838 144 827 b 174 781 144 795 157 781 b 203 811 190 781 203 795 b 174 838 203 827 190 838 z m 347 1099 b 290 1042 315 1099 290 1074 b 347 985 290 1009 315 985 b 404 1042 380 985 404 1009 b 347 1099 404 1074 380 1099 z m 1215 781 b 1245 811 1232 781 1245 795 b 1215 838 1245 827 1232 838 b 1185 811 1199 838 1185 827 b 1215 781 1185 795 1199 781 z m 811 985 b 868 1042 841 985 868 1009 b 811 1099 868 1074 841 1099 b 751 1042 779 1099 751 1074 b 811 985 751 1009 779 985 z m 811 1185 b 838 1215 827 1185 838 1199 b 811 1245 838 1232 827 1245 b 781 1215 795 1245 781 1232 b 811 1185 781 1199 795 1185 z m 174 608 b 144 578 157 608 144 594 b 174 551 144 562 157 551 b 203 578 190 551 203 562 b 174 608 203 594 190 608 z m 578 203 b 551 174 562 203 551 190 b 578 144 551 157 562 144 b 608 174 594 144 608 157 b 578 203 608 190 594 203 z m 578 1185 b 608 1215 594 1185 608 1199 b 578 1245 608 1232 594 1245 b 551 1215 562 1245 551 1232 b 578 1185 551 1199 562 1185 z m 578 985 b 637 1042 610 985 637 1009 b 578 1099 637 1074 610 1099 b 521 1042 548 1099 521 1074 b 578 985 521 1009 548 985 z m 578 665 b 491 578 532 665 491 627 b 578 491 491 532 532 491 b 665 578 627 491 665 532 b 578 665 665 627 627 665 z m 1042 637 b 985 578 1009 637 985 610 b 1042 521 985 548 1009 521 b 1099 578 1074 521 1099 548 b 1042 637 1099 610 1074 637 z m 1042 404 b 985 347 1009 404 985 380 b 1042 290 985 315 1009 290 b 1099 347 1074 290 1099 315 b 1042 404 1099 380 1074 404 z m 1042 868 b 985 811 1009 868 985 841 b 1042 751 985 779 1009 751 b 1099 811 1074 751 1099 779 b 1042 868 1099 841 1074 868 z m 1042 1099 b 985 1042 1009 1099 985 1074 b 1042 985 985 1009 1009 985 b 1099 1042 1074 985 1099 1009 b 1042 1099 1099 1074 1074 1099 z m 1215 608 b 1185 578 1199 608 1185 594 b 1215 551 1185 562 1199 551 b 1245 578 1232 551 1245 562 b 1215 608 1245 594 1232 608 z m 811 404 b 751 347 779 404 751 380 b 811 290 751 315 779 290 b 868 347 841 290 868 315 b 811 404 868 380 841 404 z m 811 203 b 781 174 795 203 781 190 b 811 144 781 157 795 144 b 838 174 827 144 838 157 b 811 203 838 190 827 203 z m 578 898 b 491 811 532 898 491 857 b 578 724 491 762 532 724 b 665 811 627 724 665 762 b 578 898 665 857 627 898 z m 578 404 b 521 347 548 404 521 380 b 578 290 521 315 548 290 b 637 347 610 290 637 315 b 578 404 637 380 610 404 z m 811 665 b 724 578 762 665 724 627 b 811 491 724 532 762 491 b 898 578 857 491 898 532 b 811 665 898 627 857 665 z m 811 898 b 724 811 762 898 724 857 b 811 724 724 762 762 724 b 898 811 857 724 898 762 b 811 898 898 857 857 898 z "},"":{"ha":1389,"x_min":0,"x_max":0,"o":"m 637 174 l 578 174 l 637 578 l 434 578 b 415 624 382 578 415 621 b 754 1215 491 757 602 952 l 811 1215 l 754 811 l 955 811 b 979 773 979 811 993 800 b 637 174 751 374 637 174 z "},"":{"ha":1389,"x_min":0,"x_max":0,"o":"m 1042 1272 l 347 1272 b 231 1158 285 1272 231 1221 l 231 231 b 347 117 231 168 285 117 l 1042 117 b 1158 231 1104 117 1158 168 l 1158 1158 b 1042 1272 1158 1221 1104 1272 z m 521 1158 l 637 1158 l 637 868 l 578 911 l 521 868 l 521 1158 z m 1042 231 l 347 231 l 347 1158 l 404 1158 l 404 637 l 578 768 l 751 637 l 751 1158 l 1042 1158 l 1042 231 z "},"":{"ha":1389,"x_min":0,"x_max":0,"o":"m 985 1158 l 404 1158 l 404 1215 l 985 1215 l 985 1158 z m 985 174 l 404 174 l 404 231 l 985 231 l 985 174 z m 985 1332 l 404 1332 b 290 1215 342 1332 290 1278 l 290 174 b 404 57 290 111 342 57 l 985 57 b 1099 174 1047 57 1099 111 l 1099 1215 b 985 1332 1099 1278 1047 1332 z m 404 1042 l 985 1042 l 985 347 l 404 347 l 404 1042 z m 925 751 l 925 860 b 868 925 925 895 901 925 l 521 925 b 464 860 488 925 464 895 l 464 746 b 521 689 494 746 521 722 b 464 632 521 656 494 632 l 464 529 b 521 464 464 494 488 464 l 868 464 b 925 529 901 464 925 494 l 925 637 b 868 694 895 637 868 662 b 925 751 868 727 895 751 z m 724 551 l 665 551 l 665 608 l 724 608 l 724 551 z m 724 665 l 665 665 l 665 724 l 724 724 l 724 665 z m 724 781 l 665 781 l 665 838 l 724 838 l 724 781 z "},"":{"ha":1389,"x_min":0,"x_max":0,"o":"m 985 1215 l 404 1215 b 290 1099 342 1215 290 1164 l 290 174 l 694 347 l 1099 174 l 1099 1099 b 985 1215 1099 1164 1047 1215 z "},"":{"ha":1389,"x_min":0,"x_max":0,"o":"m 985 751 l 985 350 l 694 472 l 404 350 l 404 1099 l 751 1099 l 751 1215 l 404 1215 b 290 1099 342 1215 290 1164 l 290 174 l 694 347 l 1099 174 l 1099 751 l 985 751 z m 1215 985 l 1099 985 l 1099 868 l 985 868 l 985 985 l 868 985 l 868 1099 l 985 1099 l 985 1215 l 1099 1215 l 1099 1099 l 1215 1099 l 1215 985 z "},"":{"ha":1389,"x_min":0,"x_max":0,"o":"m 985 751 l 985 350 l 694 472 l 404 350 l 404 1099 l 751 1099 l 751 1215 l 404 1215 b 290 1099 342 1215 290 1164 l 290 174 l 694 347 l 1099 174 l 1099 751 l 985 751 z m 1031 868 l 868 1031 l 949 1112 l 1031 1031 l 1237 1237 l 1318 1156 l 1031 868 z "},"":{"ha":1389,"x_min":0,"x_max":0,"o":"m 985 1215 l 404 1215 b 290 1099 342 1215 290 1164 l 290 174 l 694 347 l 1099 174 l 1099 1099 b 985 1215 1099 1164 1047 1215 z m 985 347 l 694 475 l 404 347 l 404 1099 l 985 1099 l 985 347 z "},"":{"ha":1389,"x_min":0,"x_max":0,"o":"m 985 751 l 985 350 l 694 472 l 404 350 l 404 1099 l 751 1099 l 751 1215 l 404 1215 b 290 1099 342 1215 290 1164 l 290 174 l 694 347 l 1099 174 l 1099 751 l 985 751 z m 1215 985 l 868 985 l 868 1099 l 1215 1099 l 1215 985 z "},"":{"ha":1389,"x_min":0,"x_max":0,"o":"m 868 985 l 868 233 l 624 339 l 578 358 l 532 339 l 290 233 l 290 985 l 868 985 z m 1099 1332 l 521 1332 b 404 1215 456 1332 404 1278 l 985 1215 b 1099 1099 1047 1215 1099 1164 l 1099 347 l 1215 290 l 1215 1215 b 1099 1332 1215 1278 1164 1332 z m 868 1099 l 290 1099 b 174 985 225 1099 174 1047 l 174 57 l 578 231 l 985 57 l 985 985 b 868 1099 985 1047 930 1099 z "},"":{"ha":1389,"x_min":0,"x_max":0,"o":"m 174 1215 l 174 174 l 1215 174 l 1215 1215 l 174 1215 z m 637 290 l 290 290 l 290 637 l 637 637 l 637 290 z m 637 751 l 290 751 l 290 1099 l 637 1099 l 637 751 z m 1099 290 l 751 290 l 751 637 l 1099 637 l 1099 290 z m 1099 751 l 751 751 l 751 1099 l 1099 1099 l 1099 751 z "},"":{"ha":1389,"x_min":0,"x_max":0,"o":"m 521 751 l 404 751 l 404 637 l 521 637 l 521 751 z m 751 521 l 637 521 l 637 404 l 751 404 l 751 521 z m 521 1215 l 404 1215 l 404 1099 l 521 1099 l 521 1215 z m 751 751 l 637 751 l 637 637 l 751 637 l 751 751 z m 290 1215 l 174 1215 l 174 1099 l 290 1099 l 290 1215 z m 751 985 l 637 985 l 637 868 l 751 868 l 751 985 z m 985 751 l 868 751 l 868 637 l 985 637 l 985 751 z m 751 1215 l 637 1215 l 637 1099 l 751 1099 l 751 1215 z m 985 1215 l 868 1215 l 868 1099 l 985 1099 l 985 1215 z m 1099 637 l 1215 637 l 1215 751 l 1099 751 l 1099 637 z m 1099 404 l 1215 404 l 1215 521 l 1099 521 l 1099 404 z m 290 985 l 174 985 l 174 868 l 290 868 l 290 985 z m 1099 1215 l 1099 1099 l 1215 1099 l 1215 1215 l 1099 1215 z m 1099 868 l 1215 868 l 1215 985 l 1099 985 l 1099 868 z m 290 751 l 174 751 l 174 637 l 290 637 l 290 751 z m 174 174 l 1215 174 l 1215 290 l 174 290 l 174 174 z m 290 521 l 174 521 l 174 404 l 290 404 l 290 521 z "},"":{"ha":1389,"x_min":0,"x_max":0,"o":"m 404 1099 l 521 1099 l 521 1215 l 404 1215 l 404 1099 z m 404 637 l 521 637 l 521 751 l 404 751 l 404 637 z m 404 174 l 521 174 l 521 290 l 404 290 l 404 174 z m 637 404 l 751 404 l 751 521 l 637 521 l 637 404 z m 637 174 l 751 174 l 751 290 l 637 290 l 637 174 z m 174 174 l 290 174 l 290 290 l 174 290 l 174 174 z m 174 404 l 290 404 l 290 521 l 174 521 l 174 404 z m 174 637 l 290 637 l 290 751 l 174 751 l 174 637 z m 174 868 l 290 868 l 290 985 l 174 985 l 174 868 z m 174 1099 l 290 1099 l 290 1215 l 174 1215 l 174 1099 z m 637 637 l 751 637 l 751 751 l 637 751 l 637 637 z m 1099 404 l 1215 404 l 1215 521 l 1099 521 l 1099 404 z m 1099 637 l 1215 637 l 1215 751 l 1099 751 l 1099 637 z m 1099 174 l 1215 174 l 1215 290 l 1099 290 l 1099 174 z m 1099 868 l 1215 868 l 1215 985 l 1099 985 l 1099 868 z m 637 868 l 751 868 l 751 985 l 637 985 l 637 868 z m 1099 1215 l 1099 1099 l 1215 1099 l 1215 1215 l 1099 1215 z m 637 1099 l 751 1099 l 751 1215 l 637 1215 l 637 1099 z m 868 174 l 985 174 l 985 290 l 868 290 l 868 174 z m 868 637 l 985 637 l 985 751 l 868 751 l 868 637 z m 868 1099 l 985 1099 l 985 1215 l 868 1215 l 868 1099 z "},"":{"ha":1389,"x_min":0,"x_max":0,"o":"m 974 871 l 757 1088 l 231 564 l 231 347 l 448 347 l 974 871 z m 347 464 l 347 515 l 757 925 l 808 871 l 401 464 l 347 464 z m 1139 1039 b 1139 1120 1164 1061 1164 1099 l 1006 1256 b 963 1272 993 1267 979 1272 b 922 1256 949 1272 936 1267 l 817 1150 l 1034 933 l 1139 1039 z m 117 231 l 1272 231 l 1272 0 l 117 0 l 117 231 z "},"":{"ha":1389,"x_min":0,"x_max":0,"o":"m 174 174 l 290 174 l 290 290 l 174 290 l 174 174 z m 290 985 l 174 985 l 174 868 l 290 868 l 290 985 z m 174 404 l 290 404 l 290 521 l 174 521 l 174 404 z m 404 174 l 521 174 l 521 290 l 404 290 l 404 174 z m 290 1215 l 174 1215 l 174 1099 l 290 1099 l 290 1215 z m 521 1215 l 404 1215 l 404 1099 l 521 1099 l 521 1215 z m 985 1215 l 868 1215 l 868 1099 l 985 1099 l 985 1215 z m 751 985 l 637 985 l 637 868 l 751 868 l 751 985 z m 751 1215 l 637 1215 l 637 1099 l 751 1099 l 751 1215 z m 1099 404 l 1215 404 l 1215 521 l 1099 521 l 1099 404 z m 637 174 l 751 174 l 751 290 l 637 290 l 637 174 z m 174 637 l 1215 637 l 1215 751 l 174 751 l 174 637 z m 1099 1215 l 1099 1099 l 1215 1099 l 1215 1215 l 1099 1215 z m 1099 868 l 1215 868 l 1215 985 l 1099 985 l 1099 868 z m 637 404 l 751 404 l 751 521 l 637 521 l 637 404 z m 868 174 l 985 174 l 985 290 l 868 290 l 868 174 z m 1099 174 l 1215 174 l 1215 290 l 1099 290 l 1099 174 z "},"":{"ha":1389,"x_min":0,"x_max":0,"o":"m 174 174 l 290 174 l 290 290 l 174 290 l 174 174 z m 404 174 l 521 174 l 521 290 l 404 290 l 404 174 z m 290 985 l 174 985 l 174 868 l 290 868 l 290 985 z m 174 404 l 290 404 l 290 521 l 174 521 l 174 404 z m 521 1215 l 404 1215 l 404 1099 l 521 1099 l 521 1215 z m 290 1215 l 174 1215 l 174 1099 l 290 1099 l 290 1215 z m 985 1215 l 868 1215 l 868 1099 l 985 1099 l 985 1215 z m 1099 868 l 1215 868 l 1215 985 l 1099 985 l 1099 868 z m 1099 1215 l 1099 1099 l 1215 1099 l 1215 1215 l 1099 1215 z m 868 174 l 985 174 l 985 290 l 868 290 l 868 174 z m 751 1215 l 637 1215 l 637 751 l 174 751 l 174 637 l 637 637 l 637 174 l 751 174 l 751 637 l 1215 637 l 1215 751 l 751 751 l 751 1215 z m 1099 174 l 1215 174 l 1215 290 l 1099 290 l 1099 174 z m 1099 404 l 1215 404 l 1215 521 l 1099 521 l 1099 404 z "},"":{"ha":1389,"x_min":0,"x_max":0,"o":"m 637 174 l 751 174 l 751 290 l 637 290 l 637 174 z m 637 404 l 751 404 l 751 521 l 637 521 l 637 404 z m 637 1099 l 751 1099 l 751 1215 l 637 1215 l 637 1099 z m 637 868 l 751 868 l 751 985 l 637 985 l 637 868 z m 637 637 l 751 637 l 751 751 l 637 751 l 637 637 z m 404 174 l 521 174 l 521 290 l 404 290 l 404 174 z m 404 1099 l 521 1099 l 521 1215 l 404 1215 l 404 1099 z m 404 637 l 521 637 l 521 751 l 404 751 l 404 637 z m 174 174 l 290 174 l 290 1215 l 174 1215 l 174 174 z m 1099 868 l 1215 868 l 1215 985 l 1099 985 l 1099 868 z m 868 174 l 985 174 l 985 290 l 868 290 l 868 174 z m 1099 404 l 1215 404 l 1215 521 l 1099 521 l 1099 404 z m 1099 1215 l 1099 1099 l 1215 1099 l 1215 1215 l 1099 1215 z m 1099 637 l 1215 637 l 1215 751 l 1099 751 l 1099 637 z m 1099 174 l 1215 174 l 1215 290 l 1099 290 l 1099 174 z m 868 637 l 985 637 l 985 751 l 868 751 l 868 637 z m 868 1099 l 985 1099 l 985 1215 l 868 1215 l 868 1099 z "},"":{"ha":1389,"x_min":0,"x_max":0,"o":"m 751 985 l 637 985 l 637 868 l 751 868 l 751 985 z m 751 751 l 637 751 l 637 637 l 751 637 l 751 751 z m 985 751 l 868 751 l 868 637 l 985 637 l 985 751 z m 174 1215 l 174 174 l 1215 174 l 1215 1215 l 174 1215 z m 1099 290 l 290 290 l 290 1099 l 1099 1099 l 1099 290 z m 751 521 l 637 521 l 637 404 l 751 404 l 751 521 z m 521 751 l 404 751 l 404 637 l 521 637 l 521 751 z "},"":{"ha":1389,"x_min":0,"x_max":0,"o":"m 404 174 l 521 174 l 521 290 l 404 290 l 404 174 z m 174 1099 l 290 1099 l 290 1215 l 174 1215 l 174 1099 z m 404 1099 l 521 1099 l 521 1215 l 404 1215 l 404 1099 z m 404 637 l 521 637 l 521 751 l 404 751 l 404 637 z m 174 174 l 290 174 l 290 290 l 174 290 l 174 174 z m 637 174 l 751 174 l 751 290 l 637 290 l 637 174 z m 174 637 l 290 637 l 290 751 l 174 751 l 174 637 z m 174 404 l 290 404 l 290 521 l 174 521 l 174 404 z m 174 868 l 290 868 l 290 985 l 174 985 l 174 868 z m 637 404 l 751 404 l 751 521 l 637 521 l 637 404 z m 868 637 l 985 637 l 985 751 l 868 751 l 868 637 z m 1099 1215 l 1099 174 l 1215 174 l 1215 1215 l 1099 1215 z m 868 174 l 985 174 l 985 290 l 868 290 l 868 174 z m 868 1099 l 985 1099 l 985 1215 l 868 1215 l 868 1099 z m 637 637 l 751 637 l 751 751 l 637 751 l 637 637 z m 637 1099 l 751 1099 l 751 1215 l 637 1215 l 637 1099 z m 637 868 l 751 868 l 751 985 l 637 985 l 637 868 z "},"":{"ha":1389,"x_min":0,"x_max":0,"o":"m 868 174 l 985 174 l 985 290 l 868 290 l 868 174 z m 1099 174 l 1215 174 l 1215 290 l 1099 290 l 1099 174 z m 404 174 l 521 174 l 521 290 l 404 290 l 404 174 z m 637 174 l 751 174 l 751 290 l 637 290 l 637 174 z m 1099 404 l 1215 404 l 1215 521 l 1099 521 l 1099 404 z m 1099 637 l 1215 637 l 1215 751 l 1099 751 l 1099 637 z m 174 1215 l 174 174 l 290 174 l 290 1099 l 1215 1099 l 1215 1215 l 174 1215 z m 1099 868 l 1215 868 l 1215 985 l 1099 985 l 1099 868 z "},"":{"ha":1389,"x_min":0,"x_max":0,"o":"m 404 174 l 521 174 l 521 290 l 404 290 l 404 174 z m 404 637 l 521 637 l 521 751 l 404 751 l 404 637 z m 637 637 l 751 637 l 751 751 l 637 751 l 637 637 z m 637 174 l 751 174 l 751 290 l 637 290 l 637 174 z m 174 404 l 290 404 l 290 521 l 174 521 l 174 404 z m 174 174 l 290 174 l 290 290 l 174 290 l 174 174 z m 174 637 l 290 637 l 290 751 l 174 751 l 174 637 z m 174 868 l 290 868 l 290 985 l 174 985 l 174 868 z m 637 404 l 751 404 l 751 521 l 637 521 l 637 404 z m 1099 868 l 1215 868 l 1215 985 l 1099 985 l 1099 868 z m 1099 637 l 1215 637 l 1215 751 l 1099 751 l 1099 637 z m 174 1215 l 174 1099 l 1215 1099 l 1215 1215 l 174 1215 z m 1099 404 l 1215 404 l 1215 521 l 1099 521 l 1099 404 z m 868 174 l 985 174 l 985 290 l 868 290 l 868 174 z m 637 868 l 751 868 l 751 985 l 637 985 l 637 868 z m 1099 174 l 1215 174 l 1215 290 l 1099 290 l 1099 174 z m 868 637 l 985 637 l 985 751 l 868 751 l 868 637 z "},"":{"ha":1389,"x_min":0,"x_max":0,"o":"m 174 868 l 290 868 l 290 985 l 174 985 l 174 868 z m 174 1099 l 290 1099 l 290 1215 l 174 1215 l 174 1099 z m 404 174 l 521 174 l 521 290 l 404 290 l 404 174 z m 404 637 l 521 637 l 521 751 l 404 751 l 404 637 z m 174 637 l 290 637 l 290 751 l 174 751 l 174 637 z m 174 174 l 290 174 l 290 290 l 174 290 l 174 174 z m 174 404 l 290 404 l 290 521 l 174 521 l 174 404 z m 404 1099 l 521 1099 l 521 1215 l 404 1215 l 404 1099 z m 1099 404 l 1215 404 l 1215 521 l 1099 521 l 1099 404 z m 637 174 l 751 174 l 751 1215 l 637 1215 l 637 174 z m 1099 174 l 1215 174 l 1215 290 l 1099 290 l 1099 174 z m 1099 637 l 1215 637 l 1215 751 l 1099 751 l 1099 637 z m 1099 1215 l 1099 1099 l 1215 1099 l 1215 1215 l 1099 1215 z m 1099 868 l 1215 868 l 1215 985 l 1099 985 l 1099 868 z m 868 1099 l 985 1099 l 985 1215 l 868 1215 l 868 1099 z m 868 174 l 985 174 l 985 290 l 868 290 l 868 174 z m 868 637 l 985 637 l 985 751 l 868 751 l 868 637 z "},"":{"ha":1389,"x_min":0,"x_max":0,"o":"m 694 955 b 795 1055 751 955 795 1001 b 694 1158 795 1112 751 1158 b 594 1055 637 1158 594 1112 b 694 955 594 1001 637 955 z m 811 231 l 811 521 l 868 521 l 868 781 b 751 898 868 844 817 898 l 637 898 b 521 781 572 898 521 844 l 521 521 l 578 521 l 578 231 l 811 231 z "},"":{"ha":1389,"x_min":0,"x_max":0,"o":"m 1215 1215 l 174 1215 b 57 1099 111 1215 57 1164 l 57 290 b 174 174 57 225 111 174 l 1215 174 b 1332 290 1278 174 1332 225 l 1332 1099 b 1215 1215 1332 1164 1278 1215 z m 1215 290 l 174 290 l 174 1099 l 1215 1099 l 1215 290 z m 637 694 l 1158 694 l 1158 347 l 637 347 l 637 694 z "},"":{"ha":1389,"x_min":0,"x_max":0,"o":"m 1042 1215 l 347 1215 b 117 985 220 1215 117 1112 b 231 784 117 898 163 825 l 231 290 b 347 174 231 225 285 174 l 1042 174 b 1158 290 1104 174 1158 225 l 1158 784 b 1272 985 1226 825 1272 898 b 1042 1215 1272 1112 1169 1215 z m 1099 884 l 1042 852 l 1042 290 l 347 290 l 347 849 l 290 884 b 231 985 252 906 231 944 b 347 1099 231 1047 285 1099 l 1042 1099 b 1158 985 1104 1099 1158 1047 b 1099 884 1158 944 1137 906 z m 735 852 b 694 868 724 863 711 868 b 654 852 678 868 665 863 l 480 678 b 480 597 458 654 458 618 l 654 423 b 694 404 665 410 678 404 b 735 423 711 404 724 410 l 909 597 b 909 678 930 618 930 654 l 735 852 z m 694 545 l 602 637 l 694 730 l 787 637 l 694 545 z "},"":{"ha":1389,"x_min":0,"x_max":0,"o":"m 694 1158 b 1158 694 949 1158 1158 949 b 694 231 1158 439 949 231 b 231 694 439 231 231 439 b 694 1158 231 949 439 1158 z m 694 1272 b 117 694 374 1272 117 1015 b 694 117 117 374 374 117 b 1272 694 1015 117 1272 374 b 694 1272 1272 1015 1015 1272 z "},"":{"ha":1389,"x_min":0,"x_max":0,"o":"m 578 1158 b 1042 694 833 1158 1042 949 b 578 231 1042 439 833 231 b 521 236 559 231 540 233 b 694 694 632 361 694 524 b 521 1153 694 865 632 1028 b 578 1158 540 1156 559 1158 z m 578 1272 b 290 1196 475 1272 374 1245 b 578 694 461 1096 578 909 b 290 193 578 480 461 293 b 578 117 374 144 475 117 b 1158 694 898 117 1158 374 b 578 1272 1158 1015 898 1272 z "},"":{"ha":1389,"x_min":0,"x_max":0,"o":"m 735 1104 b 985 694 882 1028 985 873 b 735 285 985 515 882 361 b 868 694 819 399 868 543 b 735 1104 868 846 819 990 z m 521 1272 b 347 1248 461 1272 401 1264 b 751 694 583 1172 751 955 b 347 141 751 434 583 217 b 521 117 401 125 461 117 b 1099 694 841 117 1099 374 b 521 1272 1099 1015 841 1272 z "},"":{"ha":1389,"x_min":0,"x_max":0,"o":"m 1158 887 l 1158 1158 l 887 1158 l 694 1348 l 502 1158 l 231 1158 l 231 887 l 41 694 l 231 502 l 231 231 l 502 231 l 694 41 l 887 231 l 1158 231 l 1158 502 l 1348 694 l 1158 887 z m 1042 551 l 1042 347 l 838 347 l 694 203 l 551 347 l 347 347 l 347 551 l 203 694 l 347 838 l 347 1042 l 551 1042 l 694 1185 l 838 1042 l 1042 1042 l 1042 838 l 1185 694 l 1042 551 z m 711 985 b 591 958 667 985 627 974 b 760 694 692 911 760 811 b 591 431 760 578 692 477 b 711 404 627 415 667 404 b 1001 694 871 404 1001 534 b 711 985 1001 854 871 985 z "},"":{"ha":1389,"x_min":0,"x_max":0,"o":"m 1158 887 l 1158 1158 l 887 1158 l 694 1348 l 502 1158 l 231 1158 l 231 887 l 41 694 l 231 502 l 231 231 l 502 231 l 694 41 l 887 231 l 1158 231 l 1158 502 l 1348 694 l 1158 887 z m 1042 551 l 1042 347 l 838 347 l 694 203 l 551 347 l 347 347 l 347 551 l 203 694 l 347 838 l 347 1042 l 551 1042 l 694 1185 l 838 1042 l 1042 1042 l 1042 838 l 1185 694 l 1042 551 z m 694 1012 b 377 694 518 1012 377 871 b 694 377 377 518 518 377 b 1012 694 871 377 1012 518 b 694 1012 1012 871 871 1012 z m 694 491 b 491 694 583 491 491 583 b 694 898 491 806 583 898 b 898 694 806 898 898 806 b 694 491 898 583 806 491 z "},"":{"ha":1389,"x_min":0,"x_max":0,"o":"m 1158 887 l 1158 1158 l 887 1158 l 694 1348 l 502 1158 l 231 1158 l 231 887 l 41 694 l 231 502 l 231 231 l 502 231 l 694 41 l 887 231 l 1158 231 l 1158 502 l 1348 694 l 1158 887 z m 1042 551 l 1042 347 l 838 347 l 694 203 l 551 347 l 347 347 l 347 551 l 203 694 l 347 838 l 347 1042 l 551 1042 l 694 1185 l 838 1042 l 1042 1042 l 1042 838 l 1185 694 l 1042 551 z m 694 1012 l 694 377 b 1012 694 871 377 1012 518 b 694 1012 1012 871 871 1012 z "},"":{"ha":1389,"x_min":0,"x_max":0,"o":"m 1158 887 l 1158 1158 l 887 1158 l 694 1348 l 502 1158 l 231 1158 l 231 887 l 41 694 l 231 502 l 231 231 l 502 231 l 694 41 l 887 231 l 1158 231 l 1158 502 l 1348 694 l 1158 887 z m 1042 551 l 1042 347 l 838 347 l 694 203 l 551 347 l 347 347 l 347 551 l 203 694 l 347 838 l 347 1042 l 551 1042 l 694 1185 l 838 1042 l 1042 1042 l 1042 838 l 1185 694 l 1042 551 z m 694 1012 b 377 694 518 1012 377 871 b 694 377 377 518 518 377 b 1012 694 871 377 1012 518 b 694 1012 1012 871 871 1012 z m 694 491 b 491 694 583 491 491 583 b 694 898 491 806 583 898 b 898 694 806 898 898 806 b 694 491 898 583 806 491 z m 578 694 b 694 811 578 760 629 811 b 811 694 760 811 811 760 b 694 578 811 629 760 578 b 578 694 629 578 578 629 z "},"":{"ha":1389,"x_min":0,"x_max":0,"o":"m 637 985 l 450 464 l 562 464 l 602 578 l 787 578 l 827 464 l 939 464 l 751 985 l 637 985 z m 627 656 l 694 868 l 762 656 l 627 656 z m 1158 887 l 1158 1158 l 887 1158 l 694 1348 l 502 1158 l 231 1158 l 231 887 l 41 694 l 231 502 l 231 231 l 502 231 l 694 41 l 887 231 l 1158 231 l 1158 502 l 1348 694 l 1158 887 z m 1042 551 l 1042 347 l 838 347 l 694 203 l 551 347 l 347 347 l 347 551 l 203 694 l 347 838 l 347 1042 l 551 1042 l 694 1185 l 838 1042 l 1042 1042 l 1042 838 l 1185 694 l 1042 551 z "},"":{"ha":1389,"x_min":0,"x_max":0,"o":"m 1158 887 l 1158 1158 l 887 1158 l 694 1348 l 502 1158 l 231 1158 l 231 887 l 41 694 l 231 502 l 231 231 l 502 231 l 694 41 l 887 231 l 1158 231 l 1158 502 l 1348 694 l 1158 887 z m 1042 551 l 1042 347 l 838 347 l 694 203 l 551 347 l 347 347 l 347 551 l 203 694 l 347 838 l 347 1042 l 551 1042 l 694 1185 l 838 1042 l 1042 1042 l 1042 838 l 1185 694 l 1042 551 z m 694 1042 b 347 694 502 1042 347 887 b 694 347 347 502 502 347 b 1042 694 887 347 1042 502 b 694 1042 1042 887 887 1042 z m 694 464 b 464 694 567 464 464 567 b 694 925 464 822 567 925 b 925 694 822 925 925 822 b 694 464 925 567 822 464 z m 551 694 b 694 838 551 773 616 838 b 838 694 773 838 838 773 b 694 551 838 616 773 551 b 551 694 616 551 551 616 z "},"":{"ha":1389,"x_min":0,"x_max":0,"o":"m 1158 887 l 1158 1158 l 887 1158 l 694 1348 l 502 1158 l 231 1158 l 231 887 l 41 694 l 231 502 l 231 231 l 502 231 l 694 41 l 887 231 l 1158 231 l 1158 502 l 1348 694 l 1158 887 z m 1042 551 l 1042 347 l 838 347 l 694 203 l 551 347 l 347 347 l 347 551 l 203 694 l 347 838 l 347 1042 l 551 1042 l 694 1185 l 838 1042 l 1042 1042 l 1042 838 l 1185 694 l 1042 551 z m 694 1042 b 347 694 502 1042 347 887 b 694 347 347 502 502 347 b 1042 694 887 347 1042 502 b 694 1042 1042 887 887 1042 z m 694 464 b 464 694 567 464 464 567 b 694 925 464 822 567 925 b 925 694 822 925 925 822 b 694 464 925 567 822 464 z "},"":{"ha":1389,"x_min":0,"x_max":0,"o":"m 1158 887 l 1158 1158 l 887 1158 l 694 1348 l 502 1158 l 231 1158 l 231 887 l 41 694 l 231 502 l 231 231 l 502 231 l 694 41 l 887 231 l 1158 231 l 1158 502 l 1348 694 l 1158 887 z m 1042 551 l 1042 347 l 838 347 l 694 203 l 551 347 l 347 347 l 347 551 l 203 694 l 347 838 l 347 1042 l 551 1042 l 694 1185 l 838 1042 l 1042 1042 l 1042 838 l 1185 694 l 1042 551 z m 694 1042 l 694 347 b 1042 694 887 347 1042 502 b 694 1042 1042 887 887 1042 z "},"":{"ha":1389,"x_min":0,"x_max":0,"o":"m 1272 1042 b 1158 1158 1272 1104 1221 1158 l 231 1158 l 231 1042 l 1158 1042 l 1158 892 b 1272 825 1199 876 1240 852 l 1272 1042 z m 464 868 l 174 868 b 117 811 144 868 117 838 l 117 290 b 174 231 117 260 144 231 l 464 231 b 521 290 491 231 521 260 l 521 811 b 464 868 521 838 491 868 z m 404 347 l 231 347 l 231 751 l 404 751 l 404 347 z m 1028 407 b 1055 464 1044 420 1055 439 b 985 534 1055 502 1023 534 b 911 464 944 534 911 502 b 941 407 911 439 922 420 l 941 117 l 1028 117 l 1028 407 z m 985 608 b 1128 464 1063 608 1128 543 b 1085 361 1128 423 1112 388 l 1147 301 b 1215 464 1188 342 1215 399 b 985 694 1215 591 1112 694 b 751 464 857 694 751 591 b 819 298 751 399 779 342 l 882 361 b 838 464 854 388 838 423 b 985 608 838 543 903 608 z m 985 838 b 608 464 776 838 608 670 b 719 198 608 358 651 266 l 779 258 b 694 464 727 312 694 382 b 985 751 694 624 825 751 b 1272 464 1145 751 1272 624 b 1188 260 1272 382 1240 312 l 1251 198 b 1359 464 1318 266 1359 361 b 985 838 1359 670 1191 838 z "},"":{"ha":1389,"x_min":0,"x_max":0,"o":"m 231 290 l 231 811 l 578 1072 l 814 892 b 966 925 863 911 911 922 l 578 1215 l 117 868 l 117 174 l 624 174 b 556 290 594 209 572 247 l 231 290 z m 985 534 b 911 464 944 534 911 502 b 941 407 911 439 922 420 l 941 117 l 1028 117 l 1028 407 b 1055 464 1044 420 1055 439 b 985 534 1055 502 1023 534 z m 985 694 b 751 464 857 694 751 591 b 819 298 751 399 779 342 l 882 361 b 838 464 854 388 838 423 b 985 608 838 543 903 608 b 1128 464 1063 608 1128 543 b 1085 361 1128 423 1112 388 l 1147 301 b 1215 464 1188 342 1215 399 b 985 694 1215 591 1112 694 z m 985 838 b 608 464 776 838 608 670 b 719 198 608 358 651 266 l 779 258 b 694 464 727 312 694 382 b 985 751 694 624 825 751 b 1272 464 1145 751 1272 624 b 1188 260 1272 382 1240 312 l 1251 198 b 1359 464 1318 266 1359 361 b 985 838 1359 670 1191 838 z "},"":{"ha":1389,"x_min":0,"x_max":0,"o":"m 1099 1215 l 290 1215 b 174 1099 225 1215 174 1164 l 174 290 b 290 174 174 225 225 174 l 1099 174 b 1215 290 1164 174 1215 225 l 1215 1099 b 1099 1215 1215 1164 1164 1215 z m 1099 290 l 290 290 l 290 553 l 347 496 l 578 730 l 808 496 l 1042 727 l 1099 670 l 1099 290 z m 1099 833 l 1042 892 l 808 659 l 578 892 l 347 659 l 290 719 l 290 1099 l 1099 1099 l 1099 833 z "},"":{"ha":1389,"x_min":0,"x_max":0,"o":"m 521 1215 b 0 694 233 1215 0 982 b 521 174 0 407 233 174 b 1042 694 808 174 1042 407 b 521 1215 1042 982 808 1215 z m 521 290 b 117 694 298 290 117 472 b 521 1099 117 917 298 1099 b 925 694 743 1099 925 917 b 521 290 925 472 743 290 z m 578 985 l 464 985 l 464 670 l 684 450 l 765 532 l 578 719 l 578 985 z m 1042 1185 l 1042 1061 b 1272 694 1177 996 1272 857 b 1042 328 1272 532 1177 393 l 1042 203 b 1389 694 1242 277 1389 469 b 1042 1185 1389 920 1242 1112 z "},"":{"ha":1389,"x_min":0,"x_max":0,"o":"m 1099 1042 l 1099 434 l 1213 320 b 1215 347 1215 331 1215 339 l 1215 1042 b 1099 1158 1215 1104 1164 1158 l 377 1158 l 491 1042 l 1099 1042 z m 187 1196 l 114 1123 l 174 1063 l 174 347 b 290 231 174 285 225 231 l 1004 231 l 1123 111 l 1196 184 l 187 1196 z m 868 347 l 290 347 l 290 947 l 890 347 l 868 347 z "},"":{"ha":1389,"x_min":0,"x_max":0,"o":"m 1272 637 l 1272 464 b 1158 347 1272 399 1221 347 l 985 347 l 1042 290 l 1042 174 l 347 174 l 347 290 l 404 347 l 231 347 b 117 464 168 347 117 399 l 117 1099 b 231 1215 117 1164 168 1215 l 694 1215 l 694 1099 l 231 1099 l 231 464 l 1158 464 l 1158 637 l 1272 637 z m 868 521 l 578 811 l 659 892 l 811 743 l 811 1215 l 925 1215 l 925 743 l 1077 892 l 1158 811 l 868 521 z "},"":{"ha":1389,"x_min":0,"x_max":0,"o":"m 117 144 b 144 117 117 127 127 117 l 898 117 b 925 144 914 117 925 127 l 925 231 l 117 231 l 117 144 z m 898 464 l 637 464 l 637 578 l 404 578 l 404 464 l 144 464 b 117 434 127 464 117 450 l 117 347 l 925 347 l 925 434 b 898 464 925 450 914 464 z m 1185 494 b 1272 722 1242 556 1272 637 l 1272 1272 l 925 1272 l 925 724 b 1017 494 925 640 960 556 l 1042 469 l 1042 117 l 1272 117 l 1272 231 l 1158 231 l 1158 464 l 1185 494 z m 1042 1158 l 1158 1158 l 1158 925 l 1042 925 l 1042 1158 z m 1101 575 b 1042 724 1063 616 1042 670 l 1042 811 l 1158 811 l 1158 722 b 1101 575 1158 667 1137 616 z "},"":{"ha":1389,"x_min":0,"x_max":0,"o":"m 404 464 b 464 404 437 464 464 437 b 347 290 464 342 410 290 b 317 293 336 290 328 290 b 347 404 336 323 347 363 b 404 464 347 437 374 464 z m 1080 1215 b 1039 1199 1066 1215 1050 1210 l 521 681 l 681 521 l 1199 1039 b 1199 1120 1221 1061 1221 1099 l 1120 1199 b 1080 1215 1109 1210 1096 1215 z m 404 578 b 231 404 309 578 231 502 b 117 290 231 328 165 290 b 347 174 168 220 260 174 b 578 404 475 174 578 277 b 404 578 578 502 502 578 z "},"":{"ha":1389,"x_min":0,"x_max":0,"o":"m 404 811 b 174 578 277 811 174 705 b 404 347 174 450 277 347 b 637 578 532 347 637 450 b 404 811 637 705 532 811 z m 404 464 b 290 578 342 464 290 515 b 404 694 290 643 342 694 b 521 578 469 694 521 643 b 404 464 521 515 469 464 z m 868 521 b 694 347 773 521 694 442 b 868 174 694 252 773 174 b 1042 347 963 174 1042 252 b 868 521 1042 442 963 521 z m 868 290 b 811 347 836 290 811 315 b 868 404 811 380 836 404 b 928 347 901 404 928 380 b 868 290 928 315 901 290 z m 955 1215 b 637 898 779 1215 637 1072 b 955 578 637 722 779 578 b 1272 898 1131 578 1272 722 b 955 1215 1272 1072 1131 1215 z m 955 694 b 751 898 844 694 751 784 b 955 1099 751 1009 844 1099 b 1158 898 1066 1099 1158 1009 b 955 694 1158 784 1066 694 z "},"":{"ha":1389,"x_min":0,"x_max":0,"o":"m 1158 925 l 996 925 b 890 1039 968 971 933 1009 l 985 1134 l 903 1215 l 776 1090 b 694 1099 749 1096 722 1099 b 613 1090 667 1099 640 1096 l 486 1215 l 404 1134 l 499 1039 b 393 925 456 1009 420 971 l 231 925 l 231 811 l 353 811 b 347 751 350 792 347 773 l 347 694 l 231 694 l 231 578 l 347 578 l 347 521 b 353 464 347 502 350 483 l 231 464 l 231 347 l 393 347 b 694 174 453 244 567 174 b 996 347 822 174 936 244 l 1158 347 l 1158 464 l 1036 464 b 1042 521 1039 483 1042 502 l 1042 578 l 1158 578 l 1158 694 l 1042 694 l 1042 751 b 1036 811 1042 773 1039 792 l 1158 811 l 1158 925 z m 925 694 l 925 521 b 922 480 925 507 925 494 l 917 442 l 895 404 b 694 290 852 334 776 290 b 494 404 613 290 537 334 l 472 442 l 467 480 b 464 521 464 494 464 507 l 464 751 b 467 792 464 765 464 781 l 472 830 l 494 868 b 564 944 513 898 537 925 l 597 966 l 640 977 b 694 985 659 982 675 985 b 749 977 713 985 730 982 l 789 968 l 825 944 b 895 868 852 922 876 898 l 917 830 l 922 792 b 925 751 925 779 925 765 l 925 694 z m 578 578 l 811 578 l 811 464 l 578 464 l 578 578 z m 578 811 l 811 811 l 811 694 l 578 694 l 578 811 z "},"":{"ha":1389,"x_min":0,"x_max":0,"o":"m 1308 290 l 784 817 b 700 1221 836 952 808 1109 b 212 1259 567 1354 358 1364 l 434 1036 l 353 955 l 130 1175 b 168 689 22 1028 35 822 b 567 602 277 581 431 553 l 1093 76 b 1175 76 1118 52 1153 52 l 1308 209 b 1308 290 1332 231 1332 266 z m 1134 198 l 589 746 b 472 697 553 719 513 703 b 250 770 393 686 309 711 b 174 968 195 825 171 898 l 353 789 l 597 1036 l 418 1215 b 618 1139 491 1218 564 1194 b 689 909 681 1077 705 990 b 640 795 684 868 665 830 l 1185 250 l 1134 198 z "},"":{"ha":1389,"x_min":0,"x_max":0,"o":"m 694 1272 b 117 694 374 1272 117 1015 b 694 117 117 374 374 117 b 1272 694 1015 117 1272 374 b 694 1272 1272 1015 1015 1272 z m 694 231 b 231 694 439 231 231 439 b 694 1158 231 949 439 1158 b 1158 694 949 1158 1158 949 b 694 231 1158 439 949 231 z m 781 730 b 735 939 806 800 789 884 b 496 974 670 1004 572 1015 l 632 838 l 551 757 l 415 892 b 450 654 374 817 385 719 b 659 608 505 600 589 583 l 857 410 b 898 410 868 399 884 399 l 979 491 b 979 532 990 505 990 521 l 781 730 z "},"":{"ha":1389,"x_min":0,"x_max":0,"o":"m 751 578 l 637 578 l 637 694 l 751 694 l 751 578 z m 1047 431 l 985 532 l 985 174 l 404 174 l 404 532 l 342 431 l 244 491 l 694 1215 l 1145 491 l 1047 431 z m 868 719 l 694 996 l 521 719 l 521 290 l 637 290 l 637 464 l 751 464 l 751 290 l 868 290 l 868 719 z "},"":{"ha":1389,"x_min":0,"x_max":0,"o":"m 57 1099 l 174 1099 l 174 290 l 57 290 l 57 1099 z m 290 1099 l 404 1099 l 404 290 l 290 290 l 290 1099 z m 1272 1099 l 578 1099 b 521 1042 548 1099 521 1074 l 521 347 b 578 290 521 315 548 290 l 1272 290 b 1332 347 1305 290 1332 315 l 1332 1042 b 1272 1099 1332 1074 1305 1099 z m 1215 404 l 637 404 l 637 985 l 1215 985 l 1215 404 z m 1009 659 l 892 510 l 811 610 l 694 464 l 1158 464 l 1009 659 z "},"":{"ha":1389,"x_min":0,"x_max":0,"o":"m 290 491 b 377 578 290 540 328 578 b 464 491 423 578 464 540 b 377 404 464 445 423 404 b 290 491 328 404 290 445 z m 694 491 b 781 578 694 540 732 578 b 868 491 830 578 868 540 b 781 404 868 445 830 404 b 694 491 732 404 694 445 z m 231 751 l 231 925 l 654 925 b 637 1042 643 963 637 1001 l 258 1042 b 640 1099 304 1082 429 1104 b 675 1213 648 1139 659 1177 b 117 985 171 1234 117 1099 l 117 434 b 174 293 117 380 138 328 l 174 174 b 231 117 174 141 201 117 l 290 117 b 347 174 320 117 347 141 l 347 231 l 811 231 l 811 174 b 868 117 811 141 836 117 l 925 117 b 985 174 958 117 985 141 l 985 293 b 1042 434 1020 328 1042 380 l 1042 637 b 760 751 930 637 833 681 l 231 751 z m 925 464 b 811 347 925 399 873 347 l 347 347 b 231 464 285 347 231 399 l 231 637 l 925 637 l 925 464 z m 1042 1332 b 751 1042 882 1332 751 1202 b 1042 751 751 882 882 751 b 1332 1042 1202 751 1332 882 b 1042 1332 1332 1202 1202 1332 z m 1072 868 l 1012 868 l 1012 925 l 1072 925 l 1072 868 z m 1072 985 l 1012 985 l 1012 1215 l 1072 1215 l 1072 985 z "},"":{"ha":1389,"x_min":0,"x_max":0,"o":"m 694 985 l 694 1215 l 117 1215 l 117 174 l 1272 174 l 1272 985 l 694 985 z m 347 290 l 231 290 l 231 404 l 347 404 l 347 290 z m 347 521 l 231 521 l 231 637 l 347 637 l 347 521 z m 347 751 l 231 751 l 231 868 l 347 868 l 347 751 z m 347 985 l 231 985 l 231 1099 l 347 1099 l 347 985 z m 578 290 l 464 290 l 464 404 l 578 404 l 578 290 z m 578 521 l 464 521 l 464 637 l 578 637 l 578 521 z m 578 751 l 464 751 l 464 868 l 578 868 l 578 751 z m 578 985 l 464 985 l 464 1099 l 578 1099 l 578 985 z m 1158 290 l 694 290 l 694 404 l 811 404 l 811 521 l 694 521 l 694 637 l 811 637 l 811 751 l 694 751 l 694 868 l 1158 868 l 1158 290 z m 1042 751 l 925 751 l 925 637 l 1042 637 l 1042 751 z m 1042 521 l 925 521 l 925 404 l 1042 404 l 1042 521 z "},"":{"ha":1389,"x_min":0,"x_max":0,"o":"m 1158 985 l 925 985 l 925 1099 l 811 1215 l 578 1215 l 464 1099 l 464 985 l 231 985 b 117 868 168 985 117 930 l 117 578 b 174 477 117 534 138 499 l 174 290 b 290 174 174 225 225 174 l 1099 174 b 1215 290 1164 174 1215 225 l 1215 480 b 1272 578 1251 499 1272 537 l 1272 868 b 1158 985 1272 930 1221 985 z m 578 1099 l 811 1099 l 811 985 l 578 985 l 578 1099 z m 231 868 l 1158 868 l 1158 578 l 868 578 l 868 751 l 521 751 l 521 578 l 231 578 l 231 868 z m 751 521 l 637 521 l 637 637 l 751 637 l 751 521 z m 1099 290 l 290 290 l 290 464 l 521 464 l 521 404 l 868 404 l 868 464 l 1099 464 l 1099 290 z "},"":{"ha":1389,"x_min":0,"x_max":0,"o":"m 578 1332 b 404 1158 578 1234 502 1158 b 347 1099 374 1158 347 1131 l 231 1099 b 404 1272 231 1196 309 1272 b 464 1332 437 1272 464 1299 l 578 1332 z m 694 1215 l 347 949 l 347 1042 l 231 1042 l 231 863 l 57 730 l 127 637 l 231 716 l 231 174 l 1158 174 l 1158 716 l 1261 637 l 1332 730 l 694 1215 z m 806 985 l 581 985 l 694 1069 l 806 985 z m 431 868 l 958 868 l 1042 806 l 1042 751 l 347 751 l 347 806 l 431 868 z m 1042 637 l 1042 521 l 347 521 l 347 637 l 1042 637 z m 347 290 l 347 404 l 1042 404 l 1042 290 l 347 290 z "},"":{"ha":1389,"x_min":0,"x_max":0,"o":"m 1158 1099 l 1158 1158 b 1099 1215 1158 1188 1131 1215 l 985 1215 b 925 1158 952 1215 925 1188 l 925 1099 l 868 1099 l 868 868 b 925 811 868 836 895 811 l 985 811 l 985 404 b 868 290 985 342 930 290 b 751 404 806 290 751 342 l 751 985 b 521 1215 751 1112 648 1215 b 290 985 393 1215 290 1112 l 290 578 l 231 578 b 174 521 201 578 174 553 l 174 290 l 231 290 l 231 231 b 290 174 231 201 258 174 l 404 174 b 464 231 437 174 464 201 l 464 290 l 521 290 l 521 521 b 464 578 521 553 494 578 l 404 578 l 404 985 b 521 1099 404 1047 458 1099 b 637 985 583 1099 637 1047 l 637 404 b 868 174 637 277 741 174 b 1099 404 996 174 1099 277 l 1099 811 l 1158 811 b 1215 868 1188 811 1215 836 l 1215 1099 l 1158 1099 z "},"":{"ha":1389,"x_min":0,"x_max":0,"o":"m 1099 925 l 868 694 l 1042 694 b 694 347 1042 502 887 347 b 532 388 635 347 581 361 l 448 304 b 694 231 518 258 605 231 b 1158 694 949 231 1158 439 l 1332 694 l 1099 925 z m 347 694 b 694 1042 347 887 502 1042 b 857 1001 754 1042 808 1028 l 941 1085 b 694 1158 871 1131 784 1158 b 231 694 439 1158 231 949 l 57 694 l 290 464 l 521 694 l 347 694 z "},"":{"ha":1389,"x_min":0,"x_max":0,"o":"m 694 1042 b 811 1158 760 1042 811 1093 b 792 1218 811 1180 806 1199 l 694 1389 l 597 1218 b 578 1158 583 1199 578 1180 b 694 1042 578 1093 632 1042 z m 1042 868 l 751 868 l 751 985 l 637 985 l 637 868 l 347 868 b 174 694 252 868 174 789 l 174 174 b 231 117 174 141 201 117 l 1158 117 b 1215 174 1188 117 1215 141 l 1215 694 b 1042 868 1215 789 1137 868 z m 1099 231 l 290 231 l 290 404 b 429 464 342 407 391 426 l 491 526 l 553 464 b 836 464 629 388 762 388 l 898 526 l 960 464 b 1099 404 998 426 1047 407 l 1099 231 z m 1099 491 b 1023 524 1069 494 1042 505 l 898 648 l 773 524 b 613 524 732 483 656 483 l 491 648 l 366 524 b 290 491 347 505 320 494 l 290 694 b 347 751 290 727 315 751 l 1042 751 b 1099 694 1074 751 1099 727 l 1099 491 z "},"":{"ha":1389,"x_min":0,"x_max":0,"o":"m 1099 1215 l 290 1215 b 174 1099 225 1215 174 1164 l 174 290 b 290 174 174 225 225 174 l 1099 174 b 1215 290 1164 174 1215 225 l 1215 1099 b 1099 1215 1215 1164 1164 1215 z m 1099 290 l 290 290 l 290 1099 l 1099 1099 l 1099 290 z m 361 941 l 651 941 l 651 854 l 361 854 l 361 941 z m 751 477 l 1042 477 l 1042 391 l 751 391 l 751 477 z m 751 621 l 1042 621 l 1042 534 l 751 534 l 751 621 z m 464 347 l 551 347 l 551 464 l 665 464 l 665 551 l 551 551 l 551 665 l 464 665 l 464 551 l 347 551 l 347 464 l 464 464 l 464 347 z m 817 754 l 898 836 l 979 754 l 1039 817 l 958 898 l 1039 979 l 979 1042 l 898 960 l 817 1042 l 754 979 l 836 898 l 754 817 l 817 754 z "},"":{"ha":1389,"x_min":0,"x_max":0,"o":"m 1099 1158 l 1042 1158 l 1042 1272 l 925 1272 l 925 1158 l 464 1158 l 464 1272 l 347 1272 l 347 1158 l 290 1158 b 174 1042 225 1158 174 1104 l 174 231 b 290 117 174 168 225 117 l 1099 117 b 1215 231 1164 117 1215 168 l 1215 1042 b 1099 1158 1215 1104 1164 1158 z m 1099 231 l 290 231 l 290 811 l 1099 811 l 1099 231 z m 1099 925 l 290 925 l 290 1042 l 1099 1042 l 1099 925 z m 521 578 l 404 578 l 404 694 l 521 694 l 521 578 z m 751 578 l 637 578 l 637 694 l 751 694 l 751 578 z m 985 578 l 868 578 l 868 694 l 985 694 l 985 578 z m 521 347 l 404 347 l 404 464 l 521 464 l 521 347 z m 751 347 l 637 347 l 637 464 l 751 464 l 751 347 z m 985 347 l 868 347 l 868 464 l 985 464 l 985 347 z "},"":{"ha":1389,"x_min":0,"x_max":0,"o":"m 1158 1215 l 1099 1215 l 1099 1332 l 985 1332 l 985 1215 l 404 1215 l 404 1332 l 290 1332 l 290 1215 l 231 1215 b 117 1099 168 1215 117 1164 l 117 174 b 231 57 117 111 168 57 l 1158 57 b 1272 174 1221 57 1272 111 l 1272 1099 b 1158 1215 1272 1164 1221 1215 z m 1158 174 l 231 174 l 231 811 l 1158 811 l 1158 174 z m 1158 925 l 231 925 l 231 1099 l 1158 1099 l 1158 925 z "},"":{"ha":1389,"x_min":0,"x_max":0,"o":"m 174 404 l 1215 404 l 1215 290 l 174 290 l 174 404 z m 1099 694 l 1099 637 l 290 637 l 290 694 l 1099 694 z m 1215 811 l 174 811 l 174 521 l 1215 521 l 1215 811 z m 174 1042 l 1215 1042 l 1215 925 l 174 925 l 174 1042 z "},"":{"ha":1389,"x_min":0,"x_max":0,"o":"m 1158 1158 l 231 1158 b 117 1042 168 1158 117 1104 l 117 347 b 231 231 117 285 168 231 l 1158 231 b 1272 347 1221 231 1272 285 l 1272 1042 b 1158 1158 1272 1104 1221 1158 z m 464 751 l 231 751 l 231 1042 l 464 1042 l 464 751 z m 811 751 l 578 751 l 578 1042 l 811 1042 l 811 751 z m 1158 751 l 925 751 l 925 1042 l 1158 1042 l 1158 751 z m 464 347 l 231 347 l 231 637 l 464 637 l 464 347 z m 811 347 l 578 347 l 578 637 l 811 637 l 811 347 z m 1158 347 l 925 347 l 925 637 l 1158 637 l 1158 347 z "},"":{"ha":1389,"x_min":0,"x_max":0,"o":"m 1158 1158 l 231 1158 b 117 1042 168 1158 117 1104 l 117 347 b 231 231 117 285 168 231 l 1158 231 b 1272 347 1221 231 1272 285 l 1272 1042 b 1158 1158 1272 1104 1221 1158 z m 751 1042 l 898 1042 l 898 347 l 751 347 l 751 1042 z m 637 347 l 491 347 l 491 1042 l 637 1042 l 637 347 z m 231 1042 l 377 1042 l 377 347 l 231 347 l 231 1042 z m 1158 347 l 1012 347 l 1012 1042 l 1158 1042 l 1158 347 z "},"":{"ha":1389,"x_min":0,"x_max":0,"o":"m 380 1099 b 404 949 382 1047 391 998 l 336 879 b 290 1099 312 949 296 1023 l 380 1099 z m 949 404 b 1099 377 998 391 1050 382 l 1099 293 b 879 336 1023 296 949 312 l 949 404 z m 434 1215 l 231 1215 b 174 1158 201 1215 174 1188 b 1158 174 174 613 613 174 b 1215 231 1188 174 1215 201 l 1215 434 b 1158 491 1215 467 1188 491 b 952 524 1085 491 1015 502 b 933 526 944 526 939 526 b 892 510 917 526 903 521 l 765 382 b 382 765 600 467 467 600 l 510 892 b 524 952 526 909 532 930 b 491 1158 505 1015 491 1085 b 434 1215 491 1188 467 1215 z "},"":{"ha":1389,"x_min":0,"x_max":0,"o":"m 1077 781 b 1248 670 1137 751 1194 713 l 1185 608 b 1077 681 1153 635 1115 659 l 1077 781 z m 312 781 l 312 681 b 203 608 274 659 239 635 l 141 670 b 312 781 195 713 252 749 z m 694 985 b 16 713 431 985 193 882 b 0 673 5 703 0 689 b 16 632 0 656 5 643 l 160 488 b 201 472 171 477 184 472 b 241 488 217 472 231 477 b 396 594 288 529 339 567 b 429 648 415 605 429 624 l 429 827 b 694 868 513 854 602 868 b 960 825 787 868 876 854 l 960 646 b 993 594 960 624 974 605 b 1147 488 1050 567 1101 529 b 1188 472 1158 477 1172 472 b 1229 488 1204 472 1218 477 l 1373 632 b 1389 673 1383 643 1389 656 b 1373 713 1389 689 1383 703 b 694 985 1196 882 958 985 z "},"":{"ha":1389,"x_min":0,"x_max":0,"o":"m 521 1099 l 521 985 l 903 985 l 231 312 l 312 231 l 985 903 l 985 521 l 1099 521 l 1099 1099 l 521 1099 z "},"":{"ha":1389,"x_min":0,"x_max":0,"o":"m 985 209 l 1066 290 l 868 486 l 787 404 l 985 209 z m 434 925 l 637 925 l 637 602 l 323 290 l 404 209 l 751 556 l 751 925 l 955 925 l 694 1185 l 434 925 z "},"":{"ha":1389,"x_min":0,"x_max":0,"o":"m 1134 985 l 694 545 l 372 868 l 637 868 l 637 985 l 174 985 l 174 521 l 290 521 l 290 787 l 694 382 l 1215 903 l 1134 985 z "},"":{"ha":1389,"x_min":0,"x_max":0,"o":"m 174 903 l 694 382 l 1099 787 l 1099 521 l 1215 521 l 1215 985 l 751 985 l 751 868 l 1017 868 l 694 545 l 255 985 l 174 903 z "},"":{"ha":1389,"x_min":0,"x_max":0,"o":"m 1158 1077 l 1077 1158 l 404 486 l 404 868 l 290 868 l 290 290 l 868 290 l 868 404 l 486 404 l 1158 1077 z "},"":{"ha":1389,"x_min":0,"x_max":0,"o":"m 811 1158 l 944 1025 l 776 857 l 857 776 l 1025 944 l 1158 811 l 1158 1158 l 811 1158 z m 578 1158 l 231 1158 l 231 811 l 363 944 l 637 670 l 637 231 l 751 231 l 751 719 l 445 1025 l 578 1158 z "},"":{"ha":1389,"x_min":0,"x_max":0,"o":"m 1215 1215 l 174 1215 b 57 1099 111 1215 57 1164 l 57 290 b 174 174 57 225 111 174 l 1215 174 b 1332 290 1278 174 1332 225 l 1332 1099 b 1215 1215 1332 1164 1278 1215 z m 1215 290 l 174 290 l 174 1099 l 1215 1099 l 1215 290 z m 290 521 l 1099 521 l 1099 347 l 290 347 l 290 521 z "},"":{"ha":1389,"x_min":0,"x_max":0,"o":"m 825 1259 l 819 1261 l 819 1259 b 694 1272 779 1267 738 1272 b 117 694 374 1272 117 1015 b 694 117 117 374 374 117 b 1272 694 1015 117 1272 374 b 825 1259 1272 968 1082 1199 z m 1123 868 l 662 868 l 817 1139 b 1123 868 958 1101 1069 1001 z m 757 1153 l 594 868 l 529 751 l 372 1025 b 694 1158 453 1107 567 1158 b 757 1153 716 1158 738 1156 z m 331 979 l 494 694 l 562 578 l 247 578 b 231 694 236 616 231 654 b 331 979 231 800 269 901 z m 266 521 l 727 521 l 570 250 b 266 521 431 288 320 388 z m 632 236 l 863 637 l 1020 363 b 694 231 936 282 822 231 b 632 236 673 231 651 233 z m 1058 410 l 827 811 l 1142 811 b 1158 694 1153 773 1158 735 b 1058 410 1158 589 1120 488 z "},"":{"ha":1389,"x_min":0,"x_max":0,"o":"m 1158 1158 l 974 1158 l 868 1272 l 521 1272 l 415 1158 l 231 1158 b 117 1042 168 1158 117 1104 l 117 347 b 231 231 117 285 168 231 l 1158 231 b 1272 347 1221 231 1272 285 l 1272 1042 b 1158 1158 1272 1104 1221 1158 z m 1158 347 l 231 347 l 231 1042 l 467 1042 l 572 1158 l 817 1158 l 922 1042 l 1158 1042 l 1158 347 z m 694 985 b 404 694 534 985 404 854 b 694 404 404 534 534 404 b 985 694 854 404 985 534 b 694 985 985 854 854 985 z m 694 521 b 521 694 600 521 521 600 b 694 868 521 789 600 868 b 868 694 789 868 868 789 b 694 521 868 600 789 521 z "},"":{"ha":1389,"x_min":0,"x_max":0,"o":"m 694 811 l 640 692 l 521 637 l 640 583 l 694 464 l 749 583 l 868 637 l 749 692 l 694 811 z m 1158 1099 l 974 1099 l 868 1215 l 521 1215 l 415 1099 l 231 1099 b 117 985 168 1099 117 1047 l 117 290 b 231 174 117 225 168 174 l 1158 174 b 1272 290 1221 174 1272 225 l 1272 985 b 1158 1099 1272 1047 1221 1099 z m 1158 290 l 231 290 l 231 985 l 467 985 l 499 1023 l 572 1099 l 817 1099 l 890 1023 l 922 985 l 1158 985 l 1158 290 z m 694 925 b 404 637 534 925 404 798 b 694 347 404 477 534 347 b 985 637 854 347 985 477 b 694 925 985 798 854 925 z m 694 464 b 521 637 600 464 521 540 b 694 811 521 732 600 811 b 868 637 789 811 868 732 b 694 464 868 540 789 464 z "},"":{"ha":1389,"x_min":0,"x_max":0,"o":"m 290 231 l 290 117 l 578 117 l 578 0 l 751 174 l 578 347 l 578 231 l 290 231 z m 811 231 l 1099 231 l 1099 117 l 811 117 l 811 231 z m 694 925 b 811 1042 757 925 811 979 b 694 1158 811 1104 757 1158 b 578 1042 629 1158 578 1104 b 694 925 578 979 629 925 z m 985 1389 l 404 1389 b 290 1272 342 1389 290 1337 l 290 464 b 404 347 290 399 342 347 l 985 347 b 1099 464 1047 347 1099 399 l 1099 1272 b 985 1389 1099 1337 1047 1389 z m 985 464 l 404 464 l 404 578 l 985 578 l 985 464 z m 985 665 b 694 811 985 762 792 811 b 404 665 597 811 404 762 l 404 1272 l 985 1272 l 985 665 z "}}}
